G04 #@! TF.GenerationSoftware,KiCad,Pcbnew,(5.0.0)*
G04 #@! TF.CreationDate,2019-05-24T16:02:52+02:00*
G04 #@! TF.ProjectId,EmLab_Amp,456D4C61625F416D702E6B696361645F,rev?*
G04 #@! TF.SameCoordinates,Original*
G04 #@! TF.FileFunction,Copper,L3,Inr,Plane*
G04 #@! TF.FilePolarity,Positive*
%FSLAX46Y46*%
G04 Gerber Fmt 4.6, Leading zero omitted, Abs format (unit mm)*
G04 Created by KiCad (PCBNEW (5.0.0)) date 05/24/19 16:02:52*
%MOMM*%
%LPD*%
G01*
G04 APERTURE LIST*
G04 #@! TA.AperFunction,ViaPad*
%ADD10C,3.000000*%
G04 #@! TD*
G04 #@! TA.AperFunction,ViaPad*
%ADD11C,0.650000*%
G04 #@! TD*
G04 #@! TA.AperFunction,ViaPad*
%ADD12O,1.400000X0.800000*%
G04 #@! TD*
G04 #@! TA.AperFunction,ViaPad*
%ADD13C,2.700000*%
G04 #@! TD*
G04 #@! TA.AperFunction,ViaPad*
%ADD14C,1.600000*%
G04 #@! TD*
G04 #@! TA.AperFunction,ViaPad*
%ADD15C,0.600000*%
G04 #@! TD*
G04 #@! TA.AperFunction,ViaPad*
%ADD16C,0.400000*%
G04 #@! TD*
G04 #@! TA.AperFunction,ViaPad*
%ADD17C,0.800000*%
G04 #@! TD*
G04 #@! TA.AperFunction,Conductor*
%ADD18C,0.500000*%
G04 #@! TD*
G04 #@! TA.AperFunction,Conductor*
%ADD19C,0.200000*%
G04 #@! TD*
G04 #@! TA.AperFunction,Conductor*
%ADD20C,2.000000*%
G04 #@! TD*
G04 #@! TA.AperFunction,Conductor*
%ADD21C,1.500000*%
G04 #@! TD*
G04 #@! TA.AperFunction,Conductor*
%ADD22C,1.000000*%
G04 #@! TD*
G04 #@! TA.AperFunction,Conductor*
%ADD23C,0.125000*%
G04 #@! TD*
G04 #@! TA.AperFunction,Conductor*
%ADD24C,0.250000*%
G04 #@! TD*
G04 APERTURE END LIST*
D10*
G04 #@! TO.N,GND*
G04 #@! TO.C,AGND*
X120523000Y-113157000D03*
G04 #@! TD*
G04 #@! TO.N,GND*
G04 #@! TO.C,DGND*
X126873000Y-73406000D03*
G04 #@! TD*
G04 #@! TO.N,GND*
G04 #@! TO.C,AGND*
X163703000Y-105664000D03*
G04 #@! TD*
G04 #@! TO.N,GND*
G04 #@! TO.C,DGND*
X181737000Y-90678000D03*
G04 #@! TD*
D11*
G04 #@! TO.N,Net-(J2-PadB11)*
G04 #@! TO.C,J2*
X191300000Y-80505000D03*
G04 #@! TO.N,Net-(J2-PadB10)*
X191300000Y-79705000D03*
G04 #@! TO.N,Net-(J2-PadB8)*
X191300000Y-78905000D03*
G04 #@! TO.N,Net-(J2-PadB5)*
X191300000Y-77305000D03*
G04 #@! TO.N,Net-(J2-PadB3)*
X191300000Y-76505000D03*
G04 #@! TO.N,Net-(J2-PadB2)*
X191300000Y-75705000D03*
G04 #@! TO.N,GND*
X190600000Y-80905000D03*
G04 #@! TO.N,/LPC4370-USB/USB_VBUS*
X190600000Y-79305000D03*
G04 #@! TO.N,Net-(D3-Pad2)*
X190600000Y-78505000D03*
G04 #@! TO.N,Net-(D3-Pad3)*
X190600000Y-77705000D03*
G04 #@! TO.N,/LPC4370-USB/USB_VBUS*
X190600000Y-76905000D03*
G04 #@! TO.N,GND*
X190600000Y-75305000D03*
D12*
X197150000Y-82595000D03*
X197150000Y-73615000D03*
X191200000Y-73975000D03*
X191200000Y-82235000D03*
G04 #@! TD*
D13*
G04 #@! TO.N,*
G04 #@! TO.C,J4*
X88773000Y-107696000D03*
X88773000Y-97536000D03*
D14*
G04 #@! TO.N,GND*
X93853000Y-105156000D03*
G04 #@! TO.N,Net-(J4-Pad1)*
X93853000Y-102616000D03*
G04 #@! TD*
D15*
G04 #@! TO.N,GND*
G04 #@! TO.C,U9*
X126627000Y-103386000D03*
X126627000Y-104386000D03*
X127627000Y-104386000D03*
X127627000Y-103386000D03*
X127127000Y-103886000D03*
G04 #@! TD*
D16*
G04 #@! TO.N,/Amplifier/STAGE2_NEG*
X123952000Y-103124000D03*
X124587000Y-104140000D03*
D17*
G04 #@! TO.N,-5V*
X112014000Y-102108000D03*
X122555000Y-102108000D03*
X138811000Y-102743000D03*
X141097000Y-101346000D03*
X143383000Y-101346000D03*
X167259000Y-101346000D03*
X166116000Y-101346000D03*
X165100000Y-101346000D03*
X165100000Y-100457000D03*
X167259000Y-100457000D03*
X166116000Y-100457000D03*
G04 #@! TO.N,+5V*
X166878000Y-114554000D03*
X112141000Y-106426000D03*
X122682000Y-106426000D03*
X126619000Y-97663000D03*
X159258000Y-107442000D03*
X143637000Y-109855000D03*
X166878000Y-115443000D03*
X165862000Y-115443000D03*
X164846000Y-115443000D03*
X164846000Y-114554000D03*
X165862000Y-114554000D03*
X155194000Y-114427000D03*
G04 #@! TO.N,+3V3*
X146177000Y-86829900D03*
D16*
X151866600Y-70637400D03*
D17*
X155054300Y-71843900D03*
D16*
X144792700Y-77673200D03*
X151295100Y-81762600D03*
D17*
X149834600Y-74066400D03*
D16*
X149707600Y-78562200D03*
D17*
X145630900Y-74041000D03*
X141046200Y-72313800D03*
X146646900Y-72250300D03*
D16*
X148443898Y-74041000D03*
X152095200Y-80162400D03*
X148818600Y-83527900D03*
D17*
X125780800Y-81089500D03*
X167005000Y-64516000D03*
D16*
X156883100Y-80073500D03*
D17*
X149352000Y-84455000D03*
X170942000Y-66675000D03*
X171958000Y-66675000D03*
X171958000Y-67564000D03*
X170942000Y-67564000D03*
X170942000Y-68453000D03*
X171958000Y-68453000D03*
D16*
X154762200Y-76269700D03*
D17*
X128778000Y-109855000D03*
G04 #@! TO.N,/LPC4370-USB/USB_VBUS*
X188849000Y-97536000D03*
X189865000Y-97536000D03*
X189865000Y-98552000D03*
X188849000Y-98552000D03*
X188849000Y-99568000D03*
X189865000Y-99568000D03*
X189865000Y-100584000D03*
X197739000Y-102997000D03*
X197739000Y-104013000D03*
X197739000Y-105029000D03*
X197104000Y-105918000D03*
X198628000Y-102997000D03*
X198628000Y-104013000D03*
X198628000Y-105029000D03*
X183134000Y-66675000D03*
X182118000Y-66675000D03*
X182118000Y-67564000D03*
X183134000Y-67564000D03*
X183134000Y-68453000D03*
X182245000Y-68453000D03*
G04 #@! TO.N,/Amplifier/V_REF*
X115189000Y-105029000D03*
X129921000Y-109855000D03*
X149479000Y-114681000D03*
D16*
G04 #@! TO.N,Net-(C67-Pad2)*
X134620000Y-103886000D03*
X136144000Y-104902000D03*
D17*
G04 #@! TO.N,GND*
X177292000Y-67310000D03*
X177292000Y-68326000D03*
X178308000Y-68326000D03*
X178308000Y-67310000D03*
X169037000Y-110490000D03*
X168021000Y-110490000D03*
X168021000Y-111379000D03*
X169037000Y-111379000D03*
X169037000Y-112268000D03*
X168021000Y-112268000D03*
X187833000Y-104267000D03*
X186309000Y-104267000D03*
X186309000Y-102743000D03*
X187833000Y-102743000D03*
D16*
X148094700Y-75361800D03*
X151307800Y-75349100D03*
X146494500Y-76962000D03*
X146494500Y-80962500D03*
X149694900Y-80162400D03*
X150495000Y-80162400D03*
X152069800Y-80937100D03*
D17*
X143040100Y-83350100D03*
X140462000Y-77266800D03*
X129667000Y-64922400D03*
X142011400Y-62674500D03*
X125437900Y-79514700D03*
X104648000Y-104902000D03*
X111887000Y-103632000D03*
X122428000Y-103632000D03*
X129032000Y-99695000D03*
X129413000Y-105918000D03*
X125587000Y-101727000D03*
X133985000Y-108839000D03*
X137160000Y-115697000D03*
X137160000Y-116967000D03*
X138430000Y-116967000D03*
X138430000Y-115697000D03*
X139700000Y-116967000D03*
X139700000Y-115697000D03*
X140970000Y-115697000D03*
X140970000Y-116967000D03*
X142240000Y-115697000D03*
X142240000Y-116967000D03*
X143510000Y-116967000D03*
X143510000Y-115697000D03*
X144780000Y-116967000D03*
X144780000Y-115697000D03*
X125730000Y-115697000D03*
X125730000Y-116967000D03*
X124460000Y-115697000D03*
X124460000Y-116967000D03*
X123190000Y-115697000D03*
X123190000Y-116967000D03*
X121920000Y-115697000D03*
X121920000Y-116967000D03*
X120650000Y-115697000D03*
X120650000Y-116967000D03*
X119380000Y-115697000D03*
X119380000Y-116967000D03*
X118110000Y-115697000D03*
X118110000Y-116967000D03*
X106680000Y-116967000D03*
X106680000Y-115697000D03*
X105410000Y-116967000D03*
X105410000Y-115697000D03*
X104140000Y-116967000D03*
X104140000Y-115697000D03*
X102870000Y-116967000D03*
X102870000Y-115697000D03*
X101600000Y-116967000D03*
X101600000Y-115697000D03*
X100330000Y-116967000D03*
X100330000Y-115697000D03*
X99060000Y-115697000D03*
X99060000Y-116967000D03*
X137160000Y-91948000D03*
X137160000Y-90678000D03*
X105410000Y-91948000D03*
X101600000Y-91948000D03*
X105410000Y-90678000D03*
X101600000Y-90678000D03*
X100330000Y-90678000D03*
X100330000Y-91948000D03*
X123190000Y-90678000D03*
X104140000Y-91948000D03*
X143510000Y-91948000D03*
X143510000Y-90678000D03*
X123190000Y-91948000D03*
X119380000Y-90678000D03*
X104140000Y-90678000D03*
X119380000Y-91948000D03*
X140970000Y-90678000D03*
X140970000Y-91948000D03*
X142240000Y-91948000D03*
X144780000Y-90678000D03*
X121920000Y-90678000D03*
X118110000Y-91948000D03*
X118110000Y-90678000D03*
X99060000Y-90678000D03*
X144780000Y-91948000D03*
X99060000Y-91948000D03*
X121920000Y-91948000D03*
X142240000Y-90678000D03*
X124460000Y-90678000D03*
X120650000Y-90678000D03*
X106680000Y-91948000D03*
X106680000Y-90678000D03*
X102870000Y-91948000D03*
X102870000Y-90678000D03*
X120650000Y-91948000D03*
X124460000Y-91948000D03*
X138430000Y-91948000D03*
X138430000Y-90678000D03*
X125730000Y-90678000D03*
X125730000Y-91948000D03*
X139700000Y-90678000D03*
X139700000Y-91948000D03*
X147320000Y-116967000D03*
X146050000Y-116967000D03*
X146050000Y-90678000D03*
X147320000Y-90678000D03*
X97790000Y-90678000D03*
X96520000Y-90678000D03*
X97790000Y-116840000D03*
X96520000Y-116840000D03*
X159258000Y-102997000D03*
X149733000Y-109728000D03*
D16*
X153797000Y-71501000D03*
D17*
X160032700Y-65100200D03*
X156768800Y-65011300D03*
X143510000Y-70612000D03*
X144653000Y-70612000D03*
X145669000Y-70612000D03*
X146685000Y-70612000D03*
X150114000Y-70485000D03*
X156730700Y-74447400D03*
X156730700Y-75438000D03*
D16*
X156997400Y-80746600D03*
X156997400Y-81165700D03*
X154825700Y-81495900D03*
X155181300Y-81902300D03*
D17*
X147218400Y-87744300D03*
X148297900Y-87757000D03*
X148678900Y-86753700D03*
X147662900Y-86753700D03*
X156718000Y-85509100D03*
X158026100Y-86677500D03*
X158026100Y-87706200D03*
X150495000Y-100457000D03*
X155346000Y-100330000D03*
X153543000Y-115062000D03*
X144907000Y-106680000D03*
X195199000Y-100584000D03*
X195199000Y-99441000D03*
X195199000Y-98298000D03*
X195199000Y-97155000D03*
X195199000Y-95885000D03*
X195199000Y-94742000D03*
X193929000Y-94234000D03*
X193929000Y-95377000D03*
X192786000Y-95377000D03*
X192786000Y-94234000D03*
X191516000Y-94234000D03*
X191516000Y-95377000D03*
X192151000Y-96393000D03*
X193421000Y-96393000D03*
X191897000Y-103886000D03*
X191897000Y-104902000D03*
X177292000Y-105410000D03*
X177292000Y-106680000D03*
X176022000Y-106680000D03*
X176022000Y-105410000D03*
X174752000Y-105410000D03*
X174752000Y-106680000D03*
X173482000Y-106680000D03*
X173482000Y-105410000D03*
X173482000Y-107950000D03*
X174752000Y-107950000D03*
X174752000Y-109220000D03*
X173482000Y-109220000D03*
X173990000Y-96393000D03*
X175260000Y-96393000D03*
X177165000Y-96393000D03*
X178435000Y-96393000D03*
X179832000Y-95123000D03*
X179832000Y-96266000D03*
X178816000Y-116459000D03*
X178816000Y-115316000D03*
X180213000Y-115316000D03*
X181356000Y-115316000D03*
X183388000Y-115316000D03*
X184531000Y-115316000D03*
X163703000Y-114554000D03*
X162687000Y-114554000D03*
X161671000Y-114554000D03*
X161671000Y-115443000D03*
X162687000Y-115443000D03*
X163703000Y-115443000D03*
X163830000Y-101346000D03*
X162814000Y-101346000D03*
X161798000Y-101346000D03*
X161798000Y-100457000D03*
X162814000Y-100457000D03*
X163830000Y-100457000D03*
X169672000Y-109220000D03*
X170815000Y-109220000D03*
X172085000Y-109220000D03*
X172085000Y-107950000D03*
X170815000Y-107950000D03*
X169672000Y-107950000D03*
X170815000Y-106680000D03*
X172085000Y-106680000D03*
X172085000Y-105410000D03*
X170815000Y-105410000D03*
X169672000Y-106680000D03*
X172720000Y-95758000D03*
X172720000Y-94869000D03*
D16*
X166116000Y-96647000D03*
X165608000Y-96647000D03*
X165100000Y-96647000D03*
D17*
X181356000Y-69977000D03*
X170942000Y-69977000D03*
X170942000Y-70866000D03*
X171958000Y-70866000D03*
X171958000Y-69977000D03*
X177038000Y-66040000D03*
X178562000Y-66040000D03*
X176149000Y-65151000D03*
X177800000Y-65151000D03*
X179324000Y-65151000D03*
X176149000Y-70866000D03*
X177165000Y-70866000D03*
X177165000Y-69977000D03*
X176149000Y-69977000D03*
D16*
X152095200Y-77762100D03*
D17*
X185293000Y-75565000D03*
X181610000Y-85598000D03*
X178475000Y-74825000D03*
X178500000Y-81400000D03*
D16*
G04 #@! TO.N,Net-(C11-Pad1)*
X189865000Y-102997000D03*
X188087000Y-100711000D03*
G04 #@! TO.N,/Power/VPOS*
X167005000Y-109855000D03*
X170815000Y-111633000D03*
D17*
G04 #@! TO.N,Net-(C63-Pad2)*
X138811000Y-105156000D03*
X141097000Y-106680000D03*
G04 #@! TO.N,Net-(C62-Pad2)*
X135001000Y-108712000D03*
X137541000Y-105029000D03*
D16*
G04 #@! TO.N,Net-(R18-Pad1)*
X151269700Y-78587600D03*
X175133000Y-84074000D03*
X153162000Y-81915000D03*
G04 #@! TO.N,/LPC4370-GPIO/BOOT_2*
X148107400Y-80949800D03*
X150736300Y-66408300D03*
G04 #@! TO.N,Net-(C52-Pad2)*
X130048000Y-104902000D03*
X129794000Y-103124000D03*
G04 #@! TO.N,/LPC4370-JTAG-PWR-MISC/RESET*
X148894800Y-80959960D03*
X156773880Y-69209920D03*
G04 #@! TO.N,Net-(R19-Pad1)*
X153517600Y-76657200D03*
X151295100Y-77762100D03*
G04 #@! TO.N,/LPC4370-GPIO/I2C_SDA*
X148094700Y-78562200D03*
X143954500Y-78944620D03*
G04 #@! TO.N,Net-(C28-Pad1)*
X151434800Y-86791800D03*
X152717500Y-86791800D03*
G04 #@! TO.N,Net-(C27-Pad1)*
X153746200Y-86791800D03*
X155054300Y-86791800D03*
G04 #@! TO.N,/LPC4370-GPIO/SPIFI_CS*
X147294600Y-78562200D03*
X141401800Y-78790800D03*
G04 #@! TO.N,/LPC4370-GPIO/SPIFI_MISO*
X147307300Y-80949800D03*
X141007341Y-79852520D03*
G04 #@! TO.N,/LPC4370-GPIO/SPIFI_SIO2*
X147294600Y-81749900D03*
X139821920Y-78623160D03*
G04 #@! TO.N,/LPC4370-GPIO/SPIFI_MOSI*
X147294600Y-79362300D03*
X132806440Y-77312520D03*
G04 #@! TO.N,/LPC4370-GPIO/SPIFI_SCK*
X147320000Y-82537300D03*
X132598160Y-78623160D03*
G04 #@! TO.N,/LPC4370-GPIO/SPIFI_SIO3*
X146494500Y-81762600D03*
X133070600Y-79771240D03*
G04 #@! TO.N,/Amplifier/S3_CS*
X144894300Y-74561700D03*
X124841000Y-107061000D03*
G04 #@! TO.N,/Amplifier/S3_DIO*
X124841000Y-107696000D03*
X134493000Y-85598000D03*
G04 #@! TO.N,/Amplifier/S3_SCLK*
X150495000Y-76161900D03*
X124841000Y-108331000D03*
G04 #@! TO.N,/LPC4370-GPIO/SSP1_MISO*
X152869900Y-75399900D03*
X139065000Y-86123003D03*
G04 #@! TO.N,/LPC4370-JTAG-PWR-MISC/TCK*
X152069800Y-76187300D03*
X160591500Y-69151500D03*
G04 #@! TO.N,/LPC4370-GPIO/SSP1_MOSI*
X152105360Y-75361800D03*
X139065000Y-85598000D03*
G04 #@! TO.N,/LPC4370-JTAG-PWR-MISC/TDI*
X151244300Y-77012800D03*
X158048960Y-69148960D03*
G04 #@! TO.N,/LPC4370-JTAG-PWR-MISC/TDO*
X151295100Y-76161900D03*
X159324040Y-69164200D03*
G04 #@! TO.N,/LPC4370-JTAG-PWR-MISC/TMS*
X150482300Y-80949800D03*
X157901640Y-71424800D03*
G04 #@! TO.N,/LPC4370-GPIO/GPIO_0*
X146761200Y-73342500D03*
X134747000Y-64922400D03*
G04 #@! TO.N,/LPC4370-GPIO/GPIO_2*
X148107400Y-77762100D03*
X132207000Y-64935100D03*
G04 #@! TO.N,/LPC4370-GPIO/GPIO_4*
X146532600Y-77774800D03*
X132219700Y-70650100D03*
G04 #@! TO.N,/LPC4370-GPIO/GPIO_3*
X145694400Y-77762100D03*
X130937000Y-64922400D03*
G04 #@! TO.N,/LPC4370-GPIO/GPIO_1*
X145694400Y-76161900D03*
X133477000Y-64947800D03*
G04 #@! TO.N,Net-(D3-Pad3)*
X188600000Y-78350000D03*
G04 #@! TD*
D18*
G04 #@! TO.N,+3V3*
X148443898Y-74041000D02*
X145630900Y-74041000D01*
X148447099Y-74044201D02*
X148443898Y-74041000D01*
D19*
X152463500Y-79794100D02*
X152095200Y-80162400D01*
X152679400Y-79578200D02*
X152463500Y-79794100D01*
X152679400Y-78397100D02*
X152679400Y-79578200D01*
X151295100Y-81762600D02*
X151012258Y-81762600D01*
X151012258Y-81762600D02*
X150685500Y-81762600D01*
X150685500Y-81762600D02*
X150317200Y-82130900D01*
X150119901Y-82822581D02*
X149795582Y-83146900D01*
X150317200Y-82130900D02*
X150119901Y-82328199D01*
X150119901Y-82328199D02*
X150119901Y-82822581D01*
X149795582Y-83146900D02*
X149199600Y-83146900D01*
X149199600Y-83146900D02*
X148818600Y-83527900D01*
D18*
X149707600Y-74193400D02*
X149834600Y-74066400D01*
X149707600Y-78562200D02*
X149707600Y-74193400D01*
D19*
X154762200Y-76314300D02*
X154762200Y-76269700D01*
X154762200Y-76269700D02*
X152679400Y-78397100D01*
D20*
X126120102Y-81089500D02*
X135073602Y-72136000D01*
X125780800Y-81089500D02*
X126120102Y-81089500D01*
X135073602Y-72136000D02*
X140462000Y-72136000D01*
D21*
X149352000Y-84455000D02*
X153924000Y-84455000D01*
X153924000Y-84455000D02*
X154813000Y-84455000D01*
X154813000Y-84455000D02*
X155299102Y-84455000D01*
X160020000Y-79734102D02*
X160020000Y-72898000D01*
D18*
X156883100Y-80073500D02*
X157165942Y-80073500D01*
X158118442Y-81026000D02*
X158728102Y-81026000D01*
X157165942Y-80073500D02*
X158118442Y-81026000D01*
D21*
X155299102Y-84455000D02*
X158728102Y-81026000D01*
X158728102Y-81026000D02*
X160020000Y-79734102D01*
D18*
X148551900Y-84455000D02*
X146177000Y-86829900D01*
X149352000Y-84455000D02*
X148551900Y-84455000D01*
D22*
X151866600Y-70637400D02*
X151866600Y-71475600D01*
D18*
X145630900Y-75107800D02*
X144792700Y-75946000D01*
X145630900Y-74041000D02*
X145630900Y-75107800D01*
X144792700Y-75946000D02*
X144792700Y-77673200D01*
D19*
G04 #@! TO.N,Net-(R18-Pad1)*
X151269700Y-78870442D02*
X151269700Y-78587600D01*
X151269700Y-80766002D02*
X151269700Y-78870442D01*
X152218699Y-81715001D02*
X151269700Y-80766002D01*
X152962001Y-81715001D02*
X152218699Y-81715001D01*
X153162000Y-81915000D02*
X152962001Y-81715001D01*
D23*
G04 #@! TO.N,Net-(R19-Pad1)*
X151803100Y-77254100D02*
X152920700Y-77254100D01*
X152920700Y-77254100D02*
X153517600Y-76657200D01*
X151803100Y-77254100D02*
X151295100Y-77762100D01*
G04 #@! TD*
D24*
G04 #@! TO.N,/LPC4370-USB/USB_VBUS*
G36*
X185188994Y-68395338D02*
X185189995Y-68396816D01*
X189250000Y-74302278D01*
X189250000Y-74723940D01*
X189290615Y-74928126D01*
X189445330Y-75159671D01*
X189676875Y-75314385D01*
X189900000Y-75358767D01*
X189900000Y-75444239D01*
X190006568Y-75701518D01*
X190203482Y-75898432D01*
X190404640Y-75981754D01*
X190625808Y-76303454D01*
X190600000Y-76365761D01*
X190600000Y-76644239D01*
X190706568Y-76901518D01*
X190710050Y-76905000D01*
X190706568Y-76908482D01*
X190666589Y-77005000D01*
X190460761Y-77005000D01*
X190203482Y-77111568D01*
X190006568Y-77308482D01*
X189900000Y-77565761D01*
X189900000Y-77844239D01*
X190006568Y-78101518D01*
X190010050Y-78105000D01*
X190006568Y-78108482D01*
X189900000Y-78365761D01*
X189900000Y-78644239D01*
X190006568Y-78901518D01*
X190203482Y-79098432D01*
X190460761Y-79205000D01*
X190666589Y-79205000D01*
X190706568Y-79301518D01*
X190710050Y-79305000D01*
X190706568Y-79308482D01*
X190600000Y-79565761D01*
X190600000Y-79844239D01*
X190706568Y-80101518D01*
X190710050Y-80105000D01*
X190706568Y-80108482D01*
X190666589Y-80205000D01*
X190460761Y-80205000D01*
X190313493Y-80266000D01*
X190119000Y-80266000D01*
X190071165Y-80275515D01*
X190016596Y-80319317D01*
X189127596Y-81589317D01*
X189107959Y-81633962D01*
X189105000Y-81661000D01*
X189105000Y-82296000D01*
X189114515Y-82343835D01*
X189155000Y-82396000D01*
X190629000Y-83501500D01*
X190629000Y-97155000D01*
X190638515Y-97202835D01*
X190664376Y-97242135D01*
X195109376Y-101814135D01*
X195149543Y-101841800D01*
X195199000Y-101852000D01*
X198884000Y-101852000D01*
X198884000Y-106428000D01*
X181735000Y-106428000D01*
X181735000Y-102588843D01*
X185534000Y-102588843D01*
X185534000Y-102897157D01*
X185651987Y-103182002D01*
X185869998Y-103400013D01*
X186123458Y-103505000D01*
X185869998Y-103609987D01*
X185651987Y-103827998D01*
X185534000Y-104112843D01*
X185534000Y-104421157D01*
X185651987Y-104706002D01*
X185869998Y-104924013D01*
X186154843Y-105042000D01*
X186463157Y-105042000D01*
X186748002Y-104924013D01*
X186966013Y-104706002D01*
X187071000Y-104452542D01*
X187175987Y-104706002D01*
X187393998Y-104924013D01*
X187678843Y-105042000D01*
X187987157Y-105042000D01*
X188272002Y-104924013D01*
X188490013Y-104706002D01*
X188608000Y-104421157D01*
X188608000Y-104112843D01*
X188490013Y-103827998D01*
X188393858Y-103731843D01*
X191122000Y-103731843D01*
X191122000Y-104040157D01*
X191239987Y-104325002D01*
X191308985Y-104394000D01*
X191239987Y-104462998D01*
X191122000Y-104747843D01*
X191122000Y-105056157D01*
X191239987Y-105341002D01*
X191457998Y-105559013D01*
X191742843Y-105677000D01*
X192051157Y-105677000D01*
X192336002Y-105559013D01*
X192554013Y-105341002D01*
X192672000Y-105056157D01*
X192672000Y-104747843D01*
X192554013Y-104462998D01*
X192485015Y-104394000D01*
X192554013Y-104325002D01*
X192672000Y-104040157D01*
X192672000Y-103731843D01*
X192554013Y-103446998D01*
X192336002Y-103228987D01*
X192051157Y-103111000D01*
X191742843Y-103111000D01*
X191457998Y-103228987D01*
X191239987Y-103446998D01*
X191122000Y-103731843D01*
X188393858Y-103731843D01*
X188272002Y-103609987D01*
X188018542Y-103505000D01*
X188272002Y-103400013D01*
X188490013Y-103182002D01*
X188608000Y-102897157D01*
X188608000Y-102882625D01*
X189290000Y-102882625D01*
X189290000Y-103111375D01*
X189377538Y-103322711D01*
X189539289Y-103484462D01*
X189750625Y-103572000D01*
X189979375Y-103572000D01*
X190190711Y-103484462D01*
X190352462Y-103322711D01*
X190440000Y-103111375D01*
X190440000Y-102882625D01*
X190352462Y-102671289D01*
X190190711Y-102509538D01*
X189979375Y-102422000D01*
X189750625Y-102422000D01*
X189539289Y-102509538D01*
X189377538Y-102671289D01*
X189290000Y-102882625D01*
X188608000Y-102882625D01*
X188608000Y-102588843D01*
X188490013Y-102303998D01*
X188272002Y-102085987D01*
X187987157Y-101968000D01*
X187678843Y-101968000D01*
X187393998Y-102085987D01*
X187175987Y-102303998D01*
X187071000Y-102557458D01*
X186966013Y-102303998D01*
X186748002Y-102085987D01*
X186463157Y-101968000D01*
X186154843Y-101968000D01*
X185869998Y-102085987D01*
X185651987Y-102303998D01*
X185534000Y-102588843D01*
X181735000Y-102588843D01*
X181735000Y-100596625D01*
X187512000Y-100596625D01*
X187512000Y-100825375D01*
X187599538Y-101036711D01*
X187761289Y-101198462D01*
X187972625Y-101286000D01*
X188201375Y-101286000D01*
X188412711Y-101198462D01*
X188574462Y-101036711D01*
X188662000Y-100825375D01*
X188662000Y-100596625D01*
X188574462Y-100385289D01*
X188412711Y-100223538D01*
X188201375Y-100136000D01*
X187972625Y-100136000D01*
X187761289Y-100223538D01*
X187599538Y-100385289D01*
X187512000Y-100596625D01*
X181735000Y-100596625D01*
X181735000Y-92553000D01*
X182109961Y-92553000D01*
X182799102Y-92267548D01*
X183326548Y-91740102D01*
X183612000Y-91050961D01*
X183612000Y-90305039D01*
X183326548Y-89615898D01*
X182799102Y-89088452D01*
X182109961Y-88803000D01*
X181735000Y-88803000D01*
X181735000Y-86373000D01*
X181764157Y-86373000D01*
X182049002Y-86255013D01*
X182267013Y-86037002D01*
X182385000Y-85752157D01*
X182385000Y-85443843D01*
X182267013Y-85158998D01*
X182049002Y-84940987D01*
X181764157Y-84823000D01*
X181735000Y-84823000D01*
X181735000Y-78235625D01*
X188025000Y-78235625D01*
X188025000Y-78464375D01*
X188112538Y-78675711D01*
X188274289Y-78837462D01*
X188485625Y-78925000D01*
X188714375Y-78925000D01*
X188925711Y-78837462D01*
X189087462Y-78675711D01*
X189175000Y-78464375D01*
X189175000Y-78235625D01*
X189087462Y-78024289D01*
X188925711Y-77862538D01*
X188714375Y-77775000D01*
X188485625Y-77775000D01*
X188274289Y-77862538D01*
X188112538Y-78024289D01*
X188025000Y-78235625D01*
X181735000Y-78235625D01*
X181735000Y-75410843D01*
X184518000Y-75410843D01*
X184518000Y-75719157D01*
X184635987Y-76004002D01*
X184853998Y-76222013D01*
X185138843Y-76340000D01*
X185447157Y-76340000D01*
X185732002Y-76222013D01*
X185950013Y-76004002D01*
X186068000Y-75719157D01*
X186068000Y-75410843D01*
X185950013Y-75125998D01*
X185732002Y-74907987D01*
X185447157Y-74790000D01*
X185138843Y-74790000D01*
X184853998Y-74907987D01*
X184635987Y-75125998D01*
X184518000Y-75410843D01*
X181735000Y-75410843D01*
X181735000Y-70658867D01*
X181795002Y-70634013D01*
X182013013Y-70416002D01*
X182131000Y-70131157D01*
X182131000Y-69822843D01*
X182013013Y-69537998D01*
X181795002Y-69319987D01*
X181735000Y-69295133D01*
X181735000Y-66165000D01*
X183702102Y-66165000D01*
X185188994Y-68395338D01*
X185188994Y-68395338D01*
G37*
X185188994Y-68395338D02*
X185189995Y-68396816D01*
X189250000Y-74302278D01*
X189250000Y-74723940D01*
X189290615Y-74928126D01*
X189445330Y-75159671D01*
X189676875Y-75314385D01*
X189900000Y-75358767D01*
X189900000Y-75444239D01*
X190006568Y-75701518D01*
X190203482Y-75898432D01*
X190404640Y-75981754D01*
X190625808Y-76303454D01*
X190600000Y-76365761D01*
X190600000Y-76644239D01*
X190706568Y-76901518D01*
X190710050Y-76905000D01*
X190706568Y-76908482D01*
X190666589Y-77005000D01*
X190460761Y-77005000D01*
X190203482Y-77111568D01*
X190006568Y-77308482D01*
X189900000Y-77565761D01*
X189900000Y-77844239D01*
X190006568Y-78101518D01*
X190010050Y-78105000D01*
X190006568Y-78108482D01*
X189900000Y-78365761D01*
X189900000Y-78644239D01*
X190006568Y-78901518D01*
X190203482Y-79098432D01*
X190460761Y-79205000D01*
X190666589Y-79205000D01*
X190706568Y-79301518D01*
X190710050Y-79305000D01*
X190706568Y-79308482D01*
X190600000Y-79565761D01*
X190600000Y-79844239D01*
X190706568Y-80101518D01*
X190710050Y-80105000D01*
X190706568Y-80108482D01*
X190666589Y-80205000D01*
X190460761Y-80205000D01*
X190313493Y-80266000D01*
X190119000Y-80266000D01*
X190071165Y-80275515D01*
X190016596Y-80319317D01*
X189127596Y-81589317D01*
X189107959Y-81633962D01*
X189105000Y-81661000D01*
X189105000Y-82296000D01*
X189114515Y-82343835D01*
X189155000Y-82396000D01*
X190629000Y-83501500D01*
X190629000Y-97155000D01*
X190638515Y-97202835D01*
X190664376Y-97242135D01*
X195109376Y-101814135D01*
X195149543Y-101841800D01*
X195199000Y-101852000D01*
X198884000Y-101852000D01*
X198884000Y-106428000D01*
X181735000Y-106428000D01*
X181735000Y-102588843D01*
X185534000Y-102588843D01*
X185534000Y-102897157D01*
X185651987Y-103182002D01*
X185869998Y-103400013D01*
X186123458Y-103505000D01*
X185869998Y-103609987D01*
X185651987Y-103827998D01*
X185534000Y-104112843D01*
X185534000Y-104421157D01*
X185651987Y-104706002D01*
X185869998Y-104924013D01*
X186154843Y-105042000D01*
X186463157Y-105042000D01*
X186748002Y-104924013D01*
X186966013Y-104706002D01*
X187071000Y-104452542D01*
X187175987Y-104706002D01*
X187393998Y-104924013D01*
X187678843Y-105042000D01*
X187987157Y-105042000D01*
X188272002Y-104924013D01*
X188490013Y-104706002D01*
X188608000Y-104421157D01*
X188608000Y-104112843D01*
X188490013Y-103827998D01*
X188393858Y-103731843D01*
X191122000Y-103731843D01*
X191122000Y-104040157D01*
X191239987Y-104325002D01*
X191308985Y-104394000D01*
X191239987Y-104462998D01*
X191122000Y-104747843D01*
X191122000Y-105056157D01*
X191239987Y-105341002D01*
X191457998Y-105559013D01*
X191742843Y-105677000D01*
X192051157Y-105677000D01*
X192336002Y-105559013D01*
X192554013Y-105341002D01*
X192672000Y-105056157D01*
X192672000Y-104747843D01*
X192554013Y-104462998D01*
X192485015Y-104394000D01*
X192554013Y-104325002D01*
X192672000Y-104040157D01*
X192672000Y-103731843D01*
X192554013Y-103446998D01*
X192336002Y-103228987D01*
X192051157Y-103111000D01*
X191742843Y-103111000D01*
X191457998Y-103228987D01*
X191239987Y-103446998D01*
X191122000Y-103731843D01*
X188393858Y-103731843D01*
X188272002Y-103609987D01*
X188018542Y-103505000D01*
X188272002Y-103400013D01*
X188490013Y-103182002D01*
X188608000Y-102897157D01*
X188608000Y-102882625D01*
X189290000Y-102882625D01*
X189290000Y-103111375D01*
X189377538Y-103322711D01*
X189539289Y-103484462D01*
X189750625Y-103572000D01*
X189979375Y-103572000D01*
X190190711Y-103484462D01*
X190352462Y-103322711D01*
X190440000Y-103111375D01*
X190440000Y-102882625D01*
X190352462Y-102671289D01*
X190190711Y-102509538D01*
X189979375Y-102422000D01*
X189750625Y-102422000D01*
X189539289Y-102509538D01*
X189377538Y-102671289D01*
X189290000Y-102882625D01*
X188608000Y-102882625D01*
X188608000Y-102588843D01*
X188490013Y-102303998D01*
X188272002Y-102085987D01*
X187987157Y-101968000D01*
X187678843Y-101968000D01*
X187393998Y-102085987D01*
X187175987Y-102303998D01*
X187071000Y-102557458D01*
X186966013Y-102303998D01*
X186748002Y-102085987D01*
X186463157Y-101968000D01*
X186154843Y-101968000D01*
X185869998Y-102085987D01*
X185651987Y-102303998D01*
X185534000Y-102588843D01*
X181735000Y-102588843D01*
X181735000Y-100596625D01*
X187512000Y-100596625D01*
X187512000Y-100825375D01*
X187599538Y-101036711D01*
X187761289Y-101198462D01*
X187972625Y-101286000D01*
X188201375Y-101286000D01*
X188412711Y-101198462D01*
X188574462Y-101036711D01*
X188662000Y-100825375D01*
X188662000Y-100596625D01*
X188574462Y-100385289D01*
X188412711Y-100223538D01*
X188201375Y-100136000D01*
X187972625Y-100136000D01*
X187761289Y-100223538D01*
X187599538Y-100385289D01*
X187512000Y-100596625D01*
X181735000Y-100596625D01*
X181735000Y-92553000D01*
X182109961Y-92553000D01*
X182799102Y-92267548D01*
X183326548Y-91740102D01*
X183612000Y-91050961D01*
X183612000Y-90305039D01*
X183326548Y-89615898D01*
X182799102Y-89088452D01*
X182109961Y-88803000D01*
X181735000Y-88803000D01*
X181735000Y-86373000D01*
X181764157Y-86373000D01*
X182049002Y-86255013D01*
X182267013Y-86037002D01*
X182385000Y-85752157D01*
X182385000Y-85443843D01*
X182267013Y-85158998D01*
X182049002Y-84940987D01*
X181764157Y-84823000D01*
X181735000Y-84823000D01*
X181735000Y-78235625D01*
X188025000Y-78235625D01*
X188025000Y-78464375D01*
X188112538Y-78675711D01*
X188274289Y-78837462D01*
X188485625Y-78925000D01*
X188714375Y-78925000D01*
X188925711Y-78837462D01*
X189087462Y-78675711D01*
X189175000Y-78464375D01*
X189175000Y-78235625D01*
X189087462Y-78024289D01*
X188925711Y-77862538D01*
X188714375Y-77775000D01*
X188485625Y-77775000D01*
X188274289Y-77862538D01*
X188112538Y-78024289D01*
X188025000Y-78235625D01*
X181735000Y-78235625D01*
X181735000Y-75410843D01*
X184518000Y-75410843D01*
X184518000Y-75719157D01*
X184635987Y-76004002D01*
X184853998Y-76222013D01*
X185138843Y-76340000D01*
X185447157Y-76340000D01*
X185732002Y-76222013D01*
X185950013Y-76004002D01*
X186068000Y-75719157D01*
X186068000Y-75410843D01*
X185950013Y-75125998D01*
X185732002Y-74907987D01*
X185447157Y-74790000D01*
X185138843Y-74790000D01*
X184853998Y-74907987D01*
X184635987Y-75125998D01*
X184518000Y-75410843D01*
X181735000Y-75410843D01*
X181735000Y-70658867D01*
X181795002Y-70634013D01*
X182013013Y-70416002D01*
X182131000Y-70131157D01*
X182131000Y-69822843D01*
X182013013Y-69537998D01*
X181795002Y-69319987D01*
X181735000Y-69295133D01*
X181735000Y-66165000D01*
X183702102Y-66165000D01*
X185188994Y-68395338D01*
G04 #@! TO.N,+5V*
G36*
X127383000Y-102756453D02*
X127244643Y-102813763D01*
X127127000Y-102931406D01*
X127009357Y-102813763D01*
X126761266Y-102711000D01*
X126492734Y-102711000D01*
X126244643Y-102813763D01*
X126054763Y-103003643D01*
X125952000Y-103251734D01*
X125952000Y-103520266D01*
X126054763Y-103768357D01*
X126172406Y-103886000D01*
X126054763Y-104003643D01*
X125952000Y-104251734D01*
X125952000Y-104520266D01*
X126054763Y-104768357D01*
X126244643Y-104958237D01*
X126492734Y-105061000D01*
X126761266Y-105061000D01*
X127009357Y-104958237D01*
X127127000Y-104840594D01*
X127244643Y-104958237D01*
X127383000Y-105015547D01*
X127383000Y-107061000D01*
X127392515Y-107108835D01*
X127419612Y-107149388D01*
X127460165Y-107176485D01*
X127508000Y-107186000D01*
X140506985Y-107186000D01*
X140657998Y-107337013D01*
X140942843Y-107455000D01*
X141251157Y-107455000D01*
X141536002Y-107337013D01*
X141687015Y-107186000D01*
X144316985Y-107186000D01*
X144467998Y-107337013D01*
X144752843Y-107455000D01*
X145061157Y-107455000D01*
X145346002Y-107337013D01*
X145497015Y-107186000D01*
X162573350Y-107186000D01*
X162640898Y-107253548D01*
X163330039Y-107539000D01*
X164075961Y-107539000D01*
X164765102Y-107253548D01*
X164832650Y-107186000D01*
X167261000Y-107186000D01*
X167261000Y-109338663D01*
X167119375Y-109280000D01*
X166890625Y-109280000D01*
X166679289Y-109367538D01*
X166517538Y-109529289D01*
X166430000Y-109740625D01*
X166430000Y-109969375D01*
X166517538Y-110180711D01*
X166679289Y-110342462D01*
X166890625Y-110430000D01*
X167119375Y-110430000D01*
X167246000Y-110377550D01*
X167246000Y-110644157D01*
X167261000Y-110680370D01*
X167261000Y-111188630D01*
X167246000Y-111224843D01*
X167246000Y-111533157D01*
X167261000Y-111569370D01*
X167261000Y-112077630D01*
X167246000Y-112113843D01*
X167246000Y-112422157D01*
X167261000Y-112458370D01*
X167261000Y-115826000D01*
X164463000Y-115826000D01*
X164463000Y-115633370D01*
X164478000Y-115597157D01*
X164478000Y-115288843D01*
X164463000Y-115252630D01*
X164463000Y-114744370D01*
X164478000Y-114708157D01*
X164478000Y-114399843D01*
X164463000Y-114363630D01*
X164463000Y-112903000D01*
X164453485Y-112855165D01*
X164426388Y-112814612D01*
X164385835Y-112787515D01*
X164338000Y-112778000D01*
X160528000Y-112778000D01*
X160480165Y-112787515D01*
X160439612Y-112814612D01*
X160412515Y-112855165D01*
X160403000Y-112903000D01*
X160403000Y-114809681D01*
X154270877Y-114794078D01*
X154200013Y-114622998D01*
X153982002Y-114404987D01*
X153697157Y-114287000D01*
X153388843Y-114287000D01*
X153103998Y-114404987D01*
X152885987Y-114622998D01*
X152816656Y-114790377D01*
X150254000Y-114783857D01*
X150254000Y-114526843D01*
X150136013Y-114241998D01*
X149918002Y-114023987D01*
X149633157Y-113906000D01*
X149324843Y-113906000D01*
X149039998Y-114023987D01*
X148821987Y-114241998D01*
X148704000Y-114526843D01*
X148704000Y-114779913D01*
X121620652Y-114710998D01*
X122112548Y-114219102D01*
X122398000Y-113529961D01*
X122398000Y-112784039D01*
X122112548Y-112094898D01*
X121585102Y-111567452D01*
X120895961Y-111282000D01*
X120150039Y-111282000D01*
X119460898Y-111567452D01*
X118933452Y-112094898D01*
X118648000Y-112784039D01*
X118648000Y-113529961D01*
X118933452Y-114219102D01*
X119419748Y-114705398D01*
X110742000Y-114683317D01*
X110742000Y-109700843D01*
X128003000Y-109700843D01*
X128003000Y-110009157D01*
X128120987Y-110294002D01*
X128338998Y-110512013D01*
X128623843Y-110630000D01*
X128932157Y-110630000D01*
X129217002Y-110512013D01*
X129349500Y-110379515D01*
X129481998Y-110512013D01*
X129766843Y-110630000D01*
X130075157Y-110630000D01*
X130360002Y-110512013D01*
X130578013Y-110294002D01*
X130696000Y-110009157D01*
X130696000Y-109700843D01*
X130578013Y-109415998D01*
X130360002Y-109197987D01*
X130075157Y-109080000D01*
X129766843Y-109080000D01*
X129481998Y-109197987D01*
X129349500Y-109330485D01*
X129217002Y-109197987D01*
X128932157Y-109080000D01*
X128623843Y-109080000D01*
X128338998Y-109197987D01*
X128120987Y-109415998D01*
X128003000Y-109700843D01*
X110742000Y-109700843D01*
X110742000Y-106946625D01*
X124266000Y-106946625D01*
X124266000Y-107175375D01*
X124350137Y-107378500D01*
X124266000Y-107581625D01*
X124266000Y-107810375D01*
X124350137Y-108013500D01*
X124266000Y-108216625D01*
X124266000Y-108445375D01*
X124353538Y-108656711D01*
X124515289Y-108818462D01*
X124726625Y-108906000D01*
X124955375Y-108906000D01*
X125166711Y-108818462D01*
X125300330Y-108684843D01*
X133210000Y-108684843D01*
X133210000Y-108993157D01*
X133327987Y-109278002D01*
X133545998Y-109496013D01*
X133830843Y-109614000D01*
X134139157Y-109614000D01*
X134236104Y-109573843D01*
X148958000Y-109573843D01*
X148958000Y-109882157D01*
X149075987Y-110167002D01*
X149293998Y-110385013D01*
X149578843Y-110503000D01*
X149887157Y-110503000D01*
X150172002Y-110385013D01*
X150390013Y-110167002D01*
X150508000Y-109882157D01*
X150508000Y-109573843D01*
X150390013Y-109288998D01*
X150172002Y-109070987D01*
X149887157Y-108953000D01*
X149578843Y-108953000D01*
X149293998Y-109070987D01*
X149075987Y-109288998D01*
X148958000Y-109573843D01*
X134236104Y-109573843D01*
X134424002Y-109496013D01*
X134556500Y-109363515D01*
X134561998Y-109369013D01*
X134846843Y-109487000D01*
X135155157Y-109487000D01*
X135440002Y-109369013D01*
X135658013Y-109151002D01*
X135776000Y-108866157D01*
X135776000Y-108557843D01*
X135658013Y-108272998D01*
X135440002Y-108054987D01*
X135155157Y-107937000D01*
X134846843Y-107937000D01*
X134561998Y-108054987D01*
X134429500Y-108187485D01*
X134424002Y-108181987D01*
X134139157Y-108064000D01*
X133830843Y-108064000D01*
X133545998Y-108181987D01*
X133327987Y-108399998D01*
X133210000Y-108684843D01*
X125300330Y-108684843D01*
X125328462Y-108656711D01*
X125416000Y-108445375D01*
X125416000Y-108216625D01*
X125331863Y-108013500D01*
X125416000Y-107810375D01*
X125416000Y-107581625D01*
X125331863Y-107378500D01*
X125416000Y-107175375D01*
X125416000Y-106946625D01*
X125328462Y-106735289D01*
X125166711Y-106573538D01*
X124955375Y-106486000D01*
X124726625Y-106486000D01*
X124515289Y-106573538D01*
X124353538Y-106735289D01*
X124266000Y-106946625D01*
X110742000Y-106946625D01*
X110742000Y-106043000D01*
X123571000Y-106043000D01*
X123618835Y-106033485D01*
X123659388Y-106006388D01*
X123686485Y-105965835D01*
X123696000Y-105918000D01*
X123696000Y-104025625D01*
X124012000Y-104025625D01*
X124012000Y-104254375D01*
X124099538Y-104465711D01*
X124261289Y-104627462D01*
X124472625Y-104715000D01*
X124701375Y-104715000D01*
X124912711Y-104627462D01*
X125074462Y-104465711D01*
X125162000Y-104254375D01*
X125162000Y-104025625D01*
X125074462Y-103814289D01*
X124912711Y-103652538D01*
X124701375Y-103565000D01*
X124472625Y-103565000D01*
X124261289Y-103652538D01*
X124099538Y-103814289D01*
X124012000Y-104025625D01*
X123696000Y-104025625D01*
X123696000Y-103640337D01*
X123837625Y-103699000D01*
X124066375Y-103699000D01*
X124277711Y-103611462D01*
X124439462Y-103449711D01*
X124527000Y-103238375D01*
X124527000Y-103009625D01*
X124439462Y-102798289D01*
X124277711Y-102636538D01*
X124066375Y-102549000D01*
X123837625Y-102549000D01*
X123696000Y-102607663D01*
X123696000Y-101572843D01*
X124812000Y-101572843D01*
X124812000Y-101881157D01*
X124929987Y-102166002D01*
X125147998Y-102384013D01*
X125432843Y-102502000D01*
X125741157Y-102502000D01*
X126026002Y-102384013D01*
X126244013Y-102166002D01*
X126362000Y-101881157D01*
X126362000Y-101572843D01*
X126244013Y-101287998D01*
X126026002Y-101069987D01*
X125741157Y-100952000D01*
X125432843Y-100952000D01*
X125147998Y-101069987D01*
X124929987Y-101287998D01*
X124812000Y-101572843D01*
X123696000Y-101572843D01*
X123696000Y-97153000D01*
X127383000Y-97153000D01*
X127383000Y-102756453D01*
X127383000Y-102756453D01*
G37*
X127383000Y-102756453D02*
X127244643Y-102813763D01*
X127127000Y-102931406D01*
X127009357Y-102813763D01*
X126761266Y-102711000D01*
X126492734Y-102711000D01*
X126244643Y-102813763D01*
X126054763Y-103003643D01*
X125952000Y-103251734D01*
X125952000Y-103520266D01*
X126054763Y-103768357D01*
X126172406Y-103886000D01*
X126054763Y-104003643D01*
X125952000Y-104251734D01*
X125952000Y-104520266D01*
X126054763Y-104768357D01*
X126244643Y-104958237D01*
X126492734Y-105061000D01*
X126761266Y-105061000D01*
X127009357Y-104958237D01*
X127127000Y-104840594D01*
X127244643Y-104958237D01*
X127383000Y-105015547D01*
X127383000Y-107061000D01*
X127392515Y-107108835D01*
X127419612Y-107149388D01*
X127460165Y-107176485D01*
X127508000Y-107186000D01*
X140506985Y-107186000D01*
X140657998Y-107337013D01*
X140942843Y-107455000D01*
X141251157Y-107455000D01*
X141536002Y-107337013D01*
X141687015Y-107186000D01*
X144316985Y-107186000D01*
X144467998Y-107337013D01*
X144752843Y-107455000D01*
X145061157Y-107455000D01*
X145346002Y-107337013D01*
X145497015Y-107186000D01*
X162573350Y-107186000D01*
X162640898Y-107253548D01*
X163330039Y-107539000D01*
X164075961Y-107539000D01*
X164765102Y-107253548D01*
X164832650Y-107186000D01*
X167261000Y-107186000D01*
X167261000Y-109338663D01*
X167119375Y-109280000D01*
X166890625Y-109280000D01*
X166679289Y-109367538D01*
X166517538Y-109529289D01*
X166430000Y-109740625D01*
X166430000Y-109969375D01*
X166517538Y-110180711D01*
X166679289Y-110342462D01*
X166890625Y-110430000D01*
X167119375Y-110430000D01*
X167246000Y-110377550D01*
X167246000Y-110644157D01*
X167261000Y-110680370D01*
X167261000Y-111188630D01*
X167246000Y-111224843D01*
X167246000Y-111533157D01*
X167261000Y-111569370D01*
X167261000Y-112077630D01*
X167246000Y-112113843D01*
X167246000Y-112422157D01*
X167261000Y-112458370D01*
X167261000Y-115826000D01*
X164463000Y-115826000D01*
X164463000Y-115633370D01*
X164478000Y-115597157D01*
X164478000Y-115288843D01*
X164463000Y-115252630D01*
X164463000Y-114744370D01*
X164478000Y-114708157D01*
X164478000Y-114399843D01*
X164463000Y-114363630D01*
X164463000Y-112903000D01*
X164453485Y-112855165D01*
X164426388Y-112814612D01*
X164385835Y-112787515D01*
X164338000Y-112778000D01*
X160528000Y-112778000D01*
X160480165Y-112787515D01*
X160439612Y-112814612D01*
X160412515Y-112855165D01*
X160403000Y-112903000D01*
X160403000Y-114809681D01*
X154270877Y-114794078D01*
X154200013Y-114622998D01*
X153982002Y-114404987D01*
X153697157Y-114287000D01*
X153388843Y-114287000D01*
X153103998Y-114404987D01*
X152885987Y-114622998D01*
X152816656Y-114790377D01*
X150254000Y-114783857D01*
X150254000Y-114526843D01*
X150136013Y-114241998D01*
X149918002Y-114023987D01*
X149633157Y-113906000D01*
X149324843Y-113906000D01*
X149039998Y-114023987D01*
X148821987Y-114241998D01*
X148704000Y-114526843D01*
X148704000Y-114779913D01*
X121620652Y-114710998D01*
X122112548Y-114219102D01*
X122398000Y-113529961D01*
X122398000Y-112784039D01*
X122112548Y-112094898D01*
X121585102Y-111567452D01*
X120895961Y-111282000D01*
X120150039Y-111282000D01*
X119460898Y-111567452D01*
X118933452Y-112094898D01*
X118648000Y-112784039D01*
X118648000Y-113529961D01*
X118933452Y-114219102D01*
X119419748Y-114705398D01*
X110742000Y-114683317D01*
X110742000Y-109700843D01*
X128003000Y-109700843D01*
X128003000Y-110009157D01*
X128120987Y-110294002D01*
X128338998Y-110512013D01*
X128623843Y-110630000D01*
X128932157Y-110630000D01*
X129217002Y-110512013D01*
X129349500Y-110379515D01*
X129481998Y-110512013D01*
X129766843Y-110630000D01*
X130075157Y-110630000D01*
X130360002Y-110512013D01*
X130578013Y-110294002D01*
X130696000Y-110009157D01*
X130696000Y-109700843D01*
X130578013Y-109415998D01*
X130360002Y-109197987D01*
X130075157Y-109080000D01*
X129766843Y-109080000D01*
X129481998Y-109197987D01*
X129349500Y-109330485D01*
X129217002Y-109197987D01*
X128932157Y-109080000D01*
X128623843Y-109080000D01*
X128338998Y-109197987D01*
X128120987Y-109415998D01*
X128003000Y-109700843D01*
X110742000Y-109700843D01*
X110742000Y-106946625D01*
X124266000Y-106946625D01*
X124266000Y-107175375D01*
X124350137Y-107378500D01*
X124266000Y-107581625D01*
X124266000Y-107810375D01*
X124350137Y-108013500D01*
X124266000Y-108216625D01*
X124266000Y-108445375D01*
X124353538Y-108656711D01*
X124515289Y-108818462D01*
X124726625Y-108906000D01*
X124955375Y-108906000D01*
X125166711Y-108818462D01*
X125300330Y-108684843D01*
X133210000Y-108684843D01*
X133210000Y-108993157D01*
X133327987Y-109278002D01*
X133545998Y-109496013D01*
X133830843Y-109614000D01*
X134139157Y-109614000D01*
X134236104Y-109573843D01*
X148958000Y-109573843D01*
X148958000Y-109882157D01*
X149075987Y-110167002D01*
X149293998Y-110385013D01*
X149578843Y-110503000D01*
X149887157Y-110503000D01*
X150172002Y-110385013D01*
X150390013Y-110167002D01*
X150508000Y-109882157D01*
X150508000Y-109573843D01*
X150390013Y-109288998D01*
X150172002Y-109070987D01*
X149887157Y-108953000D01*
X149578843Y-108953000D01*
X149293998Y-109070987D01*
X149075987Y-109288998D01*
X148958000Y-109573843D01*
X134236104Y-109573843D01*
X134424002Y-109496013D01*
X134556500Y-109363515D01*
X134561998Y-109369013D01*
X134846843Y-109487000D01*
X135155157Y-109487000D01*
X135440002Y-109369013D01*
X135658013Y-109151002D01*
X135776000Y-108866157D01*
X135776000Y-108557843D01*
X135658013Y-108272998D01*
X135440002Y-108054987D01*
X135155157Y-107937000D01*
X134846843Y-107937000D01*
X134561998Y-108054987D01*
X134429500Y-108187485D01*
X134424002Y-108181987D01*
X134139157Y-108064000D01*
X133830843Y-108064000D01*
X133545998Y-108181987D01*
X133327987Y-108399998D01*
X133210000Y-108684843D01*
X125300330Y-108684843D01*
X125328462Y-108656711D01*
X125416000Y-108445375D01*
X125416000Y-108216625D01*
X125331863Y-108013500D01*
X125416000Y-107810375D01*
X125416000Y-107581625D01*
X125331863Y-107378500D01*
X125416000Y-107175375D01*
X125416000Y-106946625D01*
X125328462Y-106735289D01*
X125166711Y-106573538D01*
X124955375Y-106486000D01*
X124726625Y-106486000D01*
X124515289Y-106573538D01*
X124353538Y-106735289D01*
X124266000Y-106946625D01*
X110742000Y-106946625D01*
X110742000Y-106043000D01*
X123571000Y-106043000D01*
X123618835Y-106033485D01*
X123659388Y-106006388D01*
X123686485Y-105965835D01*
X123696000Y-105918000D01*
X123696000Y-104025625D01*
X124012000Y-104025625D01*
X124012000Y-104254375D01*
X124099538Y-104465711D01*
X124261289Y-104627462D01*
X124472625Y-104715000D01*
X124701375Y-104715000D01*
X124912711Y-104627462D01*
X125074462Y-104465711D01*
X125162000Y-104254375D01*
X125162000Y-104025625D01*
X125074462Y-103814289D01*
X124912711Y-103652538D01*
X124701375Y-103565000D01*
X124472625Y-103565000D01*
X124261289Y-103652538D01*
X124099538Y-103814289D01*
X124012000Y-104025625D01*
X123696000Y-104025625D01*
X123696000Y-103640337D01*
X123837625Y-103699000D01*
X124066375Y-103699000D01*
X124277711Y-103611462D01*
X124439462Y-103449711D01*
X124527000Y-103238375D01*
X124527000Y-103009625D01*
X124439462Y-102798289D01*
X124277711Y-102636538D01*
X124066375Y-102549000D01*
X123837625Y-102549000D01*
X123696000Y-102607663D01*
X123696000Y-101572843D01*
X124812000Y-101572843D01*
X124812000Y-101881157D01*
X124929987Y-102166002D01*
X125147998Y-102384013D01*
X125432843Y-102502000D01*
X125741157Y-102502000D01*
X126026002Y-102384013D01*
X126244013Y-102166002D01*
X126362000Y-101881157D01*
X126362000Y-101572843D01*
X126244013Y-101287998D01*
X126026002Y-101069987D01*
X125741157Y-100952000D01*
X125432843Y-100952000D01*
X125147998Y-101069987D01*
X124929987Y-101287998D01*
X124812000Y-101572843D01*
X123696000Y-101572843D01*
X123696000Y-97153000D01*
X127383000Y-97153000D01*
X127383000Y-102756453D01*
G04 #@! TO.N,-5V*
G36*
X163959000Y-97155000D02*
X163968515Y-97202835D01*
X163993123Y-97240828D01*
X166152123Y-99526828D01*
X166191886Y-99555072D01*
X166222450Y-99564299D01*
X167642000Y-99800891D01*
X167642000Y-106555000D01*
X165363421Y-106555000D01*
X165578000Y-106036961D01*
X165578000Y-105291039D01*
X165292548Y-104601898D01*
X164765102Y-104074452D01*
X164075961Y-103789000D01*
X163330039Y-103789000D01*
X162640898Y-104074452D01*
X162113452Y-104601898D01*
X161828000Y-105291039D01*
X161828000Y-106036961D01*
X162042579Y-106555000D01*
X145682000Y-106555000D01*
X145682000Y-106525843D01*
X145564013Y-106240998D01*
X145346002Y-106022987D01*
X145061157Y-105905000D01*
X144752843Y-105905000D01*
X144467998Y-106022987D01*
X144249987Y-106240998D01*
X144132000Y-106525843D01*
X144132000Y-106555000D01*
X141872000Y-106555000D01*
X141872000Y-106525843D01*
X141754013Y-106240998D01*
X141536002Y-106022987D01*
X141251157Y-105905000D01*
X140942843Y-105905000D01*
X140657998Y-106022987D01*
X140439987Y-106240998D01*
X140322000Y-106525843D01*
X140322000Y-106555000D01*
X129872015Y-106555000D01*
X130070013Y-106357002D01*
X130188000Y-106072157D01*
X130188000Y-105763843D01*
X130070013Y-105478998D01*
X130068015Y-105477000D01*
X130162375Y-105477000D01*
X130373711Y-105389462D01*
X130535462Y-105227711D01*
X130623000Y-105016375D01*
X130623000Y-104787625D01*
X135569000Y-104787625D01*
X135569000Y-105016375D01*
X135656538Y-105227711D01*
X135818289Y-105389462D01*
X136029625Y-105477000D01*
X136258375Y-105477000D01*
X136469711Y-105389462D01*
X136631462Y-105227711D01*
X136719000Y-105016375D01*
X136719000Y-104874843D01*
X136766000Y-104874843D01*
X136766000Y-105183157D01*
X136883987Y-105468002D01*
X137101998Y-105686013D01*
X137386843Y-105804000D01*
X137695157Y-105804000D01*
X137980002Y-105686013D01*
X138129684Y-105536331D01*
X138153987Y-105595002D01*
X138371998Y-105813013D01*
X138656843Y-105931000D01*
X138965157Y-105931000D01*
X139250002Y-105813013D01*
X139468013Y-105595002D01*
X139586000Y-105310157D01*
X139586000Y-105001843D01*
X139468013Y-104716998D01*
X139250002Y-104498987D01*
X138965157Y-104381000D01*
X138656843Y-104381000D01*
X138371998Y-104498987D01*
X138222316Y-104648669D01*
X138198013Y-104589998D01*
X137980002Y-104371987D01*
X137695157Y-104254000D01*
X137386843Y-104254000D01*
X137101998Y-104371987D01*
X136883987Y-104589998D01*
X136766000Y-104874843D01*
X136719000Y-104874843D01*
X136719000Y-104787625D01*
X136631462Y-104576289D01*
X136469711Y-104414538D01*
X136258375Y-104327000D01*
X136029625Y-104327000D01*
X135818289Y-104414538D01*
X135656538Y-104576289D01*
X135569000Y-104787625D01*
X130623000Y-104787625D01*
X130535462Y-104576289D01*
X130373711Y-104414538D01*
X130162375Y-104327000D01*
X129933625Y-104327000D01*
X129722289Y-104414538D01*
X129560538Y-104576289D01*
X129473000Y-104787625D01*
X129473000Y-105016375D01*
X129525450Y-105143000D01*
X129258843Y-105143000D01*
X128973998Y-105260987D01*
X128755987Y-105478998D01*
X128638000Y-105763843D01*
X128638000Y-106072157D01*
X128755987Y-106357002D01*
X128953985Y-106555000D01*
X128395000Y-106555000D01*
X128395000Y-103771625D01*
X134045000Y-103771625D01*
X134045000Y-104000375D01*
X134132538Y-104211711D01*
X134294289Y-104373462D01*
X134505625Y-104461000D01*
X134734375Y-104461000D01*
X134945711Y-104373462D01*
X135107462Y-104211711D01*
X135195000Y-104000375D01*
X135195000Y-103771625D01*
X135107462Y-103560289D01*
X134945711Y-103398538D01*
X134734375Y-103311000D01*
X134505625Y-103311000D01*
X134294289Y-103398538D01*
X134132538Y-103560289D01*
X134045000Y-103771625D01*
X128395000Y-103771625D01*
X128395000Y-103009625D01*
X129219000Y-103009625D01*
X129219000Y-103238375D01*
X129306538Y-103449711D01*
X129468289Y-103611462D01*
X129679625Y-103699000D01*
X129908375Y-103699000D01*
X130119711Y-103611462D01*
X130281462Y-103449711D01*
X130369000Y-103238375D01*
X130369000Y-103009625D01*
X130281462Y-102798289D01*
X130119711Y-102636538D01*
X129908375Y-102549000D01*
X129679625Y-102549000D01*
X129468289Y-102636538D01*
X129306538Y-102798289D01*
X129219000Y-103009625D01*
X128395000Y-103009625D01*
X128395000Y-102235000D01*
X138051000Y-102235000D01*
X138051000Y-103378000D01*
X138060515Y-103425835D01*
X138087612Y-103466388D01*
X138128165Y-103493485D01*
X138176000Y-103503000D01*
X139065000Y-103503000D01*
X139112835Y-103493485D01*
X139153388Y-103466388D01*
X139776933Y-102842843D01*
X158483000Y-102842843D01*
X158483000Y-103151157D01*
X158600987Y-103436002D01*
X158818998Y-103654013D01*
X159103843Y-103772000D01*
X159412157Y-103772000D01*
X159697002Y-103654013D01*
X159915013Y-103436002D01*
X160033000Y-103151157D01*
X160033000Y-102842843D01*
X159915013Y-102557998D01*
X159697002Y-102339987D01*
X159412157Y-102222000D01*
X159103843Y-102222000D01*
X158818998Y-102339987D01*
X158600987Y-102557998D01*
X158483000Y-102842843D01*
X139776933Y-102842843D01*
X140513776Y-102106000D01*
X141605000Y-102106000D01*
X141652835Y-102096485D01*
X141693388Y-102069388D01*
X141720485Y-102028835D01*
X141730000Y-101981000D01*
X141730000Y-100711000D01*
X141720485Y-100663165D01*
X141693388Y-100622612D01*
X141652835Y-100595515D01*
X141605000Y-100586000D01*
X140081000Y-100586000D01*
X140046210Y-100590939D01*
X140002913Y-100613391D01*
X138097913Y-102137391D01*
X138060515Y-102187165D01*
X138051000Y-102235000D01*
X128395000Y-102235000D01*
X128395000Y-100154015D01*
X128592998Y-100352013D01*
X128877843Y-100470000D01*
X129186157Y-100470000D01*
X129471002Y-100352013D01*
X129520172Y-100302843D01*
X149720000Y-100302843D01*
X149720000Y-100611157D01*
X149837987Y-100896002D01*
X150055998Y-101114013D01*
X150340843Y-101232000D01*
X150649157Y-101232000D01*
X150934002Y-101114013D01*
X151152013Y-100896002D01*
X151270000Y-100611157D01*
X151270000Y-100302843D01*
X151217395Y-100175843D01*
X154571000Y-100175843D01*
X154571000Y-100484157D01*
X154688987Y-100769002D01*
X154906998Y-100987013D01*
X155191843Y-101105000D01*
X155500157Y-101105000D01*
X155785002Y-100987013D01*
X156003013Y-100769002D01*
X156121000Y-100484157D01*
X156121000Y-100302843D01*
X161023000Y-100302843D01*
X161023000Y-100611157D01*
X161140987Y-100896002D01*
X161146485Y-100901500D01*
X161140987Y-100906998D01*
X161023000Y-101191843D01*
X161023000Y-101500157D01*
X161140987Y-101785002D01*
X161358998Y-102003013D01*
X161643843Y-102121000D01*
X161952157Y-102121000D01*
X162237002Y-102003013D01*
X162306000Y-101934015D01*
X162374998Y-102003013D01*
X162659843Y-102121000D01*
X162968157Y-102121000D01*
X163253002Y-102003013D01*
X163322000Y-101934015D01*
X163390998Y-102003013D01*
X163675843Y-102121000D01*
X163984157Y-102121000D01*
X164269002Y-102003013D01*
X164487013Y-101785002D01*
X164605000Y-101500157D01*
X164605000Y-101191843D01*
X164487013Y-100906998D01*
X164481515Y-100901500D01*
X164487013Y-100896002D01*
X164605000Y-100611157D01*
X164605000Y-100302843D01*
X164487013Y-100017998D01*
X164269002Y-99799987D01*
X163984157Y-99682000D01*
X163675843Y-99682000D01*
X163390998Y-99799987D01*
X163322000Y-99868985D01*
X163253002Y-99799987D01*
X162968157Y-99682000D01*
X162659843Y-99682000D01*
X162374998Y-99799987D01*
X162306000Y-99868985D01*
X162237002Y-99799987D01*
X161952157Y-99682000D01*
X161643843Y-99682000D01*
X161358998Y-99799987D01*
X161140987Y-100017998D01*
X161023000Y-100302843D01*
X156121000Y-100302843D01*
X156121000Y-100175843D01*
X156003013Y-99890998D01*
X155785002Y-99672987D01*
X155500157Y-99555000D01*
X155191843Y-99555000D01*
X154906998Y-99672987D01*
X154688987Y-99890998D01*
X154571000Y-100175843D01*
X151217395Y-100175843D01*
X151152013Y-100017998D01*
X150934002Y-99799987D01*
X150649157Y-99682000D01*
X150340843Y-99682000D01*
X150055998Y-99799987D01*
X149837987Y-100017998D01*
X149720000Y-100302843D01*
X129520172Y-100302843D01*
X129689013Y-100134002D01*
X129807000Y-99849157D01*
X129807000Y-99540843D01*
X129689013Y-99255998D01*
X129471002Y-99037987D01*
X129186157Y-98920000D01*
X128877843Y-98920000D01*
X128592998Y-99037987D01*
X128395000Y-99235985D01*
X128395000Y-96647000D01*
X128385485Y-96599165D01*
X128358388Y-96558612D01*
X128317835Y-96531515D01*
X128270000Y-96522000D01*
X123190000Y-96522000D01*
X123142165Y-96531515D01*
X123101612Y-96558612D01*
X123074515Y-96599165D01*
X123065000Y-96647000D01*
X123065000Y-103172985D01*
X122867002Y-102974987D01*
X122582157Y-102857000D01*
X122273843Y-102857000D01*
X121988998Y-102974987D01*
X121770987Y-103192998D01*
X121653000Y-103477843D01*
X121653000Y-103786157D01*
X121770987Y-104071002D01*
X121988998Y-104289013D01*
X122273843Y-104407000D01*
X122582157Y-104407000D01*
X122867002Y-104289013D01*
X123065000Y-104091015D01*
X123065000Y-105412000D01*
X115869210Y-105412000D01*
X115964000Y-105183157D01*
X115964000Y-104874843D01*
X115846013Y-104589998D01*
X115628002Y-104371987D01*
X115343157Y-104254000D01*
X115034843Y-104254000D01*
X114749998Y-104371987D01*
X114531987Y-104589998D01*
X114414000Y-104874843D01*
X114414000Y-105183157D01*
X114508790Y-105412000D01*
X110742000Y-105412000D01*
X110742000Y-103477843D01*
X111112000Y-103477843D01*
X111112000Y-103786157D01*
X111229987Y-104071002D01*
X111447998Y-104289013D01*
X111732843Y-104407000D01*
X112041157Y-104407000D01*
X112326002Y-104289013D01*
X112544013Y-104071002D01*
X112662000Y-103786157D01*
X112662000Y-103477843D01*
X112544013Y-103192998D01*
X112326002Y-102974987D01*
X112041157Y-102857000D01*
X111732843Y-102857000D01*
X111447998Y-102974987D01*
X111229987Y-103192998D01*
X111112000Y-103477843D01*
X110742000Y-103477843D01*
X110742000Y-93470000D01*
X163959000Y-93470000D01*
X163959000Y-97155000D01*
X163959000Y-97155000D01*
G37*
X163959000Y-97155000D02*
X163968515Y-97202835D01*
X163993123Y-97240828D01*
X166152123Y-99526828D01*
X166191886Y-99555072D01*
X166222450Y-99564299D01*
X167642000Y-99800891D01*
X167642000Y-106555000D01*
X165363421Y-106555000D01*
X165578000Y-106036961D01*
X165578000Y-105291039D01*
X165292548Y-104601898D01*
X164765102Y-104074452D01*
X164075961Y-103789000D01*
X163330039Y-103789000D01*
X162640898Y-104074452D01*
X162113452Y-104601898D01*
X161828000Y-105291039D01*
X161828000Y-106036961D01*
X162042579Y-106555000D01*
X145682000Y-106555000D01*
X145682000Y-106525843D01*
X145564013Y-106240998D01*
X145346002Y-106022987D01*
X145061157Y-105905000D01*
X144752843Y-105905000D01*
X144467998Y-106022987D01*
X144249987Y-106240998D01*
X144132000Y-106525843D01*
X144132000Y-106555000D01*
X141872000Y-106555000D01*
X141872000Y-106525843D01*
X141754013Y-106240998D01*
X141536002Y-106022987D01*
X141251157Y-105905000D01*
X140942843Y-105905000D01*
X140657998Y-106022987D01*
X140439987Y-106240998D01*
X140322000Y-106525843D01*
X140322000Y-106555000D01*
X129872015Y-106555000D01*
X130070013Y-106357002D01*
X130188000Y-106072157D01*
X130188000Y-105763843D01*
X130070013Y-105478998D01*
X130068015Y-105477000D01*
X130162375Y-105477000D01*
X130373711Y-105389462D01*
X130535462Y-105227711D01*
X130623000Y-105016375D01*
X130623000Y-104787625D01*
X135569000Y-104787625D01*
X135569000Y-105016375D01*
X135656538Y-105227711D01*
X135818289Y-105389462D01*
X136029625Y-105477000D01*
X136258375Y-105477000D01*
X136469711Y-105389462D01*
X136631462Y-105227711D01*
X136719000Y-105016375D01*
X136719000Y-104874843D01*
X136766000Y-104874843D01*
X136766000Y-105183157D01*
X136883987Y-105468002D01*
X137101998Y-105686013D01*
X137386843Y-105804000D01*
X137695157Y-105804000D01*
X137980002Y-105686013D01*
X138129684Y-105536331D01*
X138153987Y-105595002D01*
X138371998Y-105813013D01*
X138656843Y-105931000D01*
X138965157Y-105931000D01*
X139250002Y-105813013D01*
X139468013Y-105595002D01*
X139586000Y-105310157D01*
X139586000Y-105001843D01*
X139468013Y-104716998D01*
X139250002Y-104498987D01*
X138965157Y-104381000D01*
X138656843Y-104381000D01*
X138371998Y-104498987D01*
X138222316Y-104648669D01*
X138198013Y-104589998D01*
X137980002Y-104371987D01*
X137695157Y-104254000D01*
X137386843Y-104254000D01*
X137101998Y-104371987D01*
X136883987Y-104589998D01*
X136766000Y-104874843D01*
X136719000Y-104874843D01*
X136719000Y-104787625D01*
X136631462Y-104576289D01*
X136469711Y-104414538D01*
X136258375Y-104327000D01*
X136029625Y-104327000D01*
X135818289Y-104414538D01*
X135656538Y-104576289D01*
X135569000Y-104787625D01*
X130623000Y-104787625D01*
X130535462Y-104576289D01*
X130373711Y-104414538D01*
X130162375Y-104327000D01*
X129933625Y-104327000D01*
X129722289Y-104414538D01*
X129560538Y-104576289D01*
X129473000Y-104787625D01*
X129473000Y-105016375D01*
X129525450Y-105143000D01*
X129258843Y-105143000D01*
X128973998Y-105260987D01*
X128755987Y-105478998D01*
X128638000Y-105763843D01*
X128638000Y-106072157D01*
X128755987Y-106357002D01*
X128953985Y-106555000D01*
X128395000Y-106555000D01*
X128395000Y-103771625D01*
X134045000Y-103771625D01*
X134045000Y-104000375D01*
X134132538Y-104211711D01*
X134294289Y-104373462D01*
X134505625Y-104461000D01*
X134734375Y-104461000D01*
X134945711Y-104373462D01*
X135107462Y-104211711D01*
X135195000Y-104000375D01*
X135195000Y-103771625D01*
X135107462Y-103560289D01*
X134945711Y-103398538D01*
X134734375Y-103311000D01*
X134505625Y-103311000D01*
X134294289Y-103398538D01*
X134132538Y-103560289D01*
X134045000Y-103771625D01*
X128395000Y-103771625D01*
X128395000Y-103009625D01*
X129219000Y-103009625D01*
X129219000Y-103238375D01*
X129306538Y-103449711D01*
X129468289Y-103611462D01*
X129679625Y-103699000D01*
X129908375Y-103699000D01*
X130119711Y-103611462D01*
X130281462Y-103449711D01*
X130369000Y-103238375D01*
X130369000Y-103009625D01*
X130281462Y-102798289D01*
X130119711Y-102636538D01*
X129908375Y-102549000D01*
X129679625Y-102549000D01*
X129468289Y-102636538D01*
X129306538Y-102798289D01*
X129219000Y-103009625D01*
X128395000Y-103009625D01*
X128395000Y-102235000D01*
X138051000Y-102235000D01*
X138051000Y-103378000D01*
X138060515Y-103425835D01*
X138087612Y-103466388D01*
X138128165Y-103493485D01*
X138176000Y-103503000D01*
X139065000Y-103503000D01*
X139112835Y-103493485D01*
X139153388Y-103466388D01*
X139776933Y-102842843D01*
X158483000Y-102842843D01*
X158483000Y-103151157D01*
X158600987Y-103436002D01*
X158818998Y-103654013D01*
X159103843Y-103772000D01*
X159412157Y-103772000D01*
X159697002Y-103654013D01*
X159915013Y-103436002D01*
X160033000Y-103151157D01*
X160033000Y-102842843D01*
X159915013Y-102557998D01*
X159697002Y-102339987D01*
X159412157Y-102222000D01*
X159103843Y-102222000D01*
X158818998Y-102339987D01*
X158600987Y-102557998D01*
X158483000Y-102842843D01*
X139776933Y-102842843D01*
X140513776Y-102106000D01*
X141605000Y-102106000D01*
X141652835Y-102096485D01*
X141693388Y-102069388D01*
X141720485Y-102028835D01*
X141730000Y-101981000D01*
X141730000Y-100711000D01*
X141720485Y-100663165D01*
X141693388Y-100622612D01*
X141652835Y-100595515D01*
X141605000Y-100586000D01*
X140081000Y-100586000D01*
X140046210Y-100590939D01*
X140002913Y-100613391D01*
X138097913Y-102137391D01*
X138060515Y-102187165D01*
X138051000Y-102235000D01*
X128395000Y-102235000D01*
X128395000Y-100154015D01*
X128592998Y-100352013D01*
X128877843Y-100470000D01*
X129186157Y-100470000D01*
X129471002Y-100352013D01*
X129520172Y-100302843D01*
X149720000Y-100302843D01*
X149720000Y-100611157D01*
X149837987Y-100896002D01*
X150055998Y-101114013D01*
X150340843Y-101232000D01*
X150649157Y-101232000D01*
X150934002Y-101114013D01*
X151152013Y-100896002D01*
X151270000Y-100611157D01*
X151270000Y-100302843D01*
X151217395Y-100175843D01*
X154571000Y-100175843D01*
X154571000Y-100484157D01*
X154688987Y-100769002D01*
X154906998Y-100987013D01*
X155191843Y-101105000D01*
X155500157Y-101105000D01*
X155785002Y-100987013D01*
X156003013Y-100769002D01*
X156121000Y-100484157D01*
X156121000Y-100302843D01*
X161023000Y-100302843D01*
X161023000Y-100611157D01*
X161140987Y-100896002D01*
X161146485Y-100901500D01*
X161140987Y-100906998D01*
X161023000Y-101191843D01*
X161023000Y-101500157D01*
X161140987Y-101785002D01*
X161358998Y-102003013D01*
X161643843Y-102121000D01*
X161952157Y-102121000D01*
X162237002Y-102003013D01*
X162306000Y-101934015D01*
X162374998Y-102003013D01*
X162659843Y-102121000D01*
X162968157Y-102121000D01*
X163253002Y-102003013D01*
X163322000Y-101934015D01*
X163390998Y-102003013D01*
X163675843Y-102121000D01*
X163984157Y-102121000D01*
X164269002Y-102003013D01*
X164487013Y-101785002D01*
X164605000Y-101500157D01*
X164605000Y-101191843D01*
X164487013Y-100906998D01*
X164481515Y-100901500D01*
X164487013Y-100896002D01*
X164605000Y-100611157D01*
X164605000Y-100302843D01*
X164487013Y-100017998D01*
X164269002Y-99799987D01*
X163984157Y-99682000D01*
X163675843Y-99682000D01*
X163390998Y-99799987D01*
X163322000Y-99868985D01*
X163253002Y-99799987D01*
X162968157Y-99682000D01*
X162659843Y-99682000D01*
X162374998Y-99799987D01*
X162306000Y-99868985D01*
X162237002Y-99799987D01*
X161952157Y-99682000D01*
X161643843Y-99682000D01*
X161358998Y-99799987D01*
X161140987Y-100017998D01*
X161023000Y-100302843D01*
X156121000Y-100302843D01*
X156121000Y-100175843D01*
X156003013Y-99890998D01*
X155785002Y-99672987D01*
X155500157Y-99555000D01*
X155191843Y-99555000D01*
X154906998Y-99672987D01*
X154688987Y-99890998D01*
X154571000Y-100175843D01*
X151217395Y-100175843D01*
X151152013Y-100017998D01*
X150934002Y-99799987D01*
X150649157Y-99682000D01*
X150340843Y-99682000D01*
X150055998Y-99799987D01*
X149837987Y-100017998D01*
X149720000Y-100302843D01*
X129520172Y-100302843D01*
X129689013Y-100134002D01*
X129807000Y-99849157D01*
X129807000Y-99540843D01*
X129689013Y-99255998D01*
X129471002Y-99037987D01*
X129186157Y-98920000D01*
X128877843Y-98920000D01*
X128592998Y-99037987D01*
X128395000Y-99235985D01*
X128395000Y-96647000D01*
X128385485Y-96599165D01*
X128358388Y-96558612D01*
X128317835Y-96531515D01*
X128270000Y-96522000D01*
X123190000Y-96522000D01*
X123142165Y-96531515D01*
X123101612Y-96558612D01*
X123074515Y-96599165D01*
X123065000Y-96647000D01*
X123065000Y-103172985D01*
X122867002Y-102974987D01*
X122582157Y-102857000D01*
X122273843Y-102857000D01*
X121988998Y-102974987D01*
X121770987Y-103192998D01*
X121653000Y-103477843D01*
X121653000Y-103786157D01*
X121770987Y-104071002D01*
X121988998Y-104289013D01*
X122273843Y-104407000D01*
X122582157Y-104407000D01*
X122867002Y-104289013D01*
X123065000Y-104091015D01*
X123065000Y-105412000D01*
X115869210Y-105412000D01*
X115964000Y-105183157D01*
X115964000Y-104874843D01*
X115846013Y-104589998D01*
X115628002Y-104371987D01*
X115343157Y-104254000D01*
X115034843Y-104254000D01*
X114749998Y-104371987D01*
X114531987Y-104589998D01*
X114414000Y-104874843D01*
X114414000Y-105183157D01*
X114508790Y-105412000D01*
X110742000Y-105412000D01*
X110742000Y-103477843D01*
X111112000Y-103477843D01*
X111112000Y-103786157D01*
X111229987Y-104071002D01*
X111447998Y-104289013D01*
X111732843Y-104407000D01*
X112041157Y-104407000D01*
X112326002Y-104289013D01*
X112544013Y-104071002D01*
X112662000Y-103786157D01*
X112662000Y-103477843D01*
X112544013Y-103192998D01*
X112326002Y-102974987D01*
X112041157Y-102857000D01*
X111732843Y-102857000D01*
X111447998Y-102974987D01*
X111229987Y-103192998D01*
X111112000Y-103477843D01*
X110742000Y-103477843D01*
X110742000Y-93470000D01*
X163959000Y-93470000D01*
X163959000Y-97155000D01*
G04 #@! TO.N,+3V3*
G36*
X169967172Y-66257877D02*
X170008482Y-66283804D01*
X170053000Y-66292000D01*
X172468000Y-66292000D01*
X172468000Y-68836000D01*
X169799000Y-68836000D01*
X169751165Y-68845515D01*
X169710612Y-68872612D01*
X169683515Y-68913165D01*
X169674000Y-68961000D01*
X169674000Y-73027000D01*
X147252892Y-73027000D01*
X147248662Y-73016789D01*
X147086911Y-72855038D01*
X146875575Y-72767500D01*
X146646825Y-72767500D01*
X146435489Y-72855038D01*
X146273738Y-73016789D01*
X146269508Y-73027000D01*
X140460000Y-73027000D01*
X140460000Y-71245000D01*
X143046985Y-71245000D01*
X143070998Y-71269013D01*
X143355843Y-71387000D01*
X143664157Y-71387000D01*
X143949002Y-71269013D01*
X143973015Y-71245000D01*
X144189985Y-71245000D01*
X144213998Y-71269013D01*
X144498843Y-71387000D01*
X144807157Y-71387000D01*
X145092002Y-71269013D01*
X145116015Y-71245000D01*
X145205985Y-71245000D01*
X145229998Y-71269013D01*
X145514843Y-71387000D01*
X145823157Y-71387000D01*
X146108002Y-71269013D01*
X146132015Y-71245000D01*
X146221985Y-71245000D01*
X146245998Y-71269013D01*
X146530843Y-71387000D01*
X146839157Y-71387000D01*
X147124002Y-71269013D01*
X147148015Y-71245000D01*
X149923630Y-71245000D01*
X149959843Y-71260000D01*
X150268157Y-71260000D01*
X150304370Y-71245000D01*
X153280663Y-71245000D01*
X153222000Y-71386625D01*
X153222000Y-71615375D01*
X153309538Y-71826711D01*
X153471289Y-71988462D01*
X153682625Y-72076000D01*
X153911375Y-72076000D01*
X154122711Y-71988462D01*
X154284462Y-71826711D01*
X154372000Y-71615375D01*
X154372000Y-71386625D01*
X154313337Y-71245000D01*
X157353740Y-71245000D01*
X157326640Y-71310425D01*
X157326640Y-71539175D01*
X157414178Y-71750511D01*
X157575929Y-71912262D01*
X157787265Y-71999800D01*
X158016015Y-71999800D01*
X158227351Y-71912262D01*
X158389102Y-71750511D01*
X158476640Y-71539175D01*
X158476640Y-71310425D01*
X158449540Y-71245000D01*
X163703000Y-71245000D01*
X163750835Y-71235485D01*
X163791388Y-71208388D01*
X163818485Y-71167835D01*
X163828000Y-71120000D01*
X163828000Y-64133000D01*
X167717302Y-64133000D01*
X169967172Y-66257877D01*
X169967172Y-66257877D01*
G37*
X169967172Y-66257877D02*
X170008482Y-66283804D01*
X170053000Y-66292000D01*
X172468000Y-66292000D01*
X172468000Y-68836000D01*
X169799000Y-68836000D01*
X169751165Y-68845515D01*
X169710612Y-68872612D01*
X169683515Y-68913165D01*
X169674000Y-68961000D01*
X169674000Y-73027000D01*
X147252892Y-73027000D01*
X147248662Y-73016789D01*
X147086911Y-72855038D01*
X146875575Y-72767500D01*
X146646825Y-72767500D01*
X146435489Y-72855038D01*
X146273738Y-73016789D01*
X146269508Y-73027000D01*
X140460000Y-73027000D01*
X140460000Y-71245000D01*
X143046985Y-71245000D01*
X143070998Y-71269013D01*
X143355843Y-71387000D01*
X143664157Y-71387000D01*
X143949002Y-71269013D01*
X143973015Y-71245000D01*
X144189985Y-71245000D01*
X144213998Y-71269013D01*
X144498843Y-71387000D01*
X144807157Y-71387000D01*
X145092002Y-71269013D01*
X145116015Y-71245000D01*
X145205985Y-71245000D01*
X145229998Y-71269013D01*
X145514843Y-71387000D01*
X145823157Y-71387000D01*
X146108002Y-71269013D01*
X146132015Y-71245000D01*
X146221985Y-71245000D01*
X146245998Y-71269013D01*
X146530843Y-71387000D01*
X146839157Y-71387000D01*
X147124002Y-71269013D01*
X147148015Y-71245000D01*
X149923630Y-71245000D01*
X149959843Y-71260000D01*
X150268157Y-71260000D01*
X150304370Y-71245000D01*
X153280663Y-71245000D01*
X153222000Y-71386625D01*
X153222000Y-71615375D01*
X153309538Y-71826711D01*
X153471289Y-71988462D01*
X153682625Y-72076000D01*
X153911375Y-72076000D01*
X154122711Y-71988462D01*
X154284462Y-71826711D01*
X154372000Y-71615375D01*
X154372000Y-71386625D01*
X154313337Y-71245000D01*
X157353740Y-71245000D01*
X157326640Y-71310425D01*
X157326640Y-71539175D01*
X157414178Y-71750511D01*
X157575929Y-71912262D01*
X157787265Y-71999800D01*
X158016015Y-71999800D01*
X158227351Y-71912262D01*
X158389102Y-71750511D01*
X158476640Y-71539175D01*
X158476640Y-71310425D01*
X158449540Y-71245000D01*
X163703000Y-71245000D01*
X163750835Y-71235485D01*
X163791388Y-71208388D01*
X163818485Y-71167835D01*
X163828000Y-71120000D01*
X163828000Y-64133000D01*
X167717302Y-64133000D01*
X169967172Y-66257877D01*
G04 #@! TD*
M02*
