G04 #@! TF.GenerationSoftware,KiCad,Pcbnew,(5.1.2)-2*
G04 #@! TF.CreationDate,2019-07-12T11:06:28+02:00*
G04 #@! TF.ProjectId,EmLab_Amp,456d4c61-625f-4416-9d70-2e6b69636164,rev?*
G04 #@! TF.SameCoordinates,Original*
G04 #@! TF.FileFunction,Soldermask,Bot*
G04 #@! TF.FilePolarity,Negative*
%FSLAX46Y46*%
G04 Gerber Fmt 4.6, Leading zero omitted, Abs format (unit mm)*
G04 Created by KiCad (PCBNEW (5.1.2)-2) date 2019-07-12 11:06:28*
%MOMM*%
%LPD*%
G04 APERTURE LIST*
%ADD10C,0.100000*%
G04 APERTURE END LIST*
D10*
G36*
X196075872Y-113046330D02*
G01*
X196385252Y-113174479D01*
X196663687Y-113360523D01*
X196900477Y-113597313D01*
X197086521Y-113875748D01*
X197214670Y-114185128D01*
X197280000Y-114513565D01*
X197280000Y-114848435D01*
X197214670Y-115176872D01*
X197086521Y-115486252D01*
X196900477Y-115764687D01*
X196663687Y-116001477D01*
X196385252Y-116187521D01*
X196075872Y-116315670D01*
X195747435Y-116381000D01*
X195412565Y-116381000D01*
X195084128Y-116315670D01*
X194774748Y-116187521D01*
X194496313Y-116001477D01*
X194259523Y-115764687D01*
X194073479Y-115486252D01*
X193945330Y-115176872D01*
X193880000Y-114848435D01*
X193880000Y-114513565D01*
X193945330Y-114185128D01*
X194073479Y-113875748D01*
X194259523Y-113597313D01*
X194496313Y-113360523D01*
X194774748Y-113174479D01*
X195084128Y-113046330D01*
X195412565Y-112981000D01*
X195747435Y-112981000D01*
X196075872Y-113046330D01*
X196075872Y-113046330D01*
G37*
G36*
X85839872Y-113046330D02*
G01*
X86149252Y-113174479D01*
X86427687Y-113360523D01*
X86664477Y-113597313D01*
X86850521Y-113875748D01*
X86978670Y-114185128D01*
X87044000Y-114513565D01*
X87044000Y-114848435D01*
X86978670Y-115176872D01*
X86850521Y-115486252D01*
X86664477Y-115764687D01*
X86427687Y-116001477D01*
X86149252Y-116187521D01*
X85839872Y-116315670D01*
X85511435Y-116381000D01*
X85176565Y-116381000D01*
X84848128Y-116315670D01*
X84538748Y-116187521D01*
X84260313Y-116001477D01*
X84023523Y-115764687D01*
X83837479Y-115486252D01*
X83709330Y-115176872D01*
X83644000Y-114848435D01*
X83644000Y-114513565D01*
X83709330Y-114185128D01*
X83837479Y-113875748D01*
X84023523Y-113597313D01*
X84260313Y-113360523D01*
X84538748Y-113174479D01*
X84848128Y-113046330D01*
X85176565Y-112981000D01*
X85511435Y-112981000D01*
X85839872Y-113046330D01*
X85839872Y-113046330D01*
G37*
G36*
X120989703Y-111618487D02*
G01*
X121280887Y-111739099D01*
X121542941Y-111914198D01*
X121765802Y-112137059D01*
X121940901Y-112399113D01*
X121940902Y-112399116D01*
X122061513Y-112690297D01*
X122123000Y-112999414D01*
X122123000Y-113314586D01*
X122113862Y-113360524D01*
X122061513Y-113623703D01*
X121940901Y-113914887D01*
X121765802Y-114176941D01*
X121542941Y-114399802D01*
X121280887Y-114574901D01*
X120989703Y-114695513D01*
X120680586Y-114757000D01*
X120365414Y-114757000D01*
X120056297Y-114695513D01*
X119765113Y-114574901D01*
X119503059Y-114399802D01*
X119280198Y-114176941D01*
X119105099Y-113914887D01*
X118984487Y-113623703D01*
X118932138Y-113360524D01*
X118923000Y-113314586D01*
X118923000Y-112999414D01*
X118984487Y-112690297D01*
X119105098Y-112399116D01*
X119105099Y-112399113D01*
X119280198Y-112137059D01*
X119503059Y-111914198D01*
X119765113Y-111739099D01*
X120056297Y-111618487D01*
X120365414Y-111557000D01*
X120680586Y-111557000D01*
X120989703Y-111618487D01*
X120989703Y-111618487D01*
G37*
G36*
X89102570Y-106283149D02*
G01*
X89195950Y-106301723D01*
X89459835Y-106411027D01*
X89697321Y-106569711D01*
X89899289Y-106771679D01*
X90057973Y-107009165D01*
X90167277Y-107273050D01*
X90223000Y-107553189D01*
X90223000Y-107838811D01*
X90167277Y-108118950D01*
X90057973Y-108382835D01*
X89899289Y-108620321D01*
X89697321Y-108822289D01*
X89459835Y-108980973D01*
X89195950Y-109090277D01*
X89102570Y-109108851D01*
X88915813Y-109146000D01*
X88630187Y-109146000D01*
X88443430Y-109108851D01*
X88350050Y-109090277D01*
X88086165Y-108980973D01*
X87848679Y-108822289D01*
X87646711Y-108620321D01*
X87488027Y-108382835D01*
X87378723Y-108118950D01*
X87323000Y-107838811D01*
X87323000Y-107553189D01*
X87378723Y-107273050D01*
X87488027Y-107009165D01*
X87646711Y-106771679D01*
X87848679Y-106569711D01*
X88086165Y-106411027D01*
X88350050Y-106301723D01*
X88443430Y-106283149D01*
X88630187Y-106246000D01*
X88915813Y-106246000D01*
X89102570Y-106283149D01*
X89102570Y-106283149D01*
G37*
G36*
X164169703Y-104125487D02*
G01*
X164460887Y-104246099D01*
X164722941Y-104421198D01*
X164945802Y-104644059D01*
X165120901Y-104906113D01*
X165241513Y-105197297D01*
X165303000Y-105506415D01*
X165303000Y-105821585D01*
X165241513Y-106130703D01*
X165120901Y-106421887D01*
X164945802Y-106683941D01*
X164722941Y-106906802D01*
X164460887Y-107081901D01*
X164169703Y-107202513D01*
X163860586Y-107264000D01*
X163545414Y-107264000D01*
X163236297Y-107202513D01*
X162945113Y-107081901D01*
X162683059Y-106906802D01*
X162460198Y-106683941D01*
X162285099Y-106421887D01*
X162164487Y-106130703D01*
X162103000Y-105821585D01*
X162103000Y-105506415D01*
X162164487Y-105197297D01*
X162285099Y-104906113D01*
X162460198Y-104644059D01*
X162683059Y-104421198D01*
X162945113Y-104246099D01*
X163236297Y-104125487D01*
X163545414Y-104064000D01*
X163860586Y-104064000D01*
X164169703Y-104125487D01*
X164169703Y-104125487D01*
G37*
G36*
X94115520Y-104290586D02*
G01*
X94279312Y-104358431D01*
X94426717Y-104456924D01*
X94552076Y-104582283D01*
X94650569Y-104729688D01*
X94718414Y-104893480D01*
X94753000Y-105067357D01*
X94753000Y-105244643D01*
X94718414Y-105418520D01*
X94650569Y-105582312D01*
X94552076Y-105729717D01*
X94426717Y-105855076D01*
X94279312Y-105953569D01*
X94115520Y-106021414D01*
X93941643Y-106056000D01*
X93764357Y-106056000D01*
X93590480Y-106021414D01*
X93426688Y-105953569D01*
X93279283Y-105855076D01*
X93153924Y-105729717D01*
X93055431Y-105582312D01*
X92987586Y-105418520D01*
X92953000Y-105244643D01*
X92953000Y-105067357D01*
X92987586Y-104893480D01*
X93055431Y-104729688D01*
X93153924Y-104582283D01*
X93279283Y-104456924D01*
X93426688Y-104358431D01*
X93590480Y-104290586D01*
X93764357Y-104256000D01*
X93941643Y-104256000D01*
X94115520Y-104290586D01*
X94115520Y-104290586D01*
G37*
G36*
X94115520Y-101750586D02*
G01*
X94279312Y-101818431D01*
X94426717Y-101916924D01*
X94552076Y-102042283D01*
X94650569Y-102189688D01*
X94718414Y-102353480D01*
X94753000Y-102527357D01*
X94753000Y-102704643D01*
X94718414Y-102878520D01*
X94650569Y-103042312D01*
X94552076Y-103189717D01*
X94426717Y-103315076D01*
X94279312Y-103413569D01*
X94115520Y-103481414D01*
X93941643Y-103516000D01*
X93764357Y-103516000D01*
X93590480Y-103481414D01*
X93426688Y-103413569D01*
X93279283Y-103315076D01*
X93153924Y-103189717D01*
X93055431Y-103042312D01*
X92987586Y-102878520D01*
X92953000Y-102704643D01*
X92953000Y-102527357D01*
X92987586Y-102353480D01*
X93055431Y-102189688D01*
X93153924Y-102042283D01*
X93279283Y-101916924D01*
X93426688Y-101818431D01*
X93590480Y-101750586D01*
X93764357Y-101716000D01*
X93941643Y-101716000D01*
X94115520Y-101750586D01*
X94115520Y-101750586D01*
G37*
G36*
X89102570Y-96123149D02*
G01*
X89195950Y-96141723D01*
X89459835Y-96251027D01*
X89697321Y-96409711D01*
X89899289Y-96611679D01*
X90057973Y-96849165D01*
X90167277Y-97113050D01*
X90223000Y-97393189D01*
X90223000Y-97678811D01*
X90167277Y-97958950D01*
X90057973Y-98222835D01*
X89899289Y-98460321D01*
X89697321Y-98662289D01*
X89459835Y-98820973D01*
X89195950Y-98930277D01*
X89102570Y-98948851D01*
X88915813Y-98986000D01*
X88630187Y-98986000D01*
X88443430Y-98948851D01*
X88350050Y-98930277D01*
X88086165Y-98820973D01*
X87848679Y-98662289D01*
X87646711Y-98460321D01*
X87488027Y-98222835D01*
X87378723Y-97958950D01*
X87323000Y-97678811D01*
X87323000Y-97393189D01*
X87378723Y-97113050D01*
X87488027Y-96849165D01*
X87646711Y-96611679D01*
X87848679Y-96409711D01*
X88086165Y-96251027D01*
X88350050Y-96141723D01*
X88443430Y-96123149D01*
X88630187Y-96086000D01*
X88915813Y-96086000D01*
X89102570Y-96123149D01*
X89102570Y-96123149D01*
G37*
G36*
X182203703Y-89139487D02*
G01*
X182494887Y-89260099D01*
X182756941Y-89435198D01*
X182979802Y-89658059D01*
X183154901Y-89920113D01*
X183275513Y-90211297D01*
X183337000Y-90520415D01*
X183337000Y-90835585D01*
X183275513Y-91144703D01*
X183154901Y-91435887D01*
X182979802Y-91697941D01*
X182756941Y-91920802D01*
X182494887Y-92095901D01*
X182203703Y-92216513D01*
X181894586Y-92278000D01*
X181579414Y-92278000D01*
X181270297Y-92216513D01*
X180979113Y-92095901D01*
X180717059Y-91920802D01*
X180494198Y-91697941D01*
X180319099Y-91435887D01*
X180198487Y-91144703D01*
X180137000Y-90835585D01*
X180137000Y-90520415D01*
X180198487Y-90211297D01*
X180319099Y-89920113D01*
X180494198Y-89658059D01*
X180717059Y-89435198D01*
X180979113Y-89260099D01*
X181270297Y-89139487D01*
X181579414Y-89078000D01*
X181894586Y-89078000D01*
X182203703Y-89139487D01*
X182203703Y-89139487D01*
G37*
G36*
X195405919Y-81893858D02*
G01*
X195482618Y-81917125D01*
X195509598Y-81925309D01*
X195599677Y-81973458D01*
X195605142Y-81976379D01*
X195688890Y-82045110D01*
X195757621Y-82128858D01*
X195757622Y-82128860D01*
X195808691Y-82224402D01*
X195808692Y-82224406D01*
X195840142Y-82328081D01*
X195850761Y-82435900D01*
X195840142Y-82543719D01*
X195816875Y-82620418D01*
X195808691Y-82647398D01*
X195760542Y-82737477D01*
X195757621Y-82742942D01*
X195688890Y-82826690D01*
X195605142Y-82895421D01*
X195605140Y-82895422D01*
X195509598Y-82946491D01*
X195482618Y-82954675D01*
X195405919Y-82977942D01*
X195325118Y-82985900D01*
X194471082Y-82985900D01*
X194390281Y-82977942D01*
X194313582Y-82954675D01*
X194286602Y-82946491D01*
X194191060Y-82895422D01*
X194191058Y-82895421D01*
X194107310Y-82826690D01*
X194038579Y-82742942D01*
X194035658Y-82737477D01*
X193987509Y-82647398D01*
X193979325Y-82620418D01*
X193956058Y-82543719D01*
X193945439Y-82435900D01*
X193956058Y-82328081D01*
X193987508Y-82224406D01*
X193987509Y-82224402D01*
X194038578Y-82128860D01*
X194038579Y-82128858D01*
X194107310Y-82045110D01*
X194191058Y-81976379D01*
X194196523Y-81973458D01*
X194286602Y-81925309D01*
X194313582Y-81917125D01*
X194390281Y-81893858D01*
X194471082Y-81885900D01*
X195325118Y-81885900D01*
X195405919Y-81893858D01*
X195405919Y-81893858D01*
G37*
G36*
X192375919Y-81893858D02*
G01*
X192452618Y-81917125D01*
X192479598Y-81925309D01*
X192569677Y-81973458D01*
X192575142Y-81976379D01*
X192658890Y-82045110D01*
X192727621Y-82128858D01*
X192727622Y-82128860D01*
X192778691Y-82224402D01*
X192778692Y-82224406D01*
X192810142Y-82328081D01*
X192820761Y-82435900D01*
X192810142Y-82543719D01*
X192786875Y-82620418D01*
X192778691Y-82647398D01*
X192730542Y-82737477D01*
X192727621Y-82742942D01*
X192658890Y-82826690D01*
X192575142Y-82895421D01*
X192575140Y-82895422D01*
X192479598Y-82946491D01*
X192452618Y-82954675D01*
X192375919Y-82977942D01*
X192295118Y-82985900D01*
X190741082Y-82985900D01*
X190660281Y-82977942D01*
X190583582Y-82954675D01*
X190556602Y-82946491D01*
X190461060Y-82895422D01*
X190461058Y-82895421D01*
X190377310Y-82826690D01*
X190308579Y-82742942D01*
X190305658Y-82737477D01*
X190257509Y-82647398D01*
X190249325Y-82620418D01*
X190226058Y-82543719D01*
X190215439Y-82435900D01*
X190226058Y-82328081D01*
X190257508Y-82224406D01*
X190257509Y-82224402D01*
X190308578Y-82128860D01*
X190308579Y-82128858D01*
X190377310Y-82045110D01*
X190461058Y-81976379D01*
X190466523Y-81973458D01*
X190556602Y-81925309D01*
X190583582Y-81917125D01*
X190660281Y-81893858D01*
X190741082Y-81885900D01*
X192295118Y-81885900D01*
X192375919Y-81893858D01*
X192375919Y-81893858D01*
G37*
G36*
X190611401Y-74691665D02*
G01*
X190669362Y-74703194D01*
X190751255Y-74737115D01*
X190824958Y-74786362D01*
X190887638Y-74849042D01*
X190936885Y-74922745D01*
X190970806Y-75004638D01*
X190988100Y-75091580D01*
X190988100Y-75180220D01*
X190970806Y-75267162D01*
X190936885Y-75349055D01*
X190887638Y-75422758D01*
X190824958Y-75485438D01*
X190805348Y-75498541D01*
X190793983Y-75507868D01*
X190784656Y-75519233D01*
X190777725Y-75532199D01*
X190773457Y-75546269D01*
X190772016Y-75560900D01*
X190773457Y-75575532D01*
X190777725Y-75589601D01*
X190784656Y-75602567D01*
X190793983Y-75613932D01*
X190805348Y-75623259D01*
X190824958Y-75636362D01*
X190887638Y-75699042D01*
X190936885Y-75772745D01*
X190970806Y-75854638D01*
X190988100Y-75941580D01*
X190988100Y-76030220D01*
X190970806Y-76117162D01*
X190936885Y-76199055D01*
X190887638Y-76272758D01*
X190824958Y-76335438D01*
X190805348Y-76348541D01*
X190793983Y-76357868D01*
X190784656Y-76369233D01*
X190777725Y-76382199D01*
X190773457Y-76396269D01*
X190772016Y-76410900D01*
X190773457Y-76425532D01*
X190777725Y-76439601D01*
X190784656Y-76452567D01*
X190793983Y-76463932D01*
X190805348Y-76473259D01*
X190824958Y-76486362D01*
X190887638Y-76549042D01*
X190936885Y-76622745D01*
X190970806Y-76704638D01*
X190988100Y-76791580D01*
X190988100Y-76880220D01*
X190970806Y-76967162D01*
X190936885Y-77049055D01*
X190887638Y-77122758D01*
X190824958Y-77185438D01*
X190805348Y-77198541D01*
X190793983Y-77207868D01*
X190784656Y-77219233D01*
X190777725Y-77232199D01*
X190773457Y-77246269D01*
X190772016Y-77260900D01*
X190773457Y-77275532D01*
X190777725Y-77289601D01*
X190784656Y-77302567D01*
X190793983Y-77313932D01*
X190805348Y-77323259D01*
X190824958Y-77336362D01*
X190887638Y-77399042D01*
X190936885Y-77472745D01*
X190970806Y-77554638D01*
X190988100Y-77641580D01*
X190988100Y-77730220D01*
X190970806Y-77817162D01*
X190936885Y-77899055D01*
X190887638Y-77972758D01*
X190824958Y-78035438D01*
X190805348Y-78048541D01*
X190793983Y-78057868D01*
X190784656Y-78069233D01*
X190777725Y-78082199D01*
X190773457Y-78096269D01*
X190772016Y-78110900D01*
X190773457Y-78125532D01*
X190777725Y-78139601D01*
X190784656Y-78152567D01*
X190793983Y-78163932D01*
X190805348Y-78173259D01*
X190824958Y-78186362D01*
X190887638Y-78249042D01*
X190936885Y-78322745D01*
X190970806Y-78404638D01*
X190988100Y-78491580D01*
X190988100Y-78580220D01*
X190970806Y-78667162D01*
X190936885Y-78749055D01*
X190887638Y-78822758D01*
X190824958Y-78885438D01*
X190805348Y-78898541D01*
X190793983Y-78907868D01*
X190784656Y-78919233D01*
X190777725Y-78932199D01*
X190773457Y-78946269D01*
X190772016Y-78960900D01*
X190773457Y-78975532D01*
X190777725Y-78989601D01*
X190784656Y-79002567D01*
X190793983Y-79013932D01*
X190805348Y-79023259D01*
X190824958Y-79036362D01*
X190887638Y-79099042D01*
X190936885Y-79172745D01*
X190970806Y-79254638D01*
X190988100Y-79341580D01*
X190988100Y-79430220D01*
X190970806Y-79517162D01*
X190936885Y-79599055D01*
X190887638Y-79672758D01*
X190824958Y-79735438D01*
X190805348Y-79748541D01*
X190793983Y-79757868D01*
X190784656Y-79769233D01*
X190777725Y-79782199D01*
X190773457Y-79796269D01*
X190772016Y-79810900D01*
X190773457Y-79825532D01*
X190777725Y-79839601D01*
X190784656Y-79852567D01*
X190793983Y-79863932D01*
X190805348Y-79873259D01*
X190824958Y-79886362D01*
X190887638Y-79949042D01*
X190936885Y-80022745D01*
X190970806Y-80104638D01*
X190988100Y-80191580D01*
X190988100Y-80280220D01*
X190970806Y-80367162D01*
X190936885Y-80449055D01*
X190887638Y-80522758D01*
X190824958Y-80585438D01*
X190805348Y-80598541D01*
X190793983Y-80607868D01*
X190784656Y-80619233D01*
X190777725Y-80632199D01*
X190773457Y-80646269D01*
X190772016Y-80660900D01*
X190773457Y-80675532D01*
X190777725Y-80689601D01*
X190784656Y-80702567D01*
X190793983Y-80713932D01*
X190805348Y-80723259D01*
X190824958Y-80736362D01*
X190887638Y-80799042D01*
X190936885Y-80872745D01*
X190970806Y-80954638D01*
X190988100Y-81041580D01*
X190988100Y-81130220D01*
X190970806Y-81217162D01*
X190936885Y-81299055D01*
X190887638Y-81372758D01*
X190824958Y-81435438D01*
X190751255Y-81484685D01*
X190669362Y-81518606D01*
X190611401Y-81530135D01*
X190582421Y-81535900D01*
X190493779Y-81535900D01*
X190464799Y-81530135D01*
X190406838Y-81518606D01*
X190324945Y-81484685D01*
X190251242Y-81435438D01*
X190188562Y-81372758D01*
X190139315Y-81299055D01*
X190105394Y-81217162D01*
X190088100Y-81130220D01*
X190088100Y-81041580D01*
X190105394Y-80954638D01*
X190139315Y-80872745D01*
X190188562Y-80799042D01*
X190251242Y-80736362D01*
X190270852Y-80723259D01*
X190282217Y-80713932D01*
X190291544Y-80702567D01*
X190298475Y-80689601D01*
X190302743Y-80675531D01*
X190304184Y-80660900D01*
X190302743Y-80646268D01*
X190298475Y-80632199D01*
X190291544Y-80619233D01*
X190282217Y-80607868D01*
X190270852Y-80598541D01*
X190251242Y-80585438D01*
X190188562Y-80522758D01*
X190139315Y-80449055D01*
X190105394Y-80367162D01*
X190088100Y-80280220D01*
X190088100Y-80191580D01*
X190105394Y-80104638D01*
X190139315Y-80022745D01*
X190188562Y-79949042D01*
X190251242Y-79886362D01*
X190270852Y-79873259D01*
X190282217Y-79863932D01*
X190291544Y-79852567D01*
X190298475Y-79839601D01*
X190302743Y-79825531D01*
X190304184Y-79810900D01*
X190302743Y-79796268D01*
X190298475Y-79782199D01*
X190291544Y-79769233D01*
X190282217Y-79757868D01*
X190270852Y-79748541D01*
X190251242Y-79735438D01*
X190188562Y-79672758D01*
X190139315Y-79599055D01*
X190105394Y-79517162D01*
X190088100Y-79430220D01*
X190088100Y-79341580D01*
X190105394Y-79254638D01*
X190139315Y-79172745D01*
X190188562Y-79099042D01*
X190251242Y-79036362D01*
X190270852Y-79023259D01*
X190282217Y-79013932D01*
X190291544Y-79002567D01*
X190298475Y-78989601D01*
X190302743Y-78975531D01*
X190304184Y-78960900D01*
X190302743Y-78946268D01*
X190298475Y-78932199D01*
X190291544Y-78919233D01*
X190282217Y-78907868D01*
X190270852Y-78898541D01*
X190251242Y-78885438D01*
X190188562Y-78822758D01*
X190139315Y-78749055D01*
X190105394Y-78667162D01*
X190088100Y-78580220D01*
X190088100Y-78491580D01*
X190105394Y-78404638D01*
X190139315Y-78322745D01*
X190188562Y-78249042D01*
X190251242Y-78186362D01*
X190270852Y-78173259D01*
X190282217Y-78163932D01*
X190291544Y-78152567D01*
X190298475Y-78139601D01*
X190302743Y-78125531D01*
X190304184Y-78110900D01*
X190302743Y-78096268D01*
X190298475Y-78082199D01*
X190291544Y-78069233D01*
X190282217Y-78057868D01*
X190270852Y-78048541D01*
X190251242Y-78035438D01*
X190188562Y-77972758D01*
X190139315Y-77899055D01*
X190105394Y-77817162D01*
X190088100Y-77730220D01*
X190088100Y-77641580D01*
X190105394Y-77554638D01*
X190139315Y-77472745D01*
X190188562Y-77399042D01*
X190251242Y-77336362D01*
X190270852Y-77323259D01*
X190282217Y-77313932D01*
X190291544Y-77302567D01*
X190298475Y-77289601D01*
X190302743Y-77275531D01*
X190304184Y-77260900D01*
X190302743Y-77246268D01*
X190298475Y-77232199D01*
X190291544Y-77219233D01*
X190282217Y-77207868D01*
X190270852Y-77198541D01*
X190251242Y-77185438D01*
X190188562Y-77122758D01*
X190139315Y-77049055D01*
X190105394Y-76967162D01*
X190088100Y-76880220D01*
X190088100Y-76791580D01*
X190105394Y-76704638D01*
X190139315Y-76622745D01*
X190188562Y-76549042D01*
X190251242Y-76486362D01*
X190270852Y-76473259D01*
X190282217Y-76463932D01*
X190291544Y-76452567D01*
X190298475Y-76439601D01*
X190302743Y-76425531D01*
X190304184Y-76410900D01*
X190302743Y-76396268D01*
X190298475Y-76382199D01*
X190291544Y-76369233D01*
X190282217Y-76357868D01*
X190270852Y-76348541D01*
X190251242Y-76335438D01*
X190188562Y-76272758D01*
X190139315Y-76199055D01*
X190105394Y-76117162D01*
X190088100Y-76030220D01*
X190088100Y-75941580D01*
X190105394Y-75854638D01*
X190139315Y-75772745D01*
X190188562Y-75699042D01*
X190251242Y-75636362D01*
X190270852Y-75623259D01*
X190282217Y-75613932D01*
X190291544Y-75602567D01*
X190298475Y-75589601D01*
X190302743Y-75575531D01*
X190304184Y-75560900D01*
X190302743Y-75546268D01*
X190298475Y-75532199D01*
X190291544Y-75519233D01*
X190282217Y-75507868D01*
X190270852Y-75498541D01*
X190251242Y-75485438D01*
X190188562Y-75422758D01*
X190139315Y-75349055D01*
X190105394Y-75267162D01*
X190088100Y-75180220D01*
X190088100Y-75091580D01*
X190105394Y-75004638D01*
X190139315Y-74922745D01*
X190188562Y-74849042D01*
X190251242Y-74786362D01*
X190324945Y-74737115D01*
X190406838Y-74703194D01*
X190464799Y-74691665D01*
X190493779Y-74685900D01*
X190582421Y-74685900D01*
X190611401Y-74691665D01*
X190611401Y-74691665D01*
G37*
G36*
X191961401Y-74691665D02*
G01*
X192019362Y-74703194D01*
X192101255Y-74737115D01*
X192174958Y-74786362D01*
X192237638Y-74849042D01*
X192286885Y-74922745D01*
X192320806Y-75004638D01*
X192338100Y-75091580D01*
X192338100Y-75180220D01*
X192320806Y-75267162D01*
X192286885Y-75349055D01*
X192237638Y-75422758D01*
X192174958Y-75485438D01*
X192155348Y-75498541D01*
X192143983Y-75507868D01*
X192134656Y-75519233D01*
X192127725Y-75532199D01*
X192123457Y-75546269D01*
X192122016Y-75560900D01*
X192123457Y-75575532D01*
X192127725Y-75589601D01*
X192134656Y-75602567D01*
X192143983Y-75613932D01*
X192155348Y-75623259D01*
X192174958Y-75636362D01*
X192237638Y-75699042D01*
X192286885Y-75772745D01*
X192320806Y-75854638D01*
X192338100Y-75941580D01*
X192338100Y-76030220D01*
X192320806Y-76117162D01*
X192286885Y-76199055D01*
X192237638Y-76272758D01*
X192174958Y-76335438D01*
X192155348Y-76348541D01*
X192143983Y-76357868D01*
X192134656Y-76369233D01*
X192127725Y-76382199D01*
X192123457Y-76396269D01*
X192122016Y-76410900D01*
X192123457Y-76425532D01*
X192127725Y-76439601D01*
X192134656Y-76452567D01*
X192143983Y-76463932D01*
X192155348Y-76473259D01*
X192174958Y-76486362D01*
X192237638Y-76549042D01*
X192286885Y-76622745D01*
X192320806Y-76704638D01*
X192338100Y-76791580D01*
X192338100Y-76880220D01*
X192320806Y-76967162D01*
X192286885Y-77049055D01*
X192237638Y-77122758D01*
X192174958Y-77185438D01*
X192155348Y-77198541D01*
X192143983Y-77207868D01*
X192134656Y-77219233D01*
X192127725Y-77232199D01*
X192123457Y-77246269D01*
X192122016Y-77260900D01*
X192123457Y-77275532D01*
X192127725Y-77289601D01*
X192134656Y-77302567D01*
X192143983Y-77313932D01*
X192155348Y-77323259D01*
X192174958Y-77336362D01*
X192237638Y-77399042D01*
X192286885Y-77472745D01*
X192320806Y-77554638D01*
X192338100Y-77641580D01*
X192338100Y-77730220D01*
X192320806Y-77817162D01*
X192286885Y-77899055D01*
X192237638Y-77972758D01*
X192174958Y-78035438D01*
X192155348Y-78048541D01*
X192143983Y-78057868D01*
X192134656Y-78069233D01*
X192127725Y-78082199D01*
X192123457Y-78096269D01*
X192122016Y-78110900D01*
X192123457Y-78125532D01*
X192127725Y-78139601D01*
X192134656Y-78152567D01*
X192143983Y-78163932D01*
X192155348Y-78173259D01*
X192174958Y-78186362D01*
X192237638Y-78249042D01*
X192286885Y-78322745D01*
X192320806Y-78404638D01*
X192338100Y-78491580D01*
X192338100Y-78580220D01*
X192320806Y-78667162D01*
X192286885Y-78749055D01*
X192237638Y-78822758D01*
X192174958Y-78885438D01*
X192155348Y-78898541D01*
X192143983Y-78907868D01*
X192134656Y-78919233D01*
X192127725Y-78932199D01*
X192123457Y-78946269D01*
X192122016Y-78960900D01*
X192123457Y-78975532D01*
X192127725Y-78989601D01*
X192134656Y-79002567D01*
X192143983Y-79013932D01*
X192155348Y-79023259D01*
X192174958Y-79036362D01*
X192237638Y-79099042D01*
X192286885Y-79172745D01*
X192320806Y-79254638D01*
X192338100Y-79341580D01*
X192338100Y-79430220D01*
X192320806Y-79517162D01*
X192286885Y-79599055D01*
X192237638Y-79672758D01*
X192174958Y-79735438D01*
X192155348Y-79748541D01*
X192143983Y-79757868D01*
X192134656Y-79769233D01*
X192127725Y-79782199D01*
X192123457Y-79796269D01*
X192122016Y-79810900D01*
X192123457Y-79825532D01*
X192127725Y-79839601D01*
X192134656Y-79852567D01*
X192143983Y-79863932D01*
X192155348Y-79873259D01*
X192174958Y-79886362D01*
X192237638Y-79949042D01*
X192286885Y-80022745D01*
X192320806Y-80104638D01*
X192338100Y-80191580D01*
X192338100Y-80280220D01*
X192320806Y-80367162D01*
X192286885Y-80449055D01*
X192237638Y-80522758D01*
X192174958Y-80585438D01*
X192155348Y-80598541D01*
X192143983Y-80607868D01*
X192134656Y-80619233D01*
X192127725Y-80632199D01*
X192123457Y-80646269D01*
X192122016Y-80660900D01*
X192123457Y-80675532D01*
X192127725Y-80689601D01*
X192134656Y-80702567D01*
X192143983Y-80713932D01*
X192155348Y-80723259D01*
X192174958Y-80736362D01*
X192237638Y-80799042D01*
X192286885Y-80872745D01*
X192320806Y-80954638D01*
X192338100Y-81041580D01*
X192338100Y-81130220D01*
X192320806Y-81217162D01*
X192286885Y-81299055D01*
X192237638Y-81372758D01*
X192174958Y-81435438D01*
X192101255Y-81484685D01*
X192019362Y-81518606D01*
X191961401Y-81530135D01*
X191932421Y-81535900D01*
X191843779Y-81535900D01*
X191814799Y-81530135D01*
X191756838Y-81518606D01*
X191674945Y-81484685D01*
X191601242Y-81435438D01*
X191538562Y-81372758D01*
X191489315Y-81299055D01*
X191455394Y-81217162D01*
X191438100Y-81130220D01*
X191438100Y-81041580D01*
X191455394Y-80954638D01*
X191489315Y-80872745D01*
X191538562Y-80799042D01*
X191601242Y-80736362D01*
X191620852Y-80723259D01*
X191632217Y-80713932D01*
X191641544Y-80702567D01*
X191648475Y-80689601D01*
X191652743Y-80675531D01*
X191654184Y-80660900D01*
X191652743Y-80646268D01*
X191648475Y-80632199D01*
X191641544Y-80619233D01*
X191632217Y-80607868D01*
X191620852Y-80598541D01*
X191601242Y-80585438D01*
X191538562Y-80522758D01*
X191489315Y-80449055D01*
X191455394Y-80367162D01*
X191438100Y-80280220D01*
X191438100Y-80191580D01*
X191455394Y-80104638D01*
X191489315Y-80022745D01*
X191538562Y-79949042D01*
X191601242Y-79886362D01*
X191620852Y-79873259D01*
X191632217Y-79863932D01*
X191641544Y-79852567D01*
X191648475Y-79839601D01*
X191652743Y-79825531D01*
X191654184Y-79810900D01*
X191652743Y-79796268D01*
X191648475Y-79782199D01*
X191641544Y-79769233D01*
X191632217Y-79757868D01*
X191620852Y-79748541D01*
X191601242Y-79735438D01*
X191538562Y-79672758D01*
X191489315Y-79599055D01*
X191455394Y-79517162D01*
X191438100Y-79430220D01*
X191438100Y-79341580D01*
X191455394Y-79254638D01*
X191489315Y-79172745D01*
X191538562Y-79099042D01*
X191601242Y-79036362D01*
X191620852Y-79023259D01*
X191632217Y-79013932D01*
X191641544Y-79002567D01*
X191648475Y-78989601D01*
X191652743Y-78975531D01*
X191654184Y-78960900D01*
X191652743Y-78946268D01*
X191648475Y-78932199D01*
X191641544Y-78919233D01*
X191632217Y-78907868D01*
X191620852Y-78898541D01*
X191601242Y-78885438D01*
X191538562Y-78822758D01*
X191489315Y-78749055D01*
X191455394Y-78667162D01*
X191438100Y-78580220D01*
X191438100Y-78491580D01*
X191455394Y-78404638D01*
X191489315Y-78322745D01*
X191538562Y-78249042D01*
X191601242Y-78186362D01*
X191620852Y-78173259D01*
X191632217Y-78163932D01*
X191641544Y-78152567D01*
X191648475Y-78139601D01*
X191652743Y-78125531D01*
X191654184Y-78110900D01*
X191652743Y-78096268D01*
X191648475Y-78082199D01*
X191641544Y-78069233D01*
X191632217Y-78057868D01*
X191620852Y-78048541D01*
X191601242Y-78035438D01*
X191538562Y-77972758D01*
X191489315Y-77899055D01*
X191455394Y-77817162D01*
X191438100Y-77730220D01*
X191438100Y-77641580D01*
X191455394Y-77554638D01*
X191489315Y-77472745D01*
X191538562Y-77399042D01*
X191601242Y-77336362D01*
X191620852Y-77323259D01*
X191632217Y-77313932D01*
X191641544Y-77302567D01*
X191648475Y-77289601D01*
X191652743Y-77275531D01*
X191654184Y-77260900D01*
X191652743Y-77246268D01*
X191648475Y-77232199D01*
X191641544Y-77219233D01*
X191632217Y-77207868D01*
X191620852Y-77198541D01*
X191601242Y-77185438D01*
X191538562Y-77122758D01*
X191489315Y-77049055D01*
X191455394Y-76967162D01*
X191438100Y-76880220D01*
X191438100Y-76791580D01*
X191455394Y-76704638D01*
X191489315Y-76622745D01*
X191538562Y-76549042D01*
X191601242Y-76486362D01*
X191620852Y-76473259D01*
X191632217Y-76463932D01*
X191641544Y-76452567D01*
X191648475Y-76439601D01*
X191652743Y-76425531D01*
X191654184Y-76410900D01*
X191652743Y-76396268D01*
X191648475Y-76382199D01*
X191641544Y-76369233D01*
X191632217Y-76357868D01*
X191620852Y-76348541D01*
X191601242Y-76335438D01*
X191538562Y-76272758D01*
X191489315Y-76199055D01*
X191455394Y-76117162D01*
X191438100Y-76030220D01*
X191438100Y-75941580D01*
X191455394Y-75854638D01*
X191489315Y-75772745D01*
X191538562Y-75699042D01*
X191601242Y-75636362D01*
X191620852Y-75623259D01*
X191632217Y-75613932D01*
X191641544Y-75602567D01*
X191648475Y-75589601D01*
X191652743Y-75575531D01*
X191654184Y-75560900D01*
X191652743Y-75546268D01*
X191648475Y-75532199D01*
X191641544Y-75519233D01*
X191632217Y-75507868D01*
X191620852Y-75498541D01*
X191601242Y-75485438D01*
X191538562Y-75422758D01*
X191489315Y-75349055D01*
X191455394Y-75267162D01*
X191438100Y-75180220D01*
X191438100Y-75091580D01*
X191455394Y-75004638D01*
X191489315Y-74922745D01*
X191538562Y-74849042D01*
X191601242Y-74786362D01*
X191674945Y-74737115D01*
X191756838Y-74703194D01*
X191814799Y-74691665D01*
X191843779Y-74685900D01*
X191932421Y-74685900D01*
X191961401Y-74691665D01*
X191961401Y-74691665D01*
G37*
G36*
X127339703Y-71867487D02*
G01*
X127630887Y-71988099D01*
X127892941Y-72163198D01*
X128115802Y-72386059D01*
X128290901Y-72648113D01*
X128290902Y-72648116D01*
X128411513Y-72939297D01*
X128473000Y-73248414D01*
X128473000Y-73563586D01*
X128450225Y-73678083D01*
X128411513Y-73872703D01*
X128290901Y-74163887D01*
X128115802Y-74425941D01*
X127892941Y-74648802D01*
X127630887Y-74823901D01*
X127570191Y-74849042D01*
X127339703Y-74944513D01*
X127030586Y-75006000D01*
X126715414Y-75006000D01*
X126406297Y-74944513D01*
X126175809Y-74849042D01*
X126115113Y-74823901D01*
X125853059Y-74648802D01*
X125630198Y-74425941D01*
X125455099Y-74163887D01*
X125334487Y-73872703D01*
X125295775Y-73678083D01*
X125273000Y-73563586D01*
X125273000Y-73248414D01*
X125334487Y-72939297D01*
X125455098Y-72648116D01*
X125455099Y-72648113D01*
X125630198Y-72386059D01*
X125853059Y-72163198D01*
X126115113Y-71988099D01*
X126406297Y-71867487D01*
X126715414Y-71806000D01*
X127030586Y-71806000D01*
X127339703Y-71867487D01*
X127339703Y-71867487D01*
G37*
G36*
X192375919Y-73243858D02*
G01*
X192452618Y-73267125D01*
X192479598Y-73275309D01*
X192569677Y-73323458D01*
X192575142Y-73326379D01*
X192658890Y-73395110D01*
X192727621Y-73478858D01*
X192727622Y-73478860D01*
X192778691Y-73574402D01*
X192778692Y-73574406D01*
X192810142Y-73678081D01*
X192820761Y-73785900D01*
X192810142Y-73893719D01*
X192786875Y-73970418D01*
X192778691Y-73997398D01*
X192730542Y-74087477D01*
X192727621Y-74092942D01*
X192658890Y-74176690D01*
X192575142Y-74245421D01*
X192575140Y-74245422D01*
X192479598Y-74296491D01*
X192452618Y-74304675D01*
X192375919Y-74327942D01*
X192295118Y-74335900D01*
X190741082Y-74335900D01*
X190660281Y-74327942D01*
X190583582Y-74304675D01*
X190556602Y-74296491D01*
X190461060Y-74245422D01*
X190461058Y-74245421D01*
X190377310Y-74176690D01*
X190308579Y-74092942D01*
X190305658Y-74087477D01*
X190257509Y-73997398D01*
X190249325Y-73970418D01*
X190226058Y-73893719D01*
X190215439Y-73785900D01*
X190226058Y-73678081D01*
X190257508Y-73574406D01*
X190257509Y-73574402D01*
X190308578Y-73478860D01*
X190308579Y-73478858D01*
X190377310Y-73395110D01*
X190461058Y-73326379D01*
X190466523Y-73323458D01*
X190556602Y-73275309D01*
X190583582Y-73267125D01*
X190660281Y-73243858D01*
X190741082Y-73235900D01*
X192295118Y-73235900D01*
X192375919Y-73243858D01*
X192375919Y-73243858D01*
G37*
G36*
X195405919Y-73243858D02*
G01*
X195482618Y-73267125D01*
X195509598Y-73275309D01*
X195599677Y-73323458D01*
X195605142Y-73326379D01*
X195688890Y-73395110D01*
X195757621Y-73478858D01*
X195757622Y-73478860D01*
X195808691Y-73574402D01*
X195808692Y-73574406D01*
X195840142Y-73678081D01*
X195850761Y-73785900D01*
X195840142Y-73893719D01*
X195816875Y-73970418D01*
X195808691Y-73997398D01*
X195760542Y-74087477D01*
X195757621Y-74092942D01*
X195688890Y-74176690D01*
X195605142Y-74245421D01*
X195605140Y-74245422D01*
X195509598Y-74296491D01*
X195482618Y-74304675D01*
X195405919Y-74327942D01*
X195325118Y-74335900D01*
X194471082Y-74335900D01*
X194390281Y-74327942D01*
X194313582Y-74304675D01*
X194286602Y-74296491D01*
X194191060Y-74245422D01*
X194191058Y-74245421D01*
X194107310Y-74176690D01*
X194038579Y-74092942D01*
X194035658Y-74087477D01*
X193987509Y-73997398D01*
X193979325Y-73970418D01*
X193956058Y-73893719D01*
X193945439Y-73785900D01*
X193956058Y-73678081D01*
X193987508Y-73574406D01*
X193987509Y-73574402D01*
X194038578Y-73478860D01*
X194038579Y-73478858D01*
X194107310Y-73395110D01*
X194191058Y-73326379D01*
X194196523Y-73323458D01*
X194286602Y-73275309D01*
X194313582Y-73267125D01*
X194390281Y-73243858D01*
X194471082Y-73235900D01*
X195325118Y-73235900D01*
X195405919Y-73243858D01*
X195405919Y-73243858D01*
G37*
G36*
X85839872Y-62881330D02*
G01*
X86149252Y-63009479D01*
X86427687Y-63195523D01*
X86664477Y-63432313D01*
X86850521Y-63710748D01*
X86978670Y-64020128D01*
X87044000Y-64348565D01*
X87044000Y-64683435D01*
X86978670Y-65011872D01*
X86850521Y-65321252D01*
X86664477Y-65599687D01*
X86427687Y-65836477D01*
X86149252Y-66022521D01*
X85839872Y-66150670D01*
X85511435Y-66216000D01*
X85176565Y-66216000D01*
X84848128Y-66150670D01*
X84538748Y-66022521D01*
X84260313Y-65836477D01*
X84023523Y-65599687D01*
X83837479Y-65321252D01*
X83709330Y-65011872D01*
X83644000Y-64683435D01*
X83644000Y-64348565D01*
X83709330Y-64020128D01*
X83837479Y-63710748D01*
X84023523Y-63432313D01*
X84260313Y-63195523D01*
X84538748Y-63009479D01*
X84848128Y-62881330D01*
X85176565Y-62816000D01*
X85511435Y-62816000D01*
X85839872Y-62881330D01*
X85839872Y-62881330D01*
G37*
G36*
X196075872Y-62881330D02*
G01*
X196385252Y-63009479D01*
X196663687Y-63195523D01*
X196900477Y-63432313D01*
X197086521Y-63710748D01*
X197214670Y-64020128D01*
X197280000Y-64348565D01*
X197280000Y-64683435D01*
X197214670Y-65011872D01*
X197086521Y-65321252D01*
X196900477Y-65599687D01*
X196663687Y-65836477D01*
X196385252Y-66022521D01*
X196075872Y-66150670D01*
X195747435Y-66216000D01*
X195412565Y-66216000D01*
X195084128Y-66150670D01*
X194774748Y-66022521D01*
X194496313Y-65836477D01*
X194259523Y-65599687D01*
X194073479Y-65321252D01*
X193945330Y-65011872D01*
X193880000Y-64683435D01*
X193880000Y-64348565D01*
X193945330Y-64020128D01*
X194073479Y-63710748D01*
X194259523Y-63432313D01*
X194496313Y-63195523D01*
X194774748Y-63009479D01*
X195084128Y-62881330D01*
X195412565Y-62816000D01*
X195747435Y-62816000D01*
X196075872Y-62881330D01*
X196075872Y-62881330D01*
G37*
M02*
