M48
;DRILL file {KiCad 5.0.2+dfsg1-1~bpo9+1} date Mon Sep 23 12:39:53 2019
;FORMAT={-:-/ absolute / metric / decimal}
FMAT,2
METRIC,TZ
T1C0.200
T2C0.400
T3C0.600
T4C0.890
T5C1.500
T6C2.010
%
G90
G05
T1
X123.952Y-103.124
X124.392Y-104.14
X124.841Y-107.061
X124.841Y-107.696
X124.841Y-108.331
X129.794Y-103.124
X130.048Y-104.902
X130.937Y-64.922
X132.207Y-64.935
X132.22Y-70.65
X132.598Y-78.623
X132.806Y-77.313
X133.071Y-79.771
X133.477Y-64.948
X134.62Y-103.886
X134.747Y-64.922
X136.144Y-104.902
X139.822Y-78.623
X141.007Y-79.853
X141.402Y-78.791
X143.954Y-78.945
X144.793Y-77.673
X144.894Y-74.562
X145.694Y-76.162
X145.694Y-77.762
X146.164Y-83.452
X146.494Y-76.962
X146.494Y-80.962
X146.494Y-81.763
X146.533Y-77.775
X146.761Y-73.343
X147.295Y-78.562
X147.295Y-79.362
X147.295Y-81.75
X147.307Y-80.95
X147.32Y-82.537
X148.095Y-75.362
X148.095Y-78.562
X148.107Y-77.762
X148.107Y-80.95
X148.444Y-74.041
X148.819Y-83.528
X148.895Y-80.96
X149.568Y-82.715
X149.695Y-80.162
X149.708Y-78.562
X150.482Y-80.95
X150.495Y-80.162
X150.736Y-66.408
X151.244Y-77.013
X151.27Y-78.588
X151.295Y-76.162
X151.295Y-77.762
X151.295Y-81.763
X151.308Y-75.349
X151.435Y-86.792
X151.867Y-70.637
X152.07Y-76.187
X152.07Y-80.937
X152.095Y-77.762
X152.095Y-80.162
X152.105Y-75.362
X152.718Y-86.792
X152.87Y-75.4
X153.162Y-81.915
X153.518Y-76.657
X153.746Y-86.792
X153.797Y-71.501
X154.762Y-76.27
X154.826Y-81.496
X155.054Y-86.792
X155.181Y-81.902
X156.774Y-69.21
X156.883Y-80.073
X156.997Y-80.747
X156.997Y-81.166
X157.902Y-71.425
X158.049Y-69.149
X159.324Y-69.164
X160.591Y-69.151
X165.1Y-96.647
X165.608Y-96.647
X166.116Y-96.647
X167.005Y-109.855
X170.815Y-111.633
X175.133Y-84.074
X188.087Y-100.711
X189.865Y-102.997
T2
X96.52Y-90.678
X96.52Y-116.84
X97.79Y-90.678
X97.79Y-116.84
X99.06Y-90.678
X99.06Y-91.948
X99.06Y-115.697
X99.06Y-116.967
X100.33Y-90.678
X100.33Y-91.948
X100.33Y-115.697
X100.33Y-116.967
X101.6Y-90.678
X101.6Y-91.948
X101.6Y-115.697
X101.6Y-116.967
X102.87Y-90.678
X102.87Y-91.948
X102.87Y-115.697
X102.87Y-116.967
X104.14Y-90.678
X104.14Y-91.948
X104.14Y-115.697
X104.14Y-116.967
X104.648Y-104.902
X105.41Y-90.678
X105.41Y-91.948
X105.41Y-115.697
X105.41Y-116.967
X106.68Y-90.678
X106.68Y-91.948
X106.68Y-115.697
X106.68Y-116.967
X111.887Y-103.632
X112.014Y-102.108
X112.141Y-106.426
X115.189Y-105.029
X118.11Y-90.678
X118.11Y-91.948
X118.11Y-115.697
X118.11Y-116.967
X119.38Y-90.678
X119.38Y-91.948
X119.38Y-115.697
X119.38Y-116.967
X120.65Y-90.678
X120.65Y-91.948
X120.65Y-115.697
X120.65Y-116.967
X121.92Y-90.678
X121.92Y-91.948
X121.92Y-115.697
X121.92Y-116.967
X122.428Y-103.632
X122.555Y-102.108
X122.682Y-106.426
X123.19Y-90.678
X123.19Y-91.948
X123.19Y-115.697
X123.19Y-116.967
X124.46Y-90.678
X124.46Y-91.948
X124.46Y-115.697
X124.46Y-116.967
X125.222Y-101.727
X125.438Y-79.515
X125.73Y-90.678
X125.73Y-91.948
X125.73Y-115.697
X125.73Y-116.967
X125.781Y-81.09
X126.327Y-103.124
X126.34Y-104.673
X126.619Y-97.663
X127.127Y-103.886
X127.902Y-103.099
X127.902Y-104.661
X128.778Y-110.617
X129.032Y-99.568
X129.413Y-106.68
X129.667Y-64.922
X129.921Y-112.776
X133.985Y-108.839
X135.001Y-108.712
X137.16Y-90.678
X137.16Y-91.948
X137.16Y-115.697
X137.16Y-116.967
X137.541Y-105.029
X138.43Y-90.678
X138.43Y-91.948
X138.43Y-115.697
X138.43Y-116.967
X138.811Y-102.743
X138.811Y-105.156
X139.7Y-90.678
X139.7Y-91.948
X139.7Y-115.697
X139.7Y-116.967
X140.462Y-77.267
X140.97Y-90.678
X140.97Y-91.948
X140.97Y-115.697
X140.97Y-116.967
X141.046Y-72.314
X141.097Y-101.346
X141.097Y-106.68
X142.24Y-90.678
X142.24Y-91.948
X142.24Y-115.697
X142.24Y-116.967
X143.04Y-83.35
X143.358Y-99.771
X143.383Y-101.346
X143.51Y-70.612
X143.51Y-90.678
X143.51Y-91.948
X143.51Y-115.697
X143.51Y-116.967
X143.637Y-109.855
X144.653Y-70.612
X144.78Y-90.678
X144.78Y-91.948
X144.78Y-115.697
X144.78Y-116.967
X144.907Y-106.68
X145.631Y-74.041
X145.669Y-70.612
X146.05Y-90.678
X146.05Y-116.967
X146.177Y-86.83
X146.647Y-72.25
X146.685Y-70.612
X147.218Y-87.744
X147.32Y-90.678
X147.32Y-116.967
X147.663Y-86.754
X148.298Y-87.757
X148.679Y-86.754
X149.352Y-84.455
X149.479Y-114.681
X149.733Y-109.728
X149.835Y-74.066
X149.86Y-62.738
X150.114Y-70.485
X150.495Y-100.457
X153.543Y-115.062
X155.054Y-71.844
X155.194Y-114.427
X155.346Y-100.33
X156.718Y-85.509
X156.731Y-74.447
X156.731Y-75.438
X156.769Y-65.011
X158.026Y-86.677
X158.026Y-87.706
X159.258Y-102.997
X159.258Y-107.442
X160.033Y-65.1
X161.671Y-114.554
X161.671Y-115.443
X161.798Y-100.457
X161.798Y-101.346
X162.687Y-114.554
X162.687Y-115.443
X162.814Y-100.457
X162.814Y-101.346
X163.703Y-114.554
X163.703Y-115.443
X163.83Y-100.457
X163.83Y-101.346
X164.846Y-114.554
X164.846Y-115.443
X165.1Y-100.457
X165.1Y-101.346
X165.862Y-114.554
X165.862Y-115.443
X166.116Y-100.457
X166.116Y-101.346
X166.878Y-114.554
X166.878Y-115.443
X167.005Y-64.516
X167.259Y-100.457
X167.259Y-101.346
X168.021Y-110.49
X168.021Y-111.379
X168.021Y-112.268
X169.037Y-110.49
X169.037Y-111.379
X169.037Y-112.268
X169.672Y-106.68
X169.672Y-107.95
X169.672Y-109.22
X170.815Y-105.41
X170.815Y-106.68
X170.815Y-107.95
X170.815Y-109.22
X170.942Y-66.675
X170.942Y-67.564
X170.942Y-68.453
X170.942Y-69.977
X170.942Y-70.866
X171.958Y-66.675
X171.958Y-67.564
X171.958Y-68.453
X171.958Y-69.977
X171.958Y-70.866
X172.085Y-105.41
X172.085Y-106.68
X172.085Y-107.95
X172.085Y-109.22
X172.72Y-94.869
X172.72Y-95.758
X173.482Y-105.41
X173.482Y-106.68
X173.482Y-107.95
X173.482Y-109.22
X173.99Y-96.393
X174.752Y-105.41
X174.752Y-106.68
X174.752Y-107.95
X174.752Y-109.22
X175.26Y-96.393
X176.022Y-105.41
X176.022Y-106.68
X176.149Y-65.151
X176.149Y-69.977
X176.149Y-70.866
X176.911Y-65.659
X177.165Y-69.977
X177.165Y-70.866
X177.165Y-96.393
X177.292Y-67.31
X177.292Y-68.326
X177.292Y-105.41
X177.292Y-106.68
X177.8Y-65.151
X178.308Y-67.31
X178.308Y-68.326
X178.435Y-96.393
X178.475Y-74.825
X178.5Y-81.4
X178.562Y-65.659
X178.816Y-115.316
X178.816Y-116.459
X179.324Y-65.151
X179.385Y-69.596
X179.832Y-95.123
X179.832Y-96.266
X180.213Y-115.316
X180.848Y-94.361
X180.848Y-95.377
X181.356Y-69.977
X181.356Y-115.316
X181.61Y-85.598
X181.991Y-94.234
X181.991Y-95.377
X182.118Y-66.675
X182.118Y-67.564
X182.245Y-68.453
X183.134Y-66.675
X183.134Y-67.564
X183.134Y-68.453
X183.134Y-94.234
X183.134Y-95.377
X183.388Y-115.316
X184.277Y-94.234
X184.277Y-95.377
X184.531Y-115.316
X185.293Y-75.565
X186.309Y-102.743
X186.309Y-104.267
X187.833Y-102.743
X187.833Y-104.267
X188.087Y-94.234
X188.087Y-95.377
X188.849Y-97.536
X188.849Y-98.552
X188.849Y-99.568
X189.23Y-94.234
X189.23Y-95.377
X189.865Y-97.536
X189.865Y-98.552
X189.865Y-99.568
X189.865Y-100.584
X190.373Y-94.234
X190.373Y-95.377
X191.516Y-94.234
X191.516Y-95.377
X191.897Y-103.886
X191.897Y-104.902
X192.151Y-96.393
X192.786Y-94.234
X192.786Y-95.377
X193.421Y-96.393
X193.929Y-94.234
X193.929Y-95.377
X195.199Y-94.742
X195.199Y-95.885
X195.199Y-97.155
X195.199Y-98.298
X195.199Y-99.441
X195.199Y-100.584
X197.104Y-105.918
X197.739Y-102.997
X197.739Y-104.013
X197.739Y-105.029
X198.628Y-102.997
X198.628Y-104.013
X198.628Y-105.029
X190.538Y-75.136
X190.538Y-75.986
X190.538Y-76.836
X190.538Y-77.686
X190.538Y-78.536
X190.538Y-79.386
X190.538Y-80.236
X190.538Y-81.086
X191.888Y-75.136
X191.888Y-75.986
X191.888Y-76.836
X191.888Y-77.686
X191.888Y-78.536
X191.888Y-79.386
X191.888Y-80.236
X191.888Y-81.086
T4
X93.853Y-102.616
X93.853Y-105.156
T5
X163.703Y-105.664
X126.873Y-73.406
X120.523Y-113.157
X181.737Y-90.678
T6
X88.773Y-97.536
X88.773Y-107.696
T3
X190.768Y-73.786G85X192.268Y-73.786
G05
X190.768Y-82.436G85X192.268Y-82.436
G05
X194.498Y-73.786G85X195.298Y-73.786
G05
X194.498Y-82.436G85X195.298Y-82.436
G05
T0
M30
