M48
; DRILL file {KiCad 5.1.4-e60b266~84~ubuntu19.04.1} date Pá 11. října 2019, 16:28:24 CEST
; FORMAT={-:-/ absolute / inch / decimal}
; #@! TF.CreationDate,2019-10-11T16:28:24+02:00
; #@! TF.GenerationSoftware,Kicad,Pcbnew,5.1.4-e60b266~84~ubuntu19.04.1
; #@! TF.FileFunction,Plated,1,4,PTH
FMAT,2
INCH
T1C0.0079
T2C0.0157
T3C0.0236
T4C0.0350
T5C0.0591
T6C0.0791
%
G90
G05
T1
X4.88Y-4.06
X4.8973Y-4.1
X4.915Y-4.215
X4.915Y-4.24
X4.915Y-4.265
X5.11Y-4.06
X5.12Y-4.13
X5.155Y-2.556
X5.205Y-2.5565
X5.2055Y-2.7815
X5.2204Y-3.0954
X5.2286Y-3.0438
X5.239Y-3.1406
X5.255Y-2.557
X5.3Y-4.09
X5.305Y-2.556
X5.36Y-4.13
X5.5048Y-3.0954
X5.5515Y-3.1438
X5.567Y-3.102
X5.6675Y-3.1081
X5.7005Y-3.058
X5.7045Y-2.9355
X5.736Y-2.9985
X5.736Y-3.0615
X5.7545Y-3.2855
X5.7675Y-3.03
X5.7675Y-3.1875
X5.7675Y-3.219
X5.769Y-3.062
X5.778Y-2.8875
X5.799Y-3.093
X5.799Y-3.1245
X5.799Y-3.2185
X5.7995Y-3.187
X5.8Y-3.2495
X5.8305Y-2.967
X5.8305Y-3.093
X5.831Y-3.0615
X5.831Y-3.187
X5.8442Y-2.915
X5.859Y-3.2885
X5.862Y-3.1874
X5.8885Y-3.2565
X5.8935Y-3.156
X5.894Y-3.093
X5.9245Y-3.187
X5.925Y-3.156
X5.9345Y-2.6145
X5.9545Y-3.032
X5.9555Y-3.094
X5.9565Y-2.9985
X5.9565Y-3.0615
X5.9565Y-3.219
X5.957Y-2.9665
X5.962Y-3.417
X5.979Y-2.781
X5.987Y-2.9995
X5.987Y-3.1865
X5.988Y-3.0615
X5.988Y-3.156
X5.9884Y-2.967
X6.0125Y-3.417
X6.0185Y-2.9685
X6.03Y-3.225
X6.044Y-3.018
X6.053Y-3.417
X6.055Y-2.815
X6.093Y-3.0027
X6.0955Y-3.2085
X6.1045Y-3.417
X6.1095Y-3.2245
X6.1722Y-2.7248
X6.1765Y-3.1525
X6.181Y-3.179
X6.181Y-3.1955
X6.2166Y-2.812
X6.2224Y-2.7224
X6.2726Y-2.723
X6.3225Y-2.7225
X6.5Y-3.805
X6.52Y-3.805
X6.54Y-3.805
X6.575Y-4.325
X6.725Y-4.395
X6.895Y-3.31
X7.405Y-3.965
X7.475Y-4.055
T2
X3.8Y-3.57
X3.8Y-4.6
X3.85Y-3.57
X3.85Y-4.6
X3.9Y-3.57
X3.9Y-3.62
X3.9Y-4.555
X3.9Y-4.605
X3.95Y-3.57
X3.95Y-3.62
X3.95Y-4.555
X3.95Y-4.605
X4.0Y-3.57
X4.0Y-3.62
X4.0Y-4.555
X4.0Y-4.605
X4.05Y-3.57
X4.05Y-3.62
X4.05Y-4.555
X4.05Y-4.605
X4.1Y-3.57
X4.1Y-3.62
X4.1Y-4.555
X4.1Y-4.605
X4.12Y-4.13
X4.15Y-3.57
X4.15Y-3.62
X4.15Y-4.555
X4.15Y-4.605
X4.2Y-3.57
X4.2Y-3.62
X4.2Y-4.555
X4.2Y-4.605
X4.405Y-4.08
X4.41Y-4.02
X4.415Y-4.19
X4.535Y-4.135
X4.65Y-3.57
X4.65Y-3.62
X4.65Y-4.555
X4.65Y-4.605
X4.7Y-3.57
X4.7Y-3.62
X4.7Y-4.555
X4.7Y-4.605
X4.75Y-3.57
X4.75Y-3.62
X4.75Y-4.555
X4.75Y-4.605
X4.8Y-3.57
X4.8Y-3.62
X4.8Y-4.555
X4.8Y-4.605
X4.82Y-4.08
X4.825Y-4.02
X4.83Y-4.19
X4.85Y-3.57
X4.85Y-3.62
X4.85Y-4.555
X4.85Y-4.605
X4.9Y-3.57
X4.9Y-3.62
X4.9Y-4.555
X4.9Y-4.605
X4.93Y-4.005
X4.9385Y-3.1305
X4.95Y-3.57
X4.95Y-3.62
X4.95Y-4.555
X4.95Y-4.605
X4.952Y-3.1925
X4.9735Y-4.06
X4.974Y-4.121
X4.985Y-3.845
X5.005Y-4.09
X5.0355Y-4.059
X5.0355Y-4.1205
X5.07Y-4.355
X5.08Y-3.92
X5.095Y-4.2
X5.105Y-2.556
X5.115Y-4.44
X5.275Y-4.285
X5.315Y-4.28
X5.4Y-3.57
X5.4Y-3.62
X5.4Y-4.555
X5.4Y-4.605
X5.415Y-4.135
X5.45Y-3.47
X5.45Y-3.57
X5.45Y-3.62
X5.45Y-4.555
X5.45Y-4.605
X5.465Y-4.045
X5.465Y-4.14
X5.5Y-3.57
X5.5Y-3.62
X5.5Y-4.555
X5.5Y-4.605
X5.53Y-3.042
X5.55Y-3.57
X5.55Y-3.62
X5.55Y-4.555
X5.55Y-4.605
X5.553Y-2.847
X5.555Y-3.99
X5.555Y-4.2
X5.6Y-3.57
X5.6Y-3.62
X5.6Y-4.555
X5.6Y-4.605
X5.6315Y-3.2815
X5.644Y-3.928
X5.645Y-3.99
X5.65Y-2.78
X5.65Y-3.57
X5.65Y-3.62
X5.65Y-4.555
X5.65Y-4.605
X5.655Y-4.325
X5.695Y-2.78
X5.7Y-3.57
X5.7Y-3.62
X5.7Y-4.555
X5.7Y-4.605
X5.705Y-4.2
X5.7335Y-2.915
X5.735Y-2.78
X5.75Y-3.57
X5.75Y-4.605
X5.755Y-3.4185
X5.7735Y-2.8445
X5.775Y-2.78
X5.796Y-3.4545
X5.8Y-3.57
X5.8Y-4.605
X5.8135Y-3.4155
X5.8385Y-3.455
X5.8535Y-3.4155
X5.88Y-3.325
X5.885Y-4.515
X5.895Y-4.32
X5.899Y-2.916
X5.9Y-2.47
X5.91Y-2.775
X5.925Y-3.955
X6.045Y-4.53
X6.1045Y-2.8285
X6.11Y-4.505
X6.116Y-3.95
X6.17Y-3.3665
X6.1705Y-2.931
X6.1705Y-2.97
X6.172Y-2.5595
X6.2215Y-3.4125
X6.2215Y-3.453
X6.27Y-4.055
X6.27Y-4.23
X6.3005Y-2.563
X6.365Y-4.51
X6.365Y-4.545
X6.37Y-3.955
X6.37Y-3.99
X6.405Y-4.51
X6.405Y-4.545
X6.41Y-3.955
X6.41Y-3.99
X6.445Y-4.51
X6.445Y-4.545
X6.45Y-3.955
X6.45Y-3.99
X6.49Y-4.51
X6.49Y-4.545
X6.5Y-3.955
X6.5Y-3.99
X6.53Y-4.51
X6.53Y-4.545
X6.54Y-3.955
X6.54Y-3.99
X6.57Y-4.51
X6.57Y-4.545
X6.575Y-2.54
X6.585Y-3.955
X6.585Y-3.99
X6.615Y-4.35
X6.615Y-4.385
X6.615Y-4.42
X6.655Y-4.35
X6.655Y-4.385
X6.655Y-4.42
X6.68Y-4.2
X6.68Y-4.25
X6.68Y-4.3
X6.725Y-4.15
X6.725Y-4.2
X6.725Y-4.25
X6.725Y-4.3
X6.73Y-2.625
X6.73Y-2.66
X6.73Y-2.695
X6.73Y-2.755
X6.73Y-2.79
X6.77Y-2.625
X6.77Y-2.66
X6.77Y-2.695
X6.77Y-2.755
X6.77Y-2.79
X6.775Y-4.15
X6.775Y-4.2
X6.775Y-4.25
X6.775Y-4.3
X6.8Y-3.735
X6.8Y-3.77
X6.83Y-4.15
X6.83Y-4.2
X6.83Y-4.25
X6.83Y-4.3
X6.85Y-3.795
X6.88Y-4.15
X6.88Y-4.2
X6.88Y-4.25
X6.88Y-4.3
X6.9Y-3.795
X6.93Y-4.15
X6.93Y-4.2
X6.935Y-2.565
X6.935Y-2.755
X6.935Y-2.79
X6.965Y-2.585
X6.975Y-2.755
X6.975Y-2.79
X6.975Y-3.795
X6.98Y-2.65
X6.98Y-2.69
X6.98Y-4.15
X6.98Y-4.2
X7.0Y-2.565
X7.02Y-2.65
X7.02Y-2.69
X7.025Y-3.795
X7.0266Y-2.9459
X7.0276Y-3.2047
X7.03Y-2.585
X7.04Y-4.54
X7.04Y-4.585
X7.06Y-2.565
X7.0624Y-2.74
X7.08Y-3.745
X7.08Y-3.79
X7.095Y-4.54
X7.12Y-3.715
X7.12Y-3.755
X7.14Y-2.755
X7.14Y-4.54
X7.15Y-3.37
X7.165Y-3.71
X7.165Y-3.755
X7.17Y-2.625
X7.17Y-2.66
X7.175Y-2.695
X7.21Y-2.625
X7.21Y-2.66
X7.21Y-2.695
X7.21Y-3.71
X7.21Y-3.755
X7.22Y-4.54
X7.255Y-3.71
X7.255Y-3.755
X7.265Y-4.54
X7.295Y-2.975
X7.335Y-4.045
X7.335Y-4.105
X7.395Y-4.045
X7.395Y-4.105
X7.405Y-3.71
X7.405Y-3.755
X7.435Y-3.84
X7.435Y-3.88
X7.435Y-3.92
X7.45Y-3.71
X7.45Y-3.755
X7.475Y-3.84
X7.475Y-3.88
X7.475Y-3.92
X7.475Y-3.96
X7.495Y-3.71
X7.495Y-3.755
X7.54Y-3.71
X7.54Y-3.755
X7.555Y-4.09
X7.555Y-4.13
X7.565Y-3.795
X7.59Y-3.71
X7.59Y-3.755
X7.615Y-3.795
X7.635Y-3.71
X7.635Y-3.755
X7.685Y-3.73
X7.685Y-3.775
X7.685Y-3.825
X7.685Y-3.87
X7.685Y-3.915
X7.685Y-3.96
X7.76Y-4.17
X7.785Y-4.055
X7.785Y-4.095
X7.785Y-4.135
X7.82Y-4.055
X7.82Y-4.095
X7.82Y-4.135
X7.5015Y-2.9581
X7.5015Y-2.9916
X7.5015Y-3.025
X7.5015Y-3.0585
X7.5015Y-3.092
X7.5015Y-3.1254
X7.5015Y-3.1589
X7.5015Y-3.1924
X7.5546Y-2.9581
X7.5546Y-2.9916
X7.5546Y-3.025
X7.5546Y-3.0585
X7.5546Y-3.092
X7.5546Y-3.1254
X7.5546Y-3.1589
X7.5546Y-3.1924
T4
X3.695Y-4.04
X3.695Y-4.14
T5
X4.745Y-4.455
X7.155Y-3.57
X6.445Y-4.16
X4.995Y-2.89
T6
X3.495Y-3.84
X3.495Y-4.24
T3
G00X7.5106Y-2.905
M15
G01X7.5696Y-2.905
M16
G05
G00X7.5106Y-3.2455
M15
G01X7.5696Y-3.2455
M16
G05
G00X7.6574Y-2.905
M15
G01X7.6889Y-2.905
M16
G05
G00X7.6574Y-3.2455
M15
G01X7.6889Y-3.2455
M16
G05
T0
M30
