G04 #@! TF.GenerationSoftware,KiCad,Pcbnew,5.0.2+dfsg1-1~bpo9+1*
G04 #@! TF.CreationDate,2019-09-23T12:40:00+02:00*
G04 #@! TF.ProjectId,EmLab_Amp,456d4c61-625f-4416-9d70-2e6b69636164,2*
G04 #@! TF.SameCoordinates,Original*
G04 #@! TF.FileFunction,Soldermask,Bot*
G04 #@! TF.FilePolarity,Negative*
%FSLAX46Y46*%
G04 Gerber Fmt 4.6, Leading zero omitted, Abs format (unit mm)*
G04 Created by KiCad (PCBNEW 5.0.2+dfsg1-1~bpo9+1) date Mon Sep 23 12:40:00 2019*
%MOMM*%
%LPD*%
G01*
G04 APERTURE LIST*
%ADD10C,0.100000*%
G04 APERTURE END LIST*
D10*
G36*
X120835145Y-111587744D02*
X120989704Y-111618487D01*
X121280884Y-111739098D01*
X121542941Y-111914198D01*
X121765802Y-112137059D01*
X121940902Y-112399116D01*
X122061513Y-112690296D01*
X122123000Y-112999415D01*
X122123000Y-113314585D01*
X122061513Y-113623704D01*
X121940902Y-113914884D01*
X121765802Y-114176941D01*
X121542941Y-114399802D01*
X121280884Y-114574902D01*
X120989704Y-114695513D01*
X120835145Y-114726256D01*
X120680586Y-114757000D01*
X120365414Y-114757000D01*
X120210855Y-114726256D01*
X120056296Y-114695513D01*
X119765116Y-114574902D01*
X119503059Y-114399802D01*
X119280198Y-114176941D01*
X119105098Y-113914884D01*
X118984487Y-113623704D01*
X118923000Y-113314585D01*
X118923000Y-112999415D01*
X118984487Y-112690296D01*
X119105098Y-112399116D01*
X119280198Y-112137059D01*
X119503059Y-111914198D01*
X119765116Y-111739098D01*
X120056296Y-111618487D01*
X120210855Y-111587744D01*
X120365414Y-111557000D01*
X120680586Y-111557000D01*
X120835145Y-111587744D01*
X120835145Y-111587744D01*
G37*
G36*
X89102570Y-106283149D02*
X89195950Y-106301723D01*
X89459832Y-106411026D01*
X89697321Y-106569711D01*
X89899289Y-106771679D01*
X90057974Y-107009168D01*
X90167277Y-107273050D01*
X90223000Y-107553189D01*
X90223000Y-107838811D01*
X90167277Y-108118950D01*
X90057974Y-108382832D01*
X89899289Y-108620321D01*
X89697321Y-108822289D01*
X89459832Y-108980974D01*
X89195950Y-109090277D01*
X89102570Y-109108851D01*
X88915813Y-109146000D01*
X88630187Y-109146000D01*
X88443430Y-109108851D01*
X88350050Y-109090277D01*
X88086168Y-108980974D01*
X87848679Y-108822289D01*
X87646711Y-108620321D01*
X87488026Y-108382832D01*
X87378723Y-108118950D01*
X87323000Y-107838811D01*
X87323000Y-107553189D01*
X87378723Y-107273050D01*
X87488026Y-107009168D01*
X87646711Y-106771679D01*
X87848679Y-106569711D01*
X88086168Y-106411026D01*
X88350050Y-106301723D01*
X88443430Y-106283149D01*
X88630187Y-106246000D01*
X88915813Y-106246000D01*
X89102570Y-106283149D01*
X89102570Y-106283149D01*
G37*
G36*
X164015145Y-104094744D02*
X164169704Y-104125487D01*
X164460884Y-104246098D01*
X164722941Y-104421198D01*
X164945802Y-104644059D01*
X165120902Y-104906116D01*
X165241513Y-105197296D01*
X165303000Y-105506415D01*
X165303000Y-105821585D01*
X165241513Y-106130704D01*
X165120902Y-106421884D01*
X164945802Y-106683941D01*
X164722941Y-106906802D01*
X164460884Y-107081902D01*
X164169704Y-107202513D01*
X164015145Y-107233256D01*
X163860586Y-107264000D01*
X163545414Y-107264000D01*
X163390855Y-107233256D01*
X163236296Y-107202513D01*
X162945116Y-107081902D01*
X162683059Y-106906802D01*
X162460198Y-106683941D01*
X162285098Y-106421884D01*
X162164487Y-106130704D01*
X162103000Y-105821585D01*
X162103000Y-105506415D01*
X162164487Y-105197296D01*
X162285098Y-104906116D01*
X162460198Y-104644059D01*
X162683059Y-104421198D01*
X162945116Y-104246098D01*
X163236296Y-104125487D01*
X163390855Y-104094744D01*
X163545414Y-104064000D01*
X163860586Y-104064000D01*
X164015145Y-104094744D01*
X164015145Y-104094744D01*
G37*
G36*
X94115521Y-104290586D02*
X94279310Y-104358430D01*
X94426717Y-104456924D01*
X94552076Y-104582283D01*
X94650570Y-104729690D01*
X94718414Y-104893479D01*
X94753000Y-105067358D01*
X94753000Y-105244642D01*
X94718414Y-105418521D01*
X94650570Y-105582310D01*
X94552076Y-105729717D01*
X94426717Y-105855076D01*
X94279310Y-105953570D01*
X94115521Y-106021414D01*
X93941642Y-106056000D01*
X93764358Y-106056000D01*
X93590479Y-106021414D01*
X93426690Y-105953570D01*
X93279283Y-105855076D01*
X93153924Y-105729717D01*
X93055430Y-105582310D01*
X92987586Y-105418521D01*
X92953000Y-105244642D01*
X92953000Y-105067358D01*
X92987586Y-104893479D01*
X93055430Y-104729690D01*
X93153924Y-104582283D01*
X93279283Y-104456924D01*
X93426690Y-104358430D01*
X93590479Y-104290586D01*
X93764358Y-104256000D01*
X93941642Y-104256000D01*
X94115521Y-104290586D01*
X94115521Y-104290586D01*
G37*
G36*
X94115521Y-101750586D02*
X94279310Y-101818430D01*
X94426717Y-101916924D01*
X94552076Y-102042283D01*
X94650570Y-102189690D01*
X94718414Y-102353479D01*
X94753000Y-102527358D01*
X94753000Y-102704642D01*
X94718414Y-102878521D01*
X94650570Y-103042310D01*
X94552076Y-103189717D01*
X94426717Y-103315076D01*
X94279310Y-103413570D01*
X94115521Y-103481414D01*
X93941642Y-103516000D01*
X93764358Y-103516000D01*
X93590479Y-103481414D01*
X93426690Y-103413570D01*
X93279283Y-103315076D01*
X93153924Y-103189717D01*
X93055430Y-103042310D01*
X92987586Y-102878521D01*
X92953000Y-102704642D01*
X92953000Y-102527358D01*
X92987586Y-102353479D01*
X93055430Y-102189690D01*
X93153924Y-102042283D01*
X93279283Y-101916924D01*
X93426690Y-101818430D01*
X93590479Y-101750586D01*
X93764358Y-101716000D01*
X93941642Y-101716000D01*
X94115521Y-101750586D01*
X94115521Y-101750586D01*
G37*
G36*
X89102570Y-96123149D02*
X89195950Y-96141723D01*
X89459832Y-96251026D01*
X89697321Y-96409711D01*
X89899289Y-96611679D01*
X90057974Y-96849168D01*
X90167277Y-97113050D01*
X90223000Y-97393189D01*
X90223000Y-97678811D01*
X90167277Y-97958950D01*
X90057974Y-98222832D01*
X89899289Y-98460321D01*
X89697321Y-98662289D01*
X89459832Y-98820974D01*
X89195950Y-98930277D01*
X89102570Y-98948851D01*
X88915813Y-98986000D01*
X88630187Y-98986000D01*
X88443430Y-98948851D01*
X88350050Y-98930277D01*
X88086168Y-98820974D01*
X87848679Y-98662289D01*
X87646711Y-98460321D01*
X87488026Y-98222832D01*
X87378723Y-97958950D01*
X87323000Y-97678811D01*
X87323000Y-97393189D01*
X87378723Y-97113050D01*
X87488026Y-96849168D01*
X87646711Y-96611679D01*
X87848679Y-96409711D01*
X88086168Y-96251026D01*
X88350050Y-96141723D01*
X88443430Y-96123149D01*
X88630187Y-96086000D01*
X88915813Y-96086000D01*
X89102570Y-96123149D01*
X89102570Y-96123149D01*
G37*
G36*
X182049144Y-89108743D02*
X182203704Y-89139487D01*
X182494884Y-89260098D01*
X182756941Y-89435198D01*
X182979802Y-89658059D01*
X183154902Y-89920116D01*
X183275513Y-90211296D01*
X183337000Y-90520415D01*
X183337000Y-90835585D01*
X183275513Y-91144704D01*
X183154902Y-91435884D01*
X182979802Y-91697941D01*
X182756941Y-91920802D01*
X182494884Y-92095902D01*
X182203704Y-92216513D01*
X182049145Y-92247256D01*
X181894586Y-92278000D01*
X181579414Y-92278000D01*
X181424856Y-92247257D01*
X181270296Y-92216513D01*
X180979116Y-92095902D01*
X180717059Y-91920802D01*
X180494198Y-91697941D01*
X180319098Y-91435884D01*
X180198487Y-91144704D01*
X180137000Y-90835585D01*
X180137000Y-90520415D01*
X180198487Y-90211296D01*
X180319098Y-89920116D01*
X180494198Y-89658059D01*
X180717059Y-89435198D01*
X180979116Y-89260098D01*
X181270296Y-89139487D01*
X181424856Y-89108743D01*
X181579414Y-89078000D01*
X181894586Y-89078000D01*
X182049144Y-89108743D01*
X182049144Y-89108743D01*
G37*
G36*
X195405919Y-81893858D02*
X195475036Y-81914825D01*
X195509595Y-81925308D01*
X195605142Y-81976379D01*
X195688890Y-82045110D01*
X195757621Y-82128858D01*
X195808692Y-82224405D01*
X195808692Y-82224406D01*
X195840142Y-82328081D01*
X195850761Y-82435900D01*
X195840142Y-82543719D01*
X195819175Y-82612836D01*
X195808692Y-82647395D01*
X195757621Y-82742942D01*
X195688890Y-82826690D01*
X195605142Y-82895421D01*
X195509595Y-82946492D01*
X195475036Y-82956975D01*
X195405919Y-82977942D01*
X195325118Y-82985900D01*
X194471082Y-82985900D01*
X194390281Y-82977942D01*
X194321164Y-82956975D01*
X194286605Y-82946492D01*
X194191058Y-82895421D01*
X194107310Y-82826690D01*
X194038579Y-82742942D01*
X193987508Y-82647395D01*
X193977025Y-82612836D01*
X193956058Y-82543719D01*
X193945439Y-82435900D01*
X193956058Y-82328081D01*
X193987508Y-82224406D01*
X193987508Y-82224405D01*
X194038579Y-82128858D01*
X194107310Y-82045110D01*
X194191058Y-81976379D01*
X194286605Y-81925308D01*
X194321164Y-81914825D01*
X194390281Y-81893858D01*
X194471082Y-81885900D01*
X195325118Y-81885900D01*
X195405919Y-81893858D01*
X195405919Y-81893858D01*
G37*
G36*
X192375919Y-81893858D02*
X192445036Y-81914825D01*
X192479595Y-81925308D01*
X192575142Y-81976379D01*
X192658890Y-82045110D01*
X192727621Y-82128858D01*
X192778692Y-82224405D01*
X192778692Y-82224406D01*
X192810142Y-82328081D01*
X192820761Y-82435900D01*
X192810142Y-82543719D01*
X192789175Y-82612836D01*
X192778692Y-82647395D01*
X192727621Y-82742942D01*
X192658890Y-82826690D01*
X192575142Y-82895421D01*
X192479595Y-82946492D01*
X192445036Y-82956975D01*
X192375919Y-82977942D01*
X192295118Y-82985900D01*
X190741082Y-82985900D01*
X190660281Y-82977942D01*
X190591164Y-82956975D01*
X190556605Y-82946492D01*
X190461058Y-82895421D01*
X190377310Y-82826690D01*
X190308579Y-82742942D01*
X190257508Y-82647395D01*
X190247025Y-82612836D01*
X190226058Y-82543719D01*
X190215439Y-82435900D01*
X190226058Y-82328081D01*
X190257508Y-82224406D01*
X190257508Y-82224405D01*
X190308579Y-82128858D01*
X190377310Y-82045110D01*
X190461058Y-81976379D01*
X190556605Y-81925308D01*
X190591164Y-81914825D01*
X190660281Y-81893858D01*
X190741082Y-81885900D01*
X192295118Y-81885900D01*
X192375919Y-81893858D01*
X192375919Y-81893858D01*
G37*
G36*
X190625890Y-74694547D02*
X190669361Y-74703194D01*
X190751255Y-74737115D01*
X190824958Y-74786362D01*
X190887638Y-74849042D01*
X190936885Y-74922745D01*
X190970806Y-75004639D01*
X190988100Y-75091580D01*
X190988100Y-75180220D01*
X190970806Y-75267161D01*
X190936885Y-75349055D01*
X190887638Y-75422758D01*
X190824958Y-75485438D01*
X190805350Y-75498540D01*
X190793984Y-75507868D01*
X190784657Y-75519233D01*
X190777727Y-75532199D01*
X190773459Y-75546269D01*
X190772018Y-75560901D01*
X190773459Y-75575533D01*
X190777727Y-75589602D01*
X190784658Y-75602568D01*
X190793986Y-75613934D01*
X190805350Y-75623260D01*
X190824958Y-75636362D01*
X190887638Y-75699042D01*
X190936885Y-75772745D01*
X190970806Y-75854639D01*
X190988100Y-75941580D01*
X190988100Y-76030220D01*
X190970806Y-76117161D01*
X190936885Y-76199055D01*
X190887638Y-76272758D01*
X190824958Y-76335438D01*
X190805350Y-76348540D01*
X190793984Y-76357868D01*
X190784657Y-76369233D01*
X190777727Y-76382199D01*
X190773459Y-76396269D01*
X190772018Y-76410901D01*
X190773459Y-76425533D01*
X190777727Y-76439602D01*
X190784658Y-76452568D01*
X190793986Y-76463934D01*
X190805350Y-76473260D01*
X190824958Y-76486362D01*
X190887638Y-76549042D01*
X190936885Y-76622745D01*
X190970806Y-76704639D01*
X190988100Y-76791580D01*
X190988100Y-76880220D01*
X190970806Y-76967161D01*
X190936885Y-77049055D01*
X190887638Y-77122758D01*
X190824958Y-77185438D01*
X190805350Y-77198540D01*
X190793984Y-77207868D01*
X190784657Y-77219233D01*
X190777727Y-77232199D01*
X190773459Y-77246269D01*
X190772018Y-77260901D01*
X190773459Y-77275533D01*
X190777727Y-77289602D01*
X190784658Y-77302568D01*
X190793986Y-77313934D01*
X190805350Y-77323260D01*
X190824958Y-77336362D01*
X190887638Y-77399042D01*
X190936885Y-77472745D01*
X190970806Y-77554639D01*
X190988100Y-77641580D01*
X190988100Y-77730220D01*
X190970806Y-77817161D01*
X190936885Y-77899055D01*
X190887638Y-77972758D01*
X190824958Y-78035438D01*
X190805350Y-78048540D01*
X190793984Y-78057868D01*
X190784657Y-78069233D01*
X190777727Y-78082199D01*
X190773459Y-78096269D01*
X190772018Y-78110901D01*
X190773459Y-78125533D01*
X190777727Y-78139602D01*
X190784658Y-78152568D01*
X190793986Y-78163934D01*
X190805350Y-78173260D01*
X190824958Y-78186362D01*
X190887638Y-78249042D01*
X190936885Y-78322745D01*
X190970806Y-78404639D01*
X190988100Y-78491580D01*
X190988100Y-78580220D01*
X190970806Y-78667161D01*
X190936885Y-78749055D01*
X190887638Y-78822758D01*
X190824958Y-78885438D01*
X190805350Y-78898540D01*
X190793984Y-78907868D01*
X190784657Y-78919233D01*
X190777727Y-78932199D01*
X190773459Y-78946269D01*
X190772018Y-78960901D01*
X190773459Y-78975533D01*
X190777727Y-78989602D01*
X190784658Y-79002568D01*
X190793986Y-79013934D01*
X190805350Y-79023260D01*
X190824958Y-79036362D01*
X190887638Y-79099042D01*
X190936885Y-79172745D01*
X190970806Y-79254639D01*
X190988100Y-79341580D01*
X190988100Y-79430220D01*
X190970806Y-79517161D01*
X190936885Y-79599055D01*
X190887638Y-79672758D01*
X190824958Y-79735438D01*
X190805350Y-79748540D01*
X190793984Y-79757868D01*
X190784657Y-79769233D01*
X190777727Y-79782199D01*
X190773459Y-79796269D01*
X190772018Y-79810901D01*
X190773459Y-79825533D01*
X190777727Y-79839602D01*
X190784658Y-79852568D01*
X190793986Y-79863934D01*
X190805350Y-79873260D01*
X190824958Y-79886362D01*
X190887638Y-79949042D01*
X190936885Y-80022745D01*
X190970806Y-80104639D01*
X190988100Y-80191580D01*
X190988100Y-80280220D01*
X190970806Y-80367161D01*
X190936885Y-80449055D01*
X190887638Y-80522758D01*
X190824958Y-80585438D01*
X190805350Y-80598540D01*
X190793984Y-80607868D01*
X190784657Y-80619233D01*
X190777727Y-80632199D01*
X190773459Y-80646269D01*
X190772018Y-80660901D01*
X190773459Y-80675533D01*
X190777727Y-80689602D01*
X190784658Y-80702568D01*
X190793986Y-80713934D01*
X190805350Y-80723260D01*
X190824958Y-80736362D01*
X190887638Y-80799042D01*
X190936885Y-80872745D01*
X190970806Y-80954639D01*
X190988100Y-81041580D01*
X190988100Y-81130220D01*
X190970806Y-81217161D01*
X190936885Y-81299055D01*
X190887638Y-81372758D01*
X190824958Y-81435438D01*
X190751255Y-81484685D01*
X190669361Y-81518606D01*
X190582421Y-81535900D01*
X190493779Y-81535900D01*
X190406839Y-81518606D01*
X190324945Y-81484685D01*
X190251242Y-81435438D01*
X190188562Y-81372758D01*
X190139315Y-81299055D01*
X190105394Y-81217161D01*
X190088100Y-81130220D01*
X190088100Y-81041580D01*
X190105394Y-80954639D01*
X190139315Y-80872745D01*
X190188562Y-80799042D01*
X190251242Y-80736362D01*
X190270850Y-80723260D01*
X190282216Y-80713932D01*
X190291543Y-80702567D01*
X190298473Y-80689601D01*
X190302741Y-80675531D01*
X190304182Y-80660899D01*
X190302741Y-80646267D01*
X190298473Y-80632198D01*
X190291542Y-80619232D01*
X190282214Y-80607866D01*
X190270850Y-80598540D01*
X190251242Y-80585438D01*
X190188562Y-80522758D01*
X190139315Y-80449055D01*
X190105394Y-80367161D01*
X190088100Y-80280220D01*
X190088100Y-80191580D01*
X190105394Y-80104639D01*
X190139315Y-80022745D01*
X190188562Y-79949042D01*
X190251242Y-79886362D01*
X190270850Y-79873260D01*
X190282216Y-79863932D01*
X190291543Y-79852567D01*
X190298473Y-79839601D01*
X190302741Y-79825531D01*
X190304182Y-79810899D01*
X190302741Y-79796267D01*
X190298473Y-79782198D01*
X190291542Y-79769232D01*
X190282214Y-79757866D01*
X190270850Y-79748540D01*
X190251242Y-79735438D01*
X190188562Y-79672758D01*
X190139315Y-79599055D01*
X190105394Y-79517161D01*
X190088100Y-79430220D01*
X190088100Y-79341580D01*
X190105394Y-79254639D01*
X190139315Y-79172745D01*
X190188562Y-79099042D01*
X190251242Y-79036362D01*
X190270850Y-79023260D01*
X190282216Y-79013932D01*
X190291543Y-79002567D01*
X190298473Y-78989601D01*
X190302741Y-78975531D01*
X190304182Y-78960899D01*
X190302741Y-78946267D01*
X190298473Y-78932198D01*
X190291542Y-78919232D01*
X190282214Y-78907866D01*
X190270850Y-78898540D01*
X190251242Y-78885438D01*
X190188562Y-78822758D01*
X190139315Y-78749055D01*
X190105394Y-78667161D01*
X190088100Y-78580220D01*
X190088100Y-78491580D01*
X190105394Y-78404639D01*
X190139315Y-78322745D01*
X190188562Y-78249042D01*
X190251242Y-78186362D01*
X190270850Y-78173260D01*
X190282216Y-78163932D01*
X190291543Y-78152567D01*
X190298473Y-78139601D01*
X190302741Y-78125531D01*
X190304182Y-78110899D01*
X190302741Y-78096267D01*
X190298473Y-78082198D01*
X190291542Y-78069232D01*
X190282214Y-78057866D01*
X190270850Y-78048540D01*
X190251242Y-78035438D01*
X190188562Y-77972758D01*
X190139315Y-77899055D01*
X190105394Y-77817161D01*
X190088100Y-77730220D01*
X190088100Y-77641580D01*
X190105394Y-77554639D01*
X190139315Y-77472745D01*
X190188562Y-77399042D01*
X190251242Y-77336362D01*
X190270850Y-77323260D01*
X190282216Y-77313932D01*
X190291543Y-77302567D01*
X190298473Y-77289601D01*
X190302741Y-77275531D01*
X190304182Y-77260899D01*
X190302741Y-77246267D01*
X190298473Y-77232198D01*
X190291542Y-77219232D01*
X190282214Y-77207866D01*
X190270850Y-77198540D01*
X190251242Y-77185438D01*
X190188562Y-77122758D01*
X190139315Y-77049055D01*
X190105394Y-76967161D01*
X190088100Y-76880220D01*
X190088100Y-76791580D01*
X190105394Y-76704639D01*
X190139315Y-76622745D01*
X190188562Y-76549042D01*
X190251242Y-76486362D01*
X190270850Y-76473260D01*
X190282216Y-76463932D01*
X190291543Y-76452567D01*
X190298473Y-76439601D01*
X190302741Y-76425531D01*
X190304182Y-76410899D01*
X190302741Y-76396267D01*
X190298473Y-76382198D01*
X190291542Y-76369232D01*
X190282214Y-76357866D01*
X190270850Y-76348540D01*
X190251242Y-76335438D01*
X190188562Y-76272758D01*
X190139315Y-76199055D01*
X190105394Y-76117161D01*
X190088100Y-76030220D01*
X190088100Y-75941580D01*
X190105394Y-75854639D01*
X190139315Y-75772745D01*
X190188562Y-75699042D01*
X190251242Y-75636362D01*
X190270850Y-75623260D01*
X190282216Y-75613932D01*
X190291543Y-75602567D01*
X190298473Y-75589601D01*
X190302741Y-75575531D01*
X190304182Y-75560899D01*
X190302741Y-75546267D01*
X190298473Y-75532198D01*
X190291542Y-75519232D01*
X190282214Y-75507866D01*
X190270850Y-75498540D01*
X190251242Y-75485438D01*
X190188562Y-75422758D01*
X190139315Y-75349055D01*
X190105394Y-75267161D01*
X190088100Y-75180220D01*
X190088100Y-75091580D01*
X190105394Y-75004639D01*
X190139315Y-74922745D01*
X190188562Y-74849042D01*
X190251242Y-74786362D01*
X190324945Y-74737115D01*
X190406839Y-74703194D01*
X190450310Y-74694547D01*
X190493779Y-74685900D01*
X190582421Y-74685900D01*
X190625890Y-74694547D01*
X190625890Y-74694547D01*
G37*
G36*
X191975890Y-74694547D02*
X192019361Y-74703194D01*
X192101255Y-74737115D01*
X192174958Y-74786362D01*
X192237638Y-74849042D01*
X192286885Y-74922745D01*
X192320806Y-75004639D01*
X192338100Y-75091580D01*
X192338100Y-75180220D01*
X192320806Y-75267161D01*
X192286885Y-75349055D01*
X192237638Y-75422758D01*
X192174958Y-75485438D01*
X192155350Y-75498540D01*
X192143984Y-75507868D01*
X192134657Y-75519233D01*
X192127727Y-75532199D01*
X192123459Y-75546269D01*
X192122018Y-75560901D01*
X192123459Y-75575533D01*
X192127727Y-75589602D01*
X192134658Y-75602568D01*
X192143986Y-75613934D01*
X192155350Y-75623260D01*
X192174958Y-75636362D01*
X192237638Y-75699042D01*
X192286885Y-75772745D01*
X192320806Y-75854639D01*
X192338100Y-75941580D01*
X192338100Y-76030220D01*
X192320806Y-76117161D01*
X192286885Y-76199055D01*
X192237638Y-76272758D01*
X192174958Y-76335438D01*
X192155350Y-76348540D01*
X192143984Y-76357868D01*
X192134657Y-76369233D01*
X192127727Y-76382199D01*
X192123459Y-76396269D01*
X192122018Y-76410901D01*
X192123459Y-76425533D01*
X192127727Y-76439602D01*
X192134658Y-76452568D01*
X192143986Y-76463934D01*
X192155350Y-76473260D01*
X192174958Y-76486362D01*
X192237638Y-76549042D01*
X192286885Y-76622745D01*
X192320806Y-76704639D01*
X192338100Y-76791580D01*
X192338100Y-76880220D01*
X192320806Y-76967161D01*
X192286885Y-77049055D01*
X192237638Y-77122758D01*
X192174958Y-77185438D01*
X192155350Y-77198540D01*
X192143984Y-77207868D01*
X192134657Y-77219233D01*
X192127727Y-77232199D01*
X192123459Y-77246269D01*
X192122018Y-77260901D01*
X192123459Y-77275533D01*
X192127727Y-77289602D01*
X192134658Y-77302568D01*
X192143986Y-77313934D01*
X192155350Y-77323260D01*
X192174958Y-77336362D01*
X192237638Y-77399042D01*
X192286885Y-77472745D01*
X192320806Y-77554639D01*
X192338100Y-77641580D01*
X192338100Y-77730220D01*
X192320806Y-77817161D01*
X192286885Y-77899055D01*
X192237638Y-77972758D01*
X192174958Y-78035438D01*
X192155350Y-78048540D01*
X192143984Y-78057868D01*
X192134657Y-78069233D01*
X192127727Y-78082199D01*
X192123459Y-78096269D01*
X192122018Y-78110901D01*
X192123459Y-78125533D01*
X192127727Y-78139602D01*
X192134658Y-78152568D01*
X192143986Y-78163934D01*
X192155350Y-78173260D01*
X192174958Y-78186362D01*
X192237638Y-78249042D01*
X192286885Y-78322745D01*
X192320806Y-78404639D01*
X192338100Y-78491580D01*
X192338100Y-78580220D01*
X192320806Y-78667161D01*
X192286885Y-78749055D01*
X192237638Y-78822758D01*
X192174958Y-78885438D01*
X192155350Y-78898540D01*
X192143984Y-78907868D01*
X192134657Y-78919233D01*
X192127727Y-78932199D01*
X192123459Y-78946269D01*
X192122018Y-78960901D01*
X192123459Y-78975533D01*
X192127727Y-78989602D01*
X192134658Y-79002568D01*
X192143986Y-79013934D01*
X192155350Y-79023260D01*
X192174958Y-79036362D01*
X192237638Y-79099042D01*
X192286885Y-79172745D01*
X192320806Y-79254639D01*
X192338100Y-79341580D01*
X192338100Y-79430220D01*
X192320806Y-79517161D01*
X192286885Y-79599055D01*
X192237638Y-79672758D01*
X192174958Y-79735438D01*
X192155350Y-79748540D01*
X192143984Y-79757868D01*
X192134657Y-79769233D01*
X192127727Y-79782199D01*
X192123459Y-79796269D01*
X192122018Y-79810901D01*
X192123459Y-79825533D01*
X192127727Y-79839602D01*
X192134658Y-79852568D01*
X192143986Y-79863934D01*
X192155350Y-79873260D01*
X192174958Y-79886362D01*
X192237638Y-79949042D01*
X192286885Y-80022745D01*
X192320806Y-80104639D01*
X192338100Y-80191580D01*
X192338100Y-80280220D01*
X192320806Y-80367161D01*
X192286885Y-80449055D01*
X192237638Y-80522758D01*
X192174958Y-80585438D01*
X192155350Y-80598540D01*
X192143984Y-80607868D01*
X192134657Y-80619233D01*
X192127727Y-80632199D01*
X192123459Y-80646269D01*
X192122018Y-80660901D01*
X192123459Y-80675533D01*
X192127727Y-80689602D01*
X192134658Y-80702568D01*
X192143986Y-80713934D01*
X192155350Y-80723260D01*
X192174958Y-80736362D01*
X192237638Y-80799042D01*
X192286885Y-80872745D01*
X192320806Y-80954639D01*
X192338100Y-81041580D01*
X192338100Y-81130220D01*
X192320806Y-81217161D01*
X192286885Y-81299055D01*
X192237638Y-81372758D01*
X192174958Y-81435438D01*
X192101255Y-81484685D01*
X192019361Y-81518606D01*
X191932421Y-81535900D01*
X191843779Y-81535900D01*
X191756839Y-81518606D01*
X191674945Y-81484685D01*
X191601242Y-81435438D01*
X191538562Y-81372758D01*
X191489315Y-81299055D01*
X191455394Y-81217161D01*
X191438100Y-81130220D01*
X191438100Y-81041580D01*
X191455394Y-80954639D01*
X191489315Y-80872745D01*
X191538562Y-80799042D01*
X191601242Y-80736362D01*
X191620850Y-80723260D01*
X191632216Y-80713932D01*
X191641543Y-80702567D01*
X191648473Y-80689601D01*
X191652741Y-80675531D01*
X191654182Y-80660899D01*
X191652741Y-80646267D01*
X191648473Y-80632198D01*
X191641542Y-80619232D01*
X191632214Y-80607866D01*
X191620850Y-80598540D01*
X191601242Y-80585438D01*
X191538562Y-80522758D01*
X191489315Y-80449055D01*
X191455394Y-80367161D01*
X191438100Y-80280220D01*
X191438100Y-80191580D01*
X191455394Y-80104639D01*
X191489315Y-80022745D01*
X191538562Y-79949042D01*
X191601242Y-79886362D01*
X191620850Y-79873260D01*
X191632216Y-79863932D01*
X191641543Y-79852567D01*
X191648473Y-79839601D01*
X191652741Y-79825531D01*
X191654182Y-79810899D01*
X191652741Y-79796267D01*
X191648473Y-79782198D01*
X191641542Y-79769232D01*
X191632214Y-79757866D01*
X191620850Y-79748540D01*
X191601242Y-79735438D01*
X191538562Y-79672758D01*
X191489315Y-79599055D01*
X191455394Y-79517161D01*
X191438100Y-79430220D01*
X191438100Y-79341580D01*
X191455394Y-79254639D01*
X191489315Y-79172745D01*
X191538562Y-79099042D01*
X191601242Y-79036362D01*
X191620850Y-79023260D01*
X191632216Y-79013932D01*
X191641543Y-79002567D01*
X191648473Y-78989601D01*
X191652741Y-78975531D01*
X191654182Y-78960899D01*
X191652741Y-78946267D01*
X191648473Y-78932198D01*
X191641542Y-78919232D01*
X191632214Y-78907866D01*
X191620850Y-78898540D01*
X191601242Y-78885438D01*
X191538562Y-78822758D01*
X191489315Y-78749055D01*
X191455394Y-78667161D01*
X191438100Y-78580220D01*
X191438100Y-78491580D01*
X191455394Y-78404639D01*
X191489315Y-78322745D01*
X191538562Y-78249042D01*
X191601242Y-78186362D01*
X191620850Y-78173260D01*
X191632216Y-78163932D01*
X191641543Y-78152567D01*
X191648473Y-78139601D01*
X191652741Y-78125531D01*
X191654182Y-78110899D01*
X191652741Y-78096267D01*
X191648473Y-78082198D01*
X191641542Y-78069232D01*
X191632214Y-78057866D01*
X191620850Y-78048540D01*
X191601242Y-78035438D01*
X191538562Y-77972758D01*
X191489315Y-77899055D01*
X191455394Y-77817161D01*
X191438100Y-77730220D01*
X191438100Y-77641580D01*
X191455394Y-77554639D01*
X191489315Y-77472745D01*
X191538562Y-77399042D01*
X191601242Y-77336362D01*
X191620850Y-77323260D01*
X191632216Y-77313932D01*
X191641543Y-77302567D01*
X191648473Y-77289601D01*
X191652741Y-77275531D01*
X191654182Y-77260899D01*
X191652741Y-77246267D01*
X191648473Y-77232198D01*
X191641542Y-77219232D01*
X191632214Y-77207866D01*
X191620850Y-77198540D01*
X191601242Y-77185438D01*
X191538562Y-77122758D01*
X191489315Y-77049055D01*
X191455394Y-76967161D01*
X191438100Y-76880220D01*
X191438100Y-76791580D01*
X191455394Y-76704639D01*
X191489315Y-76622745D01*
X191538562Y-76549042D01*
X191601242Y-76486362D01*
X191620850Y-76473260D01*
X191632216Y-76463932D01*
X191641543Y-76452567D01*
X191648473Y-76439601D01*
X191652741Y-76425531D01*
X191654182Y-76410899D01*
X191652741Y-76396267D01*
X191648473Y-76382198D01*
X191641542Y-76369232D01*
X191632214Y-76357866D01*
X191620850Y-76348540D01*
X191601242Y-76335438D01*
X191538562Y-76272758D01*
X191489315Y-76199055D01*
X191455394Y-76117161D01*
X191438100Y-76030220D01*
X191438100Y-75941580D01*
X191455394Y-75854639D01*
X191489315Y-75772745D01*
X191538562Y-75699042D01*
X191601242Y-75636362D01*
X191620850Y-75623260D01*
X191632216Y-75613932D01*
X191641543Y-75602567D01*
X191648473Y-75589601D01*
X191652741Y-75575531D01*
X191654182Y-75560899D01*
X191652741Y-75546267D01*
X191648473Y-75532198D01*
X191641542Y-75519232D01*
X191632214Y-75507866D01*
X191620850Y-75498540D01*
X191601242Y-75485438D01*
X191538562Y-75422758D01*
X191489315Y-75349055D01*
X191455394Y-75267161D01*
X191438100Y-75180220D01*
X191438100Y-75091580D01*
X191455394Y-75004639D01*
X191489315Y-74922745D01*
X191538562Y-74849042D01*
X191601242Y-74786362D01*
X191674945Y-74737115D01*
X191756839Y-74703194D01*
X191800310Y-74694547D01*
X191843779Y-74685900D01*
X191932421Y-74685900D01*
X191975890Y-74694547D01*
X191975890Y-74694547D01*
G37*
G36*
X127185145Y-71836744D02*
X127339704Y-71867487D01*
X127630884Y-71988098D01*
X127892941Y-72163198D01*
X128115802Y-72386059D01*
X128290902Y-72648116D01*
X128411513Y-72939296D01*
X128473000Y-73248415D01*
X128473000Y-73563585D01*
X128411513Y-73872704D01*
X128290902Y-74163884D01*
X128115802Y-74425941D01*
X127892941Y-74648802D01*
X127630884Y-74823902D01*
X127339704Y-74944513D01*
X127185144Y-74975257D01*
X127030586Y-75006000D01*
X126715414Y-75006000D01*
X126560856Y-74975257D01*
X126406296Y-74944513D01*
X126115116Y-74823902D01*
X125853059Y-74648802D01*
X125630198Y-74425941D01*
X125455098Y-74163884D01*
X125334487Y-73872704D01*
X125273000Y-73563585D01*
X125273000Y-73248415D01*
X125334487Y-72939296D01*
X125455098Y-72648116D01*
X125630198Y-72386059D01*
X125853059Y-72163198D01*
X126115116Y-71988098D01*
X126406296Y-71867487D01*
X126560855Y-71836744D01*
X126715414Y-71806000D01*
X127030586Y-71806000D01*
X127185145Y-71836744D01*
X127185145Y-71836744D01*
G37*
G36*
X192375919Y-73243858D02*
X192445036Y-73264825D01*
X192479595Y-73275308D01*
X192575142Y-73326379D01*
X192658890Y-73395110D01*
X192727621Y-73478858D01*
X192778692Y-73574405D01*
X192778692Y-73574406D01*
X192810142Y-73678081D01*
X192820761Y-73785900D01*
X192810142Y-73893719D01*
X192789175Y-73962836D01*
X192778692Y-73997395D01*
X192727621Y-74092942D01*
X192658890Y-74176690D01*
X192575142Y-74245421D01*
X192479595Y-74296492D01*
X192445036Y-74306975D01*
X192375919Y-74327942D01*
X192295118Y-74335900D01*
X190741082Y-74335900D01*
X190660281Y-74327942D01*
X190591164Y-74306975D01*
X190556605Y-74296492D01*
X190461058Y-74245421D01*
X190377310Y-74176690D01*
X190308579Y-74092942D01*
X190257508Y-73997395D01*
X190247025Y-73962836D01*
X190226058Y-73893719D01*
X190215439Y-73785900D01*
X190226058Y-73678081D01*
X190257508Y-73574406D01*
X190257508Y-73574405D01*
X190308579Y-73478858D01*
X190377310Y-73395110D01*
X190461058Y-73326379D01*
X190556605Y-73275308D01*
X190591164Y-73264825D01*
X190660281Y-73243858D01*
X190741082Y-73235900D01*
X192295118Y-73235900D01*
X192375919Y-73243858D01*
X192375919Y-73243858D01*
G37*
G36*
X195405919Y-73243858D02*
X195475036Y-73264825D01*
X195509595Y-73275308D01*
X195605142Y-73326379D01*
X195688890Y-73395110D01*
X195757621Y-73478858D01*
X195808692Y-73574405D01*
X195808692Y-73574406D01*
X195840142Y-73678081D01*
X195850761Y-73785900D01*
X195840142Y-73893719D01*
X195819175Y-73962836D01*
X195808692Y-73997395D01*
X195757621Y-74092942D01*
X195688890Y-74176690D01*
X195605142Y-74245421D01*
X195509595Y-74296492D01*
X195475036Y-74306975D01*
X195405919Y-74327942D01*
X195325118Y-74335900D01*
X194471082Y-74335900D01*
X194390281Y-74327942D01*
X194321164Y-74306975D01*
X194286605Y-74296492D01*
X194191058Y-74245421D01*
X194107310Y-74176690D01*
X194038579Y-74092942D01*
X193987508Y-73997395D01*
X193977025Y-73962836D01*
X193956058Y-73893719D01*
X193945439Y-73785900D01*
X193956058Y-73678081D01*
X193987508Y-73574406D01*
X193987508Y-73574405D01*
X194038579Y-73478858D01*
X194107310Y-73395110D01*
X194191058Y-73326379D01*
X194286605Y-73275308D01*
X194321164Y-73264825D01*
X194390281Y-73243858D01*
X194471082Y-73235900D01*
X195325118Y-73235900D01*
X195405919Y-73243858D01*
X195405919Y-73243858D01*
G37*
M02*
