G04 #@! TF.GenerationSoftware,KiCad,Pcbnew,5.0.2+dfsg1-1~bpo9+1*
G04 #@! TF.CreationDate,2019-09-23T12:40:00+02:00*
G04 #@! TF.ProjectId,EmLab_Amp,456d4c61-625f-4416-9d70-2e6b69636164,2*
G04 #@! TF.SameCoordinates,Original*
G04 #@! TF.FileFunction,Copper,L2,Inr*
G04 #@! TF.FilePolarity,Positive*
%FSLAX46Y46*%
G04 Gerber Fmt 4.6, Leading zero omitted, Abs format (unit mm)*
G04 Created by KiCad (PCBNEW 5.0.2+dfsg1-1~bpo9+1) date Mon Sep 23 12:40:00 2019*
%MOMM*%
%LPD*%
G01*
G04 APERTURE LIST*
G04 #@! TA.AperFunction,ViaPad*
%ADD10O,1.700000X0.900000*%
G04 #@! TD*
G04 #@! TA.AperFunction,ViaPad*
%ADD11O,2.400000X0.900000*%
G04 #@! TD*
G04 #@! TA.AperFunction,ViaPad*
%ADD12C,0.700000*%
G04 #@! TD*
G04 #@! TA.AperFunction,ViaPad*
%ADD13C,3.000000*%
G04 #@! TD*
G04 #@! TA.AperFunction,ViaPad*
%ADD14C,2.700000*%
G04 #@! TD*
G04 #@! TA.AperFunction,ViaPad*
%ADD15C,1.600000*%
G04 #@! TD*
G04 #@! TA.AperFunction,ViaPad*
%ADD16C,0.400000*%
G04 #@! TD*
G04 #@! TA.AperFunction,ViaPad*
%ADD17C,0.800000*%
G04 #@! TD*
G04 #@! TA.AperFunction,Conductor*
%ADD18C,0.250000*%
G04 #@! TD*
G04 APERTURE END LIST*
D10*
G04 #@! TO.N,GND*
G04 #@! TO.C,J2*
X194898100Y-73785900D03*
X194898100Y-82435900D03*
D11*
X191518100Y-73785900D03*
X191518100Y-82435900D03*
D12*
G04 #@! TO.N,Net-(D3-Pad3)*
X191888100Y-77685900D03*
G04 #@! TO.N,GND*
X191888100Y-75135900D03*
G04 #@! TO.N,/LPC4370-USB/USB_VBUS*
X191888100Y-75985900D03*
G04 #@! TO.N,Net-(J2-PadB5)*
X191888100Y-76835900D03*
G04 #@! TO.N,GND*
X191888100Y-81085900D03*
G04 #@! TO.N,Net-(J2-PadB8)*
X191888100Y-79385900D03*
G04 #@! TO.N,Net-(D3-Pad2)*
X191888100Y-78535900D03*
G04 #@! TO.N,/LPC4370-USB/USB_VBUS*
X191888100Y-80235900D03*
G04 #@! TO.N,GND*
X190538100Y-75135900D03*
G04 #@! TO.N,/LPC4370-USB/USB_VBUS*
X190538100Y-75985900D03*
G04 #@! TO.N,Net-(J2-PadA8)*
X190538100Y-76835900D03*
G04 #@! TO.N,Net-(D3-Pad2)*
X190538100Y-77685900D03*
G04 #@! TO.N,Net-(D3-Pad3)*
X190538100Y-78535900D03*
G04 #@! TO.N,Net-(J2-PadA5)*
X190538100Y-79385900D03*
G04 #@! TO.N,/LPC4370-USB/USB_VBUS*
X190538100Y-80235900D03*
G04 #@! TO.N,GND*
X190538100Y-81085900D03*
G04 #@! TD*
D13*
G04 #@! TO.N,GND*
G04 #@! TO.C,AGND*
X120523000Y-113157000D03*
G04 #@! TD*
G04 #@! TO.N,GND*
G04 #@! TO.C,DGND*
X126873000Y-73406000D03*
G04 #@! TD*
G04 #@! TO.N,GND*
G04 #@! TO.C,AGND*
X163703000Y-105664000D03*
G04 #@! TD*
G04 #@! TO.N,GND*
G04 #@! TO.C,DGND*
X181737000Y-90678000D03*
G04 #@! TD*
D14*
G04 #@! TO.N,*
G04 #@! TO.C,J4*
X88773000Y-107696000D03*
X88773000Y-97536000D03*
D15*
G04 #@! TO.N,GND*
X93853000Y-105156000D03*
G04 #@! TO.N,Net-(J4-Pad1)*
X93853000Y-102616000D03*
G04 #@! TD*
D16*
G04 #@! TO.N,/Amplifier/STAGE2_NEG*
X123952000Y-103124000D03*
X124392000Y-104140000D03*
D17*
G04 #@! TO.N,-5V*
X112014000Y-102108000D03*
X122555000Y-102108000D03*
X138811000Y-102743000D03*
X141097000Y-101346000D03*
X143383000Y-101346000D03*
X167259000Y-101346000D03*
X166116000Y-101346000D03*
X165100000Y-101346000D03*
X165100000Y-100457000D03*
X167259000Y-100457000D03*
X166116000Y-100457000D03*
G04 #@! TO.N,+5V*
X166878000Y-114554000D03*
X112141000Y-106426000D03*
X122682000Y-106426000D03*
X126619000Y-97663000D03*
X159258000Y-107442000D03*
X143637000Y-109855000D03*
X166878000Y-115443000D03*
X165862000Y-115443000D03*
X164846000Y-115443000D03*
X164846000Y-114554000D03*
X165862000Y-114554000D03*
X155194000Y-114427000D03*
G04 #@! TO.N,+3V3*
X146177000Y-86829900D03*
D16*
X151866600Y-70637400D03*
D17*
X155054300Y-71843900D03*
D16*
X144792700Y-77673200D03*
X151295100Y-81762600D03*
D17*
X149834600Y-74066400D03*
D16*
X149707600Y-78562200D03*
D17*
X145630900Y-74041000D03*
X141046200Y-72313800D03*
X146646900Y-72250300D03*
D16*
X148443898Y-74041000D03*
X152095200Y-80162400D03*
X148818600Y-83527900D03*
D17*
X125780800Y-81089500D03*
X167005000Y-64516000D03*
D16*
X156883100Y-80073500D03*
D17*
X149352000Y-84455000D03*
X170942000Y-66675000D03*
X171958000Y-66675000D03*
X171958000Y-67564000D03*
X170942000Y-67564000D03*
X170942000Y-68453000D03*
X171958000Y-68453000D03*
D16*
X154762200Y-76269700D03*
D17*
X128778000Y-110617000D03*
G04 #@! TO.N,/LPC4370-USB/USB_VBUS*
X188849000Y-97536000D03*
X189865000Y-97536000D03*
X189865000Y-98552000D03*
X188849000Y-98552000D03*
X188849000Y-99568000D03*
X189865000Y-99568000D03*
X189865000Y-100584000D03*
X197739000Y-102997000D03*
X197739000Y-104013000D03*
X197739000Y-105029000D03*
X197104000Y-105918000D03*
X198628000Y-102997000D03*
X198628000Y-104013000D03*
X198628000Y-105029000D03*
X183134000Y-66675000D03*
X182118000Y-66675000D03*
X182118000Y-67564000D03*
X183134000Y-67564000D03*
X183134000Y-68453000D03*
X182245000Y-68453000D03*
X179385000Y-69596000D03*
G04 #@! TO.N,/Amplifier/V_REF*
X115189000Y-105029000D03*
X149479000Y-114681000D03*
X129921000Y-112776000D03*
D16*
G04 #@! TO.N,Net-(C67-Pad2)*
X134620000Y-103886000D03*
X136144000Y-104902000D03*
D17*
G04 #@! TO.N,GND*
X127901700Y-104660700D03*
X127901700Y-103098600D03*
X187833000Y-104267000D03*
X186309000Y-104267000D03*
X186309000Y-102743000D03*
X187833000Y-102743000D03*
X177292000Y-67310000D03*
X177292000Y-68326000D03*
X178308000Y-68326000D03*
X178308000Y-67310000D03*
X169037000Y-110490000D03*
X168021000Y-110490000D03*
X168021000Y-111379000D03*
X169037000Y-111379000D03*
X169037000Y-112268000D03*
X168021000Y-112268000D03*
D16*
X148094700Y-75361800D03*
X151307800Y-75349100D03*
X146494500Y-76962000D03*
X146494500Y-80962500D03*
X149694900Y-80162400D03*
X150495000Y-80162400D03*
X152069800Y-80937100D03*
D17*
X143040100Y-83350100D03*
X140462000Y-77266800D03*
X129667000Y-64922400D03*
X125437900Y-79514700D03*
X104648000Y-104902000D03*
X111887000Y-103632000D03*
X122428000Y-103632000D03*
X129032000Y-99568000D03*
X129413000Y-106680000D03*
X133985000Y-108839000D03*
X137160000Y-115697000D03*
X137160000Y-116967000D03*
X138430000Y-116967000D03*
X138430000Y-115697000D03*
X139700000Y-116967000D03*
X139700000Y-115697000D03*
X140970000Y-115697000D03*
X140970000Y-116967000D03*
X142240000Y-115697000D03*
X142240000Y-116967000D03*
X143510000Y-116967000D03*
X143510000Y-115697000D03*
X144780000Y-116967000D03*
X144780000Y-115697000D03*
X125730000Y-115697000D03*
X125730000Y-116967000D03*
X124460000Y-115697000D03*
X124460000Y-116967000D03*
X123190000Y-115697000D03*
X123190000Y-116967000D03*
X121920000Y-115697000D03*
X121920000Y-116967000D03*
X120650000Y-115697000D03*
X120650000Y-116967000D03*
X119380000Y-115697000D03*
X119380000Y-116967000D03*
X118110000Y-115697000D03*
X118110000Y-116967000D03*
X106680000Y-116967000D03*
X106680000Y-115697000D03*
X105410000Y-116967000D03*
X105410000Y-115697000D03*
X104140000Y-116967000D03*
X104140000Y-115697000D03*
X102870000Y-116967000D03*
X102870000Y-115697000D03*
X101600000Y-116967000D03*
X101600000Y-115697000D03*
X100330000Y-116967000D03*
X100330000Y-115697000D03*
X99060000Y-115697000D03*
X99060000Y-116967000D03*
X137160000Y-91948000D03*
X137160000Y-90678000D03*
X105410000Y-91948000D03*
X101600000Y-91948000D03*
X105410000Y-90678000D03*
X101600000Y-90678000D03*
X100330000Y-90678000D03*
X100330000Y-91948000D03*
X123190000Y-90678000D03*
X104140000Y-91948000D03*
X143510000Y-91948000D03*
X143510000Y-90678000D03*
X123190000Y-91948000D03*
X119380000Y-90678000D03*
X104140000Y-90678000D03*
X119380000Y-91948000D03*
X140970000Y-90678000D03*
X140970000Y-91948000D03*
X142240000Y-91948000D03*
X144780000Y-90678000D03*
X121920000Y-90678000D03*
X118110000Y-91948000D03*
X118110000Y-90678000D03*
X99060000Y-90678000D03*
X144780000Y-91948000D03*
X99060000Y-91948000D03*
X121920000Y-91948000D03*
X142240000Y-90678000D03*
X124460000Y-90678000D03*
X120650000Y-90678000D03*
X106680000Y-91948000D03*
X106680000Y-90678000D03*
X102870000Y-91948000D03*
X102870000Y-90678000D03*
X120650000Y-91948000D03*
X124460000Y-91948000D03*
X138430000Y-91948000D03*
X138430000Y-90678000D03*
X125730000Y-90678000D03*
X125730000Y-91948000D03*
X139700000Y-90678000D03*
X139700000Y-91948000D03*
X147320000Y-116967000D03*
X146050000Y-116967000D03*
X146050000Y-90678000D03*
X147320000Y-90678000D03*
X97790000Y-90678000D03*
X96520000Y-90678000D03*
X97790000Y-116840000D03*
X96520000Y-116840000D03*
X159258000Y-102997000D03*
X149733000Y-109728000D03*
D16*
X153797000Y-71501000D03*
D17*
X160032700Y-65100200D03*
X156768800Y-65011300D03*
X143510000Y-70612000D03*
X144653000Y-70612000D03*
X145669000Y-70612000D03*
X146685000Y-70612000D03*
X150114000Y-70485000D03*
X156730700Y-74447400D03*
X156730700Y-75438000D03*
D16*
X156997400Y-80746600D03*
X156997400Y-81165700D03*
X154825700Y-81495900D03*
X155181300Y-81902300D03*
D17*
X147218400Y-87744300D03*
X148297900Y-87757000D03*
X148678900Y-86753700D03*
X147662900Y-86753700D03*
X156718000Y-85509100D03*
X158026100Y-86677500D03*
X158026100Y-87706200D03*
X150495000Y-100457000D03*
X155346000Y-100330000D03*
X153543000Y-115062000D03*
X144907000Y-106680000D03*
X195199000Y-100584000D03*
X195199000Y-99441000D03*
X195199000Y-98298000D03*
X195199000Y-97155000D03*
X195199000Y-95885000D03*
X195199000Y-94742000D03*
X193929000Y-94234000D03*
X193929000Y-95377000D03*
X192786000Y-95377000D03*
X192786000Y-94234000D03*
X191516000Y-94234000D03*
X191516000Y-95377000D03*
X192151000Y-96393000D03*
X193421000Y-96393000D03*
X191897000Y-103886000D03*
X191897000Y-104902000D03*
X177292000Y-105410000D03*
X177292000Y-106680000D03*
X176022000Y-106680000D03*
X176022000Y-105410000D03*
X174752000Y-105410000D03*
X174752000Y-106680000D03*
X173482000Y-106680000D03*
X173482000Y-105410000D03*
X173482000Y-107950000D03*
X174752000Y-107950000D03*
X174752000Y-109220000D03*
X173482000Y-109220000D03*
X173990000Y-96393000D03*
X175260000Y-96393000D03*
X177165000Y-96393000D03*
X178435000Y-96393000D03*
X179832000Y-95123000D03*
X179832000Y-96266000D03*
X178816000Y-116459000D03*
X178816000Y-115316000D03*
X180213000Y-115316000D03*
X181356000Y-115316000D03*
X183388000Y-115316000D03*
X184531000Y-115316000D03*
X163703000Y-114554000D03*
X162687000Y-114554000D03*
X161671000Y-114554000D03*
X161671000Y-115443000D03*
X162687000Y-115443000D03*
X163703000Y-115443000D03*
X163830000Y-101346000D03*
X162814000Y-101346000D03*
X161798000Y-101346000D03*
X161798000Y-100457000D03*
X162814000Y-100457000D03*
X163830000Y-100457000D03*
X169672000Y-109220000D03*
X170815000Y-109220000D03*
X172085000Y-109220000D03*
X172085000Y-107950000D03*
X170815000Y-107950000D03*
X169672000Y-107950000D03*
X170815000Y-106680000D03*
X172085000Y-106680000D03*
X172085000Y-105410000D03*
X170815000Y-105410000D03*
X169672000Y-106680000D03*
X172720000Y-95758000D03*
X172720000Y-94869000D03*
D16*
X166116000Y-96647000D03*
X165608000Y-96647000D03*
X165100000Y-96647000D03*
D17*
X181356000Y-69977000D03*
X170942000Y-69977000D03*
X170942000Y-70866000D03*
X171958000Y-70866000D03*
X171958000Y-69977000D03*
X176911000Y-65659000D03*
X178562000Y-65659000D03*
X176149000Y-65151000D03*
X177800000Y-65151000D03*
X179324000Y-65151000D03*
X176149000Y-70866000D03*
X177165000Y-70866000D03*
X177165000Y-69977000D03*
X176149000Y-69977000D03*
D16*
X152095200Y-77762100D03*
D17*
X185293000Y-75565000D03*
X181610000Y-85598000D03*
X178475000Y-74825000D03*
X178500000Y-81400000D03*
X143357600Y-99771200D03*
X125222000Y-101727000D03*
X127127000Y-103886000D03*
X126326900Y-103124000D03*
X126339600Y-104673400D03*
X190373000Y-94234000D03*
X190373000Y-95377000D03*
X189230000Y-95377000D03*
X189230000Y-94234000D03*
X188087000Y-95377000D03*
X188087000Y-94234000D03*
X184277000Y-95377000D03*
X184277000Y-94234000D03*
X183134000Y-94234000D03*
X183134000Y-95377000D03*
X181991000Y-95377000D03*
X180848000Y-95377000D03*
X180848000Y-94361000D03*
X181991000Y-94234000D03*
X149860000Y-62738000D03*
D16*
G04 #@! TO.N,Net-(C11-Pad1)*
X189865000Y-102997000D03*
X188087000Y-100711000D03*
G04 #@! TO.N,/Power/VPOS*
X167005000Y-109855000D03*
X170815000Y-111633000D03*
D17*
G04 #@! TO.N,Net-(C63-Pad2)*
X138811000Y-105156000D03*
X141097000Y-106680000D03*
G04 #@! TO.N,Net-(C62-Pad2)*
X135001000Y-108712000D03*
X137541000Y-105029000D03*
D16*
G04 #@! TO.N,Net-(R18-Pad1)*
X151269700Y-78587600D03*
X175133000Y-84074000D03*
X153162000Y-81915000D03*
G04 #@! TO.N,/LPC4370-GPIO/BOOT_2*
X148107400Y-80949800D03*
X150736300Y-66408300D03*
G04 #@! TO.N,Net-(C52-Pad2)*
X130048000Y-104902000D03*
X129794000Y-103124000D03*
G04 #@! TO.N,/LPC4370-JTAG-PWR-MISC/RESET*
X148894800Y-80959960D03*
X156773880Y-69209920D03*
G04 #@! TO.N,/LPC4370-JTAG-PWR-MISC/TRST*
X149567900Y-82715100D03*
X146164300Y-83451700D03*
G04 #@! TO.N,Net-(R19-Pad1)*
X153517600Y-76657200D03*
X151295100Y-77762100D03*
G04 #@! TO.N,/LPC4370-GPIO/I2C_SDA*
X148094700Y-78562200D03*
X143954500Y-78944620D03*
G04 #@! TO.N,Net-(C28-Pad1)*
X151434800Y-86791800D03*
X152717500Y-86791800D03*
G04 #@! TO.N,Net-(C27-Pad1)*
X153746200Y-86791800D03*
X155054300Y-86791800D03*
G04 #@! TO.N,/LPC4370-GPIO/SPIFI_CS*
X147294600Y-78562200D03*
X141401800Y-78790800D03*
G04 #@! TO.N,/LPC4370-GPIO/SPIFI_MISO*
X147307300Y-80949800D03*
X141007341Y-79852520D03*
G04 #@! TO.N,/LPC4370-GPIO/SPIFI_SIO2*
X147294600Y-81749900D03*
X139821920Y-78623160D03*
G04 #@! TO.N,/LPC4370-GPIO/SPIFI_MOSI*
X147294600Y-79362300D03*
X132806440Y-77312520D03*
G04 #@! TO.N,/LPC4370-GPIO/SPIFI_SCK*
X147320000Y-82537300D03*
X132598160Y-78623160D03*
G04 #@! TO.N,/LPC4370-GPIO/SPIFI_SIO3*
X146494500Y-81762600D03*
X133070600Y-79771240D03*
G04 #@! TO.N,/Amplifier/S3_CS*
X144894300Y-74561700D03*
X124841000Y-107061000D03*
G04 #@! TO.N,/Amplifier/S3_DIO*
X124841000Y-107696000D03*
X152105360Y-75361800D03*
G04 #@! TO.N,/Amplifier/S3_SCLK*
X124841000Y-108331000D03*
X152869900Y-75399900D03*
G04 #@! TO.N,/LPC4370-JTAG-PWR-MISC/TCK*
X152069800Y-76187300D03*
X160591500Y-69151500D03*
G04 #@! TO.N,/LPC4370-JTAG-PWR-MISC/TDI*
X151244300Y-77012800D03*
X158048960Y-69148960D03*
G04 #@! TO.N,/LPC4370-JTAG-PWR-MISC/TDO*
X151295100Y-76161900D03*
X159324040Y-69164200D03*
G04 #@! TO.N,/LPC4370-JTAG-PWR-MISC/TMS*
X150482300Y-80949800D03*
X157901640Y-71424800D03*
G04 #@! TO.N,/LPC4370-GPIO/GPIO_0*
X146761200Y-73342500D03*
X134747000Y-64922400D03*
G04 #@! TO.N,/LPC4370-GPIO/GPIO_2*
X148107400Y-77762100D03*
X132207000Y-64935100D03*
G04 #@! TO.N,/LPC4370-GPIO/GPIO_4*
X146532600Y-77774800D03*
X132219700Y-70650100D03*
G04 #@! TO.N,/LPC4370-GPIO/GPIO_3*
X145694400Y-77762100D03*
X130937000Y-64922400D03*
G04 #@! TO.N,/LPC4370-GPIO/GPIO_1*
X145694400Y-76161900D03*
X133477000Y-64947800D03*
G04 #@! TD*
D18*
G04 #@! TO.N,GND*
G36*
X198757000Y-102222000D02*
X198473843Y-102222000D01*
X198188998Y-102339987D01*
X198183500Y-102345485D01*
X198178002Y-102339987D01*
X197893157Y-102222000D01*
X197584843Y-102222000D01*
X197299998Y-102339987D01*
X197081987Y-102557998D01*
X196964000Y-102842843D01*
X196964000Y-103151157D01*
X197081987Y-103436002D01*
X197150985Y-103505000D01*
X197081987Y-103573998D01*
X196964000Y-103858843D01*
X196964000Y-104167157D01*
X197081987Y-104452002D01*
X197150985Y-104521000D01*
X197081987Y-104589998D01*
X196964000Y-104874843D01*
X196964000Y-105143000D01*
X196949843Y-105143000D01*
X196664998Y-105260987D01*
X196446987Y-105478998D01*
X196329000Y-105763843D01*
X196329000Y-106072157D01*
X196446987Y-106357002D01*
X196664998Y-106575013D01*
X196949843Y-106693000D01*
X197258157Y-106693000D01*
X197543002Y-106575013D01*
X197761013Y-106357002D01*
X197879000Y-106072157D01*
X197879000Y-105804000D01*
X197893157Y-105804000D01*
X198178002Y-105686013D01*
X198183500Y-105680515D01*
X198188998Y-105686013D01*
X198473843Y-105804000D01*
X198757000Y-105804000D01*
X198757000Y-117858000D01*
X169035000Y-117858000D01*
X169035000Y-112776000D01*
X169025485Y-112728165D01*
X168998388Y-112687612D01*
X168957835Y-112660515D01*
X168910000Y-112651000D01*
X168529000Y-112651000D01*
X168481165Y-112660515D01*
X168440612Y-112687612D01*
X168413515Y-112728165D01*
X168404000Y-112776000D01*
X168404000Y-117858000D01*
X91819000Y-117858000D01*
X91819000Y-114526843D01*
X148704000Y-114526843D01*
X148704000Y-114835157D01*
X148821987Y-115120002D01*
X149039998Y-115338013D01*
X149324843Y-115456000D01*
X149633157Y-115456000D01*
X149918002Y-115338013D01*
X150136013Y-115120002D01*
X150254000Y-114835157D01*
X150254000Y-114526843D01*
X150148790Y-114272843D01*
X154419000Y-114272843D01*
X154419000Y-114581157D01*
X154536987Y-114866002D01*
X154754998Y-115084013D01*
X155039843Y-115202000D01*
X155348157Y-115202000D01*
X155633002Y-115084013D01*
X155851013Y-114866002D01*
X155969000Y-114581157D01*
X155969000Y-114399843D01*
X164071000Y-114399843D01*
X164071000Y-114708157D01*
X164188987Y-114993002D01*
X164194485Y-114998500D01*
X164188987Y-115003998D01*
X164071000Y-115288843D01*
X164071000Y-115597157D01*
X164188987Y-115882002D01*
X164406998Y-116100013D01*
X164691843Y-116218000D01*
X165000157Y-116218000D01*
X165285002Y-116100013D01*
X165354000Y-116031015D01*
X165422998Y-116100013D01*
X165707843Y-116218000D01*
X166016157Y-116218000D01*
X166301002Y-116100013D01*
X166370000Y-116031015D01*
X166438998Y-116100013D01*
X166723843Y-116218000D01*
X167032157Y-116218000D01*
X167317002Y-116100013D01*
X167535013Y-115882002D01*
X167653000Y-115597157D01*
X167653000Y-115288843D01*
X167535013Y-115003998D01*
X167529515Y-114998500D01*
X167535013Y-114993002D01*
X167653000Y-114708157D01*
X167653000Y-114399843D01*
X167535013Y-114114998D01*
X167317002Y-113896987D01*
X167032157Y-113779000D01*
X166723843Y-113779000D01*
X166438998Y-113896987D01*
X166370000Y-113965985D01*
X166301002Y-113896987D01*
X166016157Y-113779000D01*
X165707843Y-113779000D01*
X165422998Y-113896987D01*
X165354000Y-113965985D01*
X165285002Y-113896987D01*
X165000157Y-113779000D01*
X164691843Y-113779000D01*
X164406998Y-113896987D01*
X164188987Y-114114998D01*
X164071000Y-114399843D01*
X155969000Y-114399843D01*
X155969000Y-114272843D01*
X155851013Y-113987998D01*
X155633002Y-113769987D01*
X155348157Y-113652000D01*
X155039843Y-113652000D01*
X154754998Y-113769987D01*
X154536987Y-113987998D01*
X154419000Y-114272843D01*
X150148790Y-114272843D01*
X150136013Y-114241998D01*
X149918002Y-114023987D01*
X149633157Y-113906000D01*
X149324843Y-113906000D01*
X149039998Y-114023987D01*
X148821987Y-114241998D01*
X148704000Y-114526843D01*
X91819000Y-114526843D01*
X91819000Y-112621843D01*
X129146000Y-112621843D01*
X129146000Y-112930157D01*
X129263987Y-113215002D01*
X129481998Y-113433013D01*
X129766843Y-113551000D01*
X130075157Y-113551000D01*
X130360002Y-113433013D01*
X130578013Y-113215002D01*
X130696000Y-112930157D01*
X130696000Y-112621843D01*
X130578013Y-112336998D01*
X130360002Y-112118987D01*
X130075157Y-112001000D01*
X129766843Y-112001000D01*
X129481998Y-112118987D01*
X129263987Y-112336998D01*
X129146000Y-112621843D01*
X91819000Y-112621843D01*
X91819000Y-111518625D01*
X170240000Y-111518625D01*
X170240000Y-111747375D01*
X170327538Y-111958711D01*
X170489289Y-112120462D01*
X170700625Y-112208000D01*
X170929375Y-112208000D01*
X171140711Y-112120462D01*
X171302462Y-111958711D01*
X171390000Y-111747375D01*
X171390000Y-111518625D01*
X171302462Y-111307289D01*
X171140711Y-111145538D01*
X170929375Y-111058000D01*
X170700625Y-111058000D01*
X170489289Y-111145538D01*
X170327538Y-111307289D01*
X170240000Y-111518625D01*
X91819000Y-111518625D01*
X91819000Y-110462843D01*
X128003000Y-110462843D01*
X128003000Y-110771157D01*
X128120987Y-111056002D01*
X128338998Y-111274013D01*
X128623843Y-111392000D01*
X128932157Y-111392000D01*
X129217002Y-111274013D01*
X129435013Y-111056002D01*
X129553000Y-110771157D01*
X129553000Y-110462843D01*
X129435013Y-110177998D01*
X129217002Y-109959987D01*
X128932157Y-109842000D01*
X128623843Y-109842000D01*
X128338998Y-109959987D01*
X128120987Y-110177998D01*
X128003000Y-110462843D01*
X91819000Y-110462843D01*
X91819000Y-109700843D01*
X142862000Y-109700843D01*
X142862000Y-110009157D01*
X142979987Y-110294002D01*
X143197998Y-110512013D01*
X143482843Y-110630000D01*
X143791157Y-110630000D01*
X144076002Y-110512013D01*
X144294013Y-110294002D01*
X144412000Y-110009157D01*
X144412000Y-109740625D01*
X166430000Y-109740625D01*
X166430000Y-109969375D01*
X166517538Y-110180711D01*
X166679289Y-110342462D01*
X166890625Y-110430000D01*
X167119375Y-110430000D01*
X167330711Y-110342462D01*
X167492462Y-110180711D01*
X167580000Y-109969375D01*
X167580000Y-109740625D01*
X167492462Y-109529289D01*
X167330711Y-109367538D01*
X167119375Y-109280000D01*
X166890625Y-109280000D01*
X166679289Y-109367538D01*
X166517538Y-109529289D01*
X166430000Y-109740625D01*
X144412000Y-109740625D01*
X144412000Y-109700843D01*
X144294013Y-109415998D01*
X144076002Y-109197987D01*
X143791157Y-109080000D01*
X143482843Y-109080000D01*
X143197998Y-109197987D01*
X142979987Y-109415998D01*
X142862000Y-109700843D01*
X91819000Y-109700843D01*
X91819000Y-106271843D01*
X111366000Y-106271843D01*
X111366000Y-106580157D01*
X111483987Y-106865002D01*
X111701998Y-107083013D01*
X111986843Y-107201000D01*
X112295157Y-107201000D01*
X112580002Y-107083013D01*
X112798013Y-106865002D01*
X112916000Y-106580157D01*
X112916000Y-106271843D01*
X121907000Y-106271843D01*
X121907000Y-106580157D01*
X122024987Y-106865002D01*
X122242998Y-107083013D01*
X122527843Y-107201000D01*
X122836157Y-107201000D01*
X123121002Y-107083013D01*
X123257390Y-106946625D01*
X124266000Y-106946625D01*
X124266000Y-107175375D01*
X124350137Y-107378500D01*
X124266000Y-107581625D01*
X124266000Y-107810375D01*
X124350137Y-108013500D01*
X124266000Y-108216625D01*
X124266000Y-108445375D01*
X124353538Y-108656711D01*
X124515289Y-108818462D01*
X124726625Y-108906000D01*
X124955375Y-108906000D01*
X125166711Y-108818462D01*
X125328462Y-108656711D01*
X125369414Y-108557843D01*
X134226000Y-108557843D01*
X134226000Y-108866157D01*
X134343987Y-109151002D01*
X134561998Y-109369013D01*
X134846843Y-109487000D01*
X135155157Y-109487000D01*
X135440002Y-109369013D01*
X135658013Y-109151002D01*
X135776000Y-108866157D01*
X135776000Y-108557843D01*
X135658013Y-108272998D01*
X135440002Y-108054987D01*
X135155157Y-107937000D01*
X134846843Y-107937000D01*
X134561998Y-108054987D01*
X134343987Y-108272998D01*
X134226000Y-108557843D01*
X125369414Y-108557843D01*
X125416000Y-108445375D01*
X125416000Y-108216625D01*
X125331863Y-108013500D01*
X125416000Y-107810375D01*
X125416000Y-107581625D01*
X125331863Y-107378500D01*
X125416000Y-107175375D01*
X125416000Y-106946625D01*
X125328462Y-106735289D01*
X125166711Y-106573538D01*
X125051565Y-106525843D01*
X140322000Y-106525843D01*
X140322000Y-106834157D01*
X140439987Y-107119002D01*
X140657998Y-107337013D01*
X140942843Y-107455000D01*
X141251157Y-107455000D01*
X141536002Y-107337013D01*
X141585172Y-107287843D01*
X158483000Y-107287843D01*
X158483000Y-107596157D01*
X158600987Y-107881002D01*
X158818998Y-108099013D01*
X159103843Y-108217000D01*
X159412157Y-108217000D01*
X159697002Y-108099013D01*
X159915013Y-107881002D01*
X160033000Y-107596157D01*
X160033000Y-107287843D01*
X159915013Y-107002998D01*
X159697002Y-106784987D01*
X159412157Y-106667000D01*
X159103843Y-106667000D01*
X158818998Y-106784987D01*
X158600987Y-107002998D01*
X158483000Y-107287843D01*
X141585172Y-107287843D01*
X141754013Y-107119002D01*
X141872000Y-106834157D01*
X141872000Y-106525843D01*
X141754013Y-106240998D01*
X141536002Y-106022987D01*
X141251157Y-105905000D01*
X140942843Y-105905000D01*
X140657998Y-106022987D01*
X140439987Y-106240998D01*
X140322000Y-106525843D01*
X125051565Y-106525843D01*
X124955375Y-106486000D01*
X124726625Y-106486000D01*
X124515289Y-106573538D01*
X124353538Y-106735289D01*
X124266000Y-106946625D01*
X123257390Y-106946625D01*
X123339013Y-106865002D01*
X123457000Y-106580157D01*
X123457000Y-106271843D01*
X123339013Y-105986998D01*
X123121002Y-105768987D01*
X122836157Y-105651000D01*
X122527843Y-105651000D01*
X122242998Y-105768987D01*
X122024987Y-105986998D01*
X121907000Y-106271843D01*
X112916000Y-106271843D01*
X112798013Y-105986998D01*
X112580002Y-105768987D01*
X112295157Y-105651000D01*
X111986843Y-105651000D01*
X111701998Y-105768987D01*
X111483987Y-105986998D01*
X111366000Y-106271843D01*
X91819000Y-106271843D01*
X91819000Y-104874843D01*
X114414000Y-104874843D01*
X114414000Y-105183157D01*
X114531987Y-105468002D01*
X114749998Y-105686013D01*
X115034843Y-105804000D01*
X115343157Y-105804000D01*
X115628002Y-105686013D01*
X115846013Y-105468002D01*
X115964000Y-105183157D01*
X115964000Y-104874843D01*
X115927874Y-104787625D01*
X129473000Y-104787625D01*
X129473000Y-105016375D01*
X129560538Y-105227711D01*
X129722289Y-105389462D01*
X129933625Y-105477000D01*
X130162375Y-105477000D01*
X130373711Y-105389462D01*
X130535462Y-105227711D01*
X130623000Y-105016375D01*
X130623000Y-104787625D01*
X135569000Y-104787625D01*
X135569000Y-105016375D01*
X135656538Y-105227711D01*
X135818289Y-105389462D01*
X136029625Y-105477000D01*
X136258375Y-105477000D01*
X136469711Y-105389462D01*
X136631462Y-105227711D01*
X136719000Y-105016375D01*
X136719000Y-104874843D01*
X136766000Y-104874843D01*
X136766000Y-105183157D01*
X136883987Y-105468002D01*
X137101998Y-105686013D01*
X137386843Y-105804000D01*
X137695157Y-105804000D01*
X137980002Y-105686013D01*
X138129684Y-105536331D01*
X138153987Y-105595002D01*
X138371998Y-105813013D01*
X138656843Y-105931000D01*
X138965157Y-105931000D01*
X139250002Y-105813013D01*
X139468013Y-105595002D01*
X139586000Y-105310157D01*
X139586000Y-105001843D01*
X139468013Y-104716998D01*
X139250002Y-104498987D01*
X138965157Y-104381000D01*
X138656843Y-104381000D01*
X138371998Y-104498987D01*
X138222316Y-104648669D01*
X138198013Y-104589998D01*
X137980002Y-104371987D01*
X137695157Y-104254000D01*
X137386843Y-104254000D01*
X137101998Y-104371987D01*
X136883987Y-104589998D01*
X136766000Y-104874843D01*
X136719000Y-104874843D01*
X136719000Y-104787625D01*
X136631462Y-104576289D01*
X136469711Y-104414538D01*
X136258375Y-104327000D01*
X136029625Y-104327000D01*
X135818289Y-104414538D01*
X135656538Y-104576289D01*
X135569000Y-104787625D01*
X130623000Y-104787625D01*
X130535462Y-104576289D01*
X130373711Y-104414538D01*
X130162375Y-104327000D01*
X129933625Y-104327000D01*
X129722289Y-104414538D01*
X129560538Y-104576289D01*
X129473000Y-104787625D01*
X115927874Y-104787625D01*
X115846013Y-104589998D01*
X115628002Y-104371987D01*
X115343157Y-104254000D01*
X115034843Y-104254000D01*
X114749998Y-104371987D01*
X114531987Y-104589998D01*
X114414000Y-104874843D01*
X91819000Y-104874843D01*
X91819000Y-102382278D01*
X92678000Y-102382278D01*
X92678000Y-102849722D01*
X92856883Y-103281584D01*
X93187416Y-103612117D01*
X93619278Y-103791000D01*
X94086722Y-103791000D01*
X94518584Y-103612117D01*
X94849117Y-103281584D01*
X94961766Y-103009625D01*
X123377000Y-103009625D01*
X123377000Y-103238375D01*
X123464538Y-103449711D01*
X123626289Y-103611462D01*
X123837625Y-103699000D01*
X124019827Y-103699000D01*
X123904538Y-103814289D01*
X123817000Y-104025625D01*
X123817000Y-104254375D01*
X123904538Y-104465711D01*
X124066289Y-104627462D01*
X124277625Y-104715000D01*
X124506375Y-104715000D01*
X124717711Y-104627462D01*
X124879462Y-104465711D01*
X124967000Y-104254375D01*
X124967000Y-104025625D01*
X124879462Y-103814289D01*
X124836798Y-103771625D01*
X134045000Y-103771625D01*
X134045000Y-104000375D01*
X134132538Y-104211711D01*
X134294289Y-104373462D01*
X134505625Y-104461000D01*
X134734375Y-104461000D01*
X134945711Y-104373462D01*
X135107462Y-104211711D01*
X135195000Y-104000375D01*
X135195000Y-103771625D01*
X135107462Y-103560289D01*
X134945711Y-103398538D01*
X134734375Y-103311000D01*
X134505625Y-103311000D01*
X134294289Y-103398538D01*
X134132538Y-103560289D01*
X134045000Y-103771625D01*
X124836798Y-103771625D01*
X124717711Y-103652538D01*
X124506375Y-103565000D01*
X124324173Y-103565000D01*
X124439462Y-103449711D01*
X124527000Y-103238375D01*
X124527000Y-103009625D01*
X129219000Y-103009625D01*
X129219000Y-103238375D01*
X129306538Y-103449711D01*
X129468289Y-103611462D01*
X129679625Y-103699000D01*
X129908375Y-103699000D01*
X130119711Y-103611462D01*
X130281462Y-103449711D01*
X130369000Y-103238375D01*
X130369000Y-103009625D01*
X130281462Y-102798289D01*
X130119711Y-102636538D01*
X130004565Y-102588843D01*
X138036000Y-102588843D01*
X138036000Y-102897157D01*
X138153987Y-103182002D01*
X138371998Y-103400013D01*
X138656843Y-103518000D01*
X138965157Y-103518000D01*
X139250002Y-103400013D01*
X139468013Y-103182002D01*
X139586000Y-102897157D01*
X139586000Y-102588843D01*
X139468013Y-102303998D01*
X139250002Y-102085987D01*
X138965157Y-101968000D01*
X138656843Y-101968000D01*
X138371998Y-102085987D01*
X138153987Y-102303998D01*
X138036000Y-102588843D01*
X130004565Y-102588843D01*
X129908375Y-102549000D01*
X129679625Y-102549000D01*
X129468289Y-102636538D01*
X129306538Y-102798289D01*
X129219000Y-103009625D01*
X124527000Y-103009625D01*
X124439462Y-102798289D01*
X124277711Y-102636538D01*
X124066375Y-102549000D01*
X123837625Y-102549000D01*
X123626289Y-102636538D01*
X123464538Y-102798289D01*
X123377000Y-103009625D01*
X94961766Y-103009625D01*
X95028000Y-102849722D01*
X95028000Y-102382278D01*
X94850537Y-101953843D01*
X111239000Y-101953843D01*
X111239000Y-102262157D01*
X111356987Y-102547002D01*
X111574998Y-102765013D01*
X111859843Y-102883000D01*
X112168157Y-102883000D01*
X112453002Y-102765013D01*
X112671013Y-102547002D01*
X112789000Y-102262157D01*
X112789000Y-101953843D01*
X121780000Y-101953843D01*
X121780000Y-102262157D01*
X121897987Y-102547002D01*
X122115998Y-102765013D01*
X122400843Y-102883000D01*
X122709157Y-102883000D01*
X122994002Y-102765013D01*
X123212013Y-102547002D01*
X123330000Y-102262157D01*
X123330000Y-101953843D01*
X123212013Y-101668998D01*
X122994002Y-101450987D01*
X122709157Y-101333000D01*
X122400843Y-101333000D01*
X122115998Y-101450987D01*
X121897987Y-101668998D01*
X121780000Y-101953843D01*
X112789000Y-101953843D01*
X112671013Y-101668998D01*
X112453002Y-101450987D01*
X112168157Y-101333000D01*
X111859843Y-101333000D01*
X111574998Y-101450987D01*
X111356987Y-101668998D01*
X111239000Y-101953843D01*
X94850537Y-101953843D01*
X94849117Y-101950416D01*
X94518584Y-101619883D01*
X94086722Y-101441000D01*
X93619278Y-101441000D01*
X93187416Y-101619883D01*
X92856883Y-101950416D01*
X92678000Y-102382278D01*
X91819000Y-102382278D01*
X91819000Y-101191843D01*
X140322000Y-101191843D01*
X140322000Y-101500157D01*
X140439987Y-101785002D01*
X140657998Y-102003013D01*
X140942843Y-102121000D01*
X141251157Y-102121000D01*
X141536002Y-102003013D01*
X141754013Y-101785002D01*
X141872000Y-101500157D01*
X141872000Y-101191843D01*
X142608000Y-101191843D01*
X142608000Y-101500157D01*
X142725987Y-101785002D01*
X142943998Y-102003013D01*
X143228843Y-102121000D01*
X143537157Y-102121000D01*
X143822002Y-102003013D01*
X144040013Y-101785002D01*
X144158000Y-101500157D01*
X144158000Y-101191843D01*
X144040013Y-100906998D01*
X143822002Y-100688987D01*
X143537157Y-100571000D01*
X143228843Y-100571000D01*
X142943998Y-100688987D01*
X142725987Y-100906998D01*
X142608000Y-101191843D01*
X141872000Y-101191843D01*
X141754013Y-100906998D01*
X141536002Y-100688987D01*
X141251157Y-100571000D01*
X140942843Y-100571000D01*
X140657998Y-100688987D01*
X140439987Y-100906998D01*
X140322000Y-101191843D01*
X91819000Y-101191843D01*
X91819000Y-100302843D01*
X164325000Y-100302843D01*
X164325000Y-100611157D01*
X164442987Y-100896002D01*
X164448485Y-100901500D01*
X164442987Y-100906998D01*
X164325000Y-101191843D01*
X164325000Y-101500157D01*
X164442987Y-101785002D01*
X164660998Y-102003013D01*
X164945843Y-102121000D01*
X165254157Y-102121000D01*
X165539002Y-102003013D01*
X165608000Y-101934015D01*
X165676998Y-102003013D01*
X165961843Y-102121000D01*
X166270157Y-102121000D01*
X166555002Y-102003013D01*
X166687500Y-101870515D01*
X166819998Y-102003013D01*
X167104843Y-102121000D01*
X167413157Y-102121000D01*
X167698002Y-102003013D01*
X167916013Y-101785002D01*
X168034000Y-101500157D01*
X168034000Y-101191843D01*
X167916013Y-100906998D01*
X167910515Y-100901500D01*
X167916013Y-100896002D01*
X168034000Y-100611157D01*
X168034000Y-100302843D01*
X167916013Y-100017998D01*
X167698002Y-99799987D01*
X167413157Y-99682000D01*
X167104843Y-99682000D01*
X166819998Y-99799987D01*
X166687500Y-99932485D01*
X166555002Y-99799987D01*
X166270157Y-99682000D01*
X165961843Y-99682000D01*
X165676998Y-99799987D01*
X165608000Y-99868985D01*
X165539002Y-99799987D01*
X165254157Y-99682000D01*
X164945843Y-99682000D01*
X164660998Y-99799987D01*
X164442987Y-100017998D01*
X164325000Y-100302843D01*
X91819000Y-100302843D01*
X91819000Y-97508843D01*
X125844000Y-97508843D01*
X125844000Y-97817157D01*
X125961987Y-98102002D01*
X126179998Y-98320013D01*
X126464843Y-98438000D01*
X126773157Y-98438000D01*
X127058002Y-98320013D01*
X127276013Y-98102002D01*
X127394000Y-97817157D01*
X127394000Y-97508843D01*
X127276013Y-97223998D01*
X127058002Y-97005987D01*
X126804542Y-96901000D01*
X166118000Y-96901000D01*
X166118000Y-98679000D01*
X166127515Y-98726835D01*
X166161651Y-98773907D01*
X167050651Y-99535907D01*
X167093163Y-99559814D01*
X167132000Y-99566000D01*
X168404000Y-99566000D01*
X168404000Y-109982000D01*
X168413515Y-110029835D01*
X168440612Y-110070388D01*
X168481165Y-110097485D01*
X168529000Y-110107000D01*
X168910000Y-110107000D01*
X168957835Y-110097485D01*
X168998388Y-110070388D01*
X169025485Y-110029835D01*
X169035000Y-109982000D01*
X169035000Y-102882625D01*
X189290000Y-102882625D01*
X189290000Y-103111375D01*
X189377538Y-103322711D01*
X189539289Y-103484462D01*
X189750625Y-103572000D01*
X189979375Y-103572000D01*
X190190711Y-103484462D01*
X190352462Y-103322711D01*
X190440000Y-103111375D01*
X190440000Y-102882625D01*
X190352462Y-102671289D01*
X190190711Y-102509538D01*
X189979375Y-102422000D01*
X189750625Y-102422000D01*
X189539289Y-102509538D01*
X189377538Y-102671289D01*
X189290000Y-102882625D01*
X169035000Y-102882625D01*
X169035000Y-100596625D01*
X187512000Y-100596625D01*
X187512000Y-100825375D01*
X187599538Y-101036711D01*
X187761289Y-101198462D01*
X187972625Y-101286000D01*
X188201375Y-101286000D01*
X188412711Y-101198462D01*
X188574462Y-101036711D01*
X188662000Y-100825375D01*
X188662000Y-100596625D01*
X188574462Y-100385289D01*
X188417147Y-100227974D01*
X188694843Y-100343000D01*
X189003157Y-100343000D01*
X189151408Y-100281592D01*
X189090000Y-100429843D01*
X189090000Y-100738157D01*
X189207987Y-101023002D01*
X189425998Y-101241013D01*
X189710843Y-101359000D01*
X190019157Y-101359000D01*
X190304002Y-101241013D01*
X190522013Y-101023002D01*
X190640000Y-100738157D01*
X190640000Y-100429843D01*
X190522013Y-100144998D01*
X190453015Y-100076000D01*
X190522013Y-100007002D01*
X190640000Y-99722157D01*
X190640000Y-99413843D01*
X190522013Y-99128998D01*
X190453015Y-99060000D01*
X190522013Y-98991002D01*
X190640000Y-98706157D01*
X190640000Y-98397843D01*
X190522013Y-98112998D01*
X190453015Y-98044000D01*
X190522013Y-97975002D01*
X190640000Y-97690157D01*
X190640000Y-97381843D01*
X190522013Y-97096998D01*
X190304002Y-96878987D01*
X190019157Y-96761000D01*
X189710843Y-96761000D01*
X189425998Y-96878987D01*
X189357000Y-96947985D01*
X189288002Y-96878987D01*
X189003157Y-96761000D01*
X188694843Y-96761000D01*
X188409998Y-96878987D01*
X188191987Y-97096998D01*
X188074000Y-97381843D01*
X188074000Y-97690157D01*
X188191987Y-97975002D01*
X188260985Y-98044000D01*
X188191987Y-98112998D01*
X188074000Y-98397843D01*
X188074000Y-98706157D01*
X188191987Y-98991002D01*
X188260985Y-99060000D01*
X188191987Y-99128998D01*
X188074000Y-99413843D01*
X188074000Y-99722157D01*
X188191987Y-100007002D01*
X188405562Y-100220577D01*
X188201375Y-100136000D01*
X187972625Y-100136000D01*
X187761289Y-100223538D01*
X187599538Y-100385289D01*
X187512000Y-100596625D01*
X169035000Y-100596625D01*
X169035000Y-99060000D01*
X169025485Y-99012165D01*
X168998388Y-98971612D01*
X168957835Y-98944515D01*
X168910000Y-98935000D01*
X167431257Y-98935000D01*
X166749000Y-98366453D01*
X166749000Y-96901000D01*
X166739485Y-96853165D01*
X166712388Y-96812612D01*
X166671835Y-96785515D01*
X166624000Y-96776000D01*
X166243000Y-96776000D01*
X166195165Y-96785515D01*
X166154612Y-96812612D01*
X166127515Y-96853165D01*
X166118000Y-96901000D01*
X126804542Y-96901000D01*
X126773157Y-96888000D01*
X126464843Y-96888000D01*
X126179998Y-97005987D01*
X125961987Y-97223998D01*
X125844000Y-97508843D01*
X91819000Y-97508843D01*
X91819000Y-90295000D01*
X150114000Y-90295000D01*
X150161835Y-90285485D01*
X150202388Y-90258388D01*
X150229485Y-90217835D01*
X150239000Y-90170000D01*
X150239000Y-86677425D01*
X150859800Y-86677425D01*
X150859800Y-86906175D01*
X150947338Y-87117511D01*
X151109089Y-87279262D01*
X151320425Y-87366800D01*
X151549175Y-87366800D01*
X151760511Y-87279262D01*
X151922262Y-87117511D01*
X152009800Y-86906175D01*
X152009800Y-86677425D01*
X152142500Y-86677425D01*
X152142500Y-86906175D01*
X152230038Y-87117511D01*
X152391789Y-87279262D01*
X152603125Y-87366800D01*
X152831875Y-87366800D01*
X153043211Y-87279262D01*
X153204962Y-87117511D01*
X153231850Y-87052597D01*
X153258738Y-87117511D01*
X153420489Y-87279262D01*
X153631825Y-87366800D01*
X153860575Y-87366800D01*
X154071911Y-87279262D01*
X154233662Y-87117511D01*
X154321200Y-86906175D01*
X154321200Y-86677425D01*
X154479300Y-86677425D01*
X154479300Y-86906175D01*
X154566838Y-87117511D01*
X154728589Y-87279262D01*
X154939925Y-87366800D01*
X155168675Y-87366800D01*
X155380011Y-87279262D01*
X155541762Y-87117511D01*
X155629300Y-86906175D01*
X155629300Y-86677425D01*
X155541762Y-86466089D01*
X155380011Y-86304338D01*
X155168675Y-86216800D01*
X154939925Y-86216800D01*
X154728589Y-86304338D01*
X154566838Y-86466089D01*
X154479300Y-86677425D01*
X154321200Y-86677425D01*
X154233662Y-86466089D01*
X154071911Y-86304338D01*
X153860575Y-86216800D01*
X153631825Y-86216800D01*
X153420489Y-86304338D01*
X153258738Y-86466089D01*
X153231850Y-86531003D01*
X153204962Y-86466089D01*
X153043211Y-86304338D01*
X152831875Y-86216800D01*
X152603125Y-86216800D01*
X152391789Y-86304338D01*
X152230038Y-86466089D01*
X152142500Y-86677425D01*
X152009800Y-86677425D01*
X151922262Y-86466089D01*
X151760511Y-86304338D01*
X151549175Y-86216800D01*
X151320425Y-86216800D01*
X151109089Y-86304338D01*
X150947338Y-86466089D01*
X150859800Y-86677425D01*
X150239000Y-86677425D01*
X150239000Y-82845667D01*
X150807417Y-82087777D01*
X150807638Y-82088311D01*
X150969389Y-82250062D01*
X151180725Y-82337600D01*
X151409475Y-82337600D01*
X151620811Y-82250062D01*
X151782562Y-82088311D01*
X151870100Y-81876975D01*
X151870100Y-81648225D01*
X151782562Y-81436889D01*
X151620811Y-81275138D01*
X151422814Y-81193125D01*
X151704898Y-80770000D01*
X152275000Y-80770000D01*
X152275000Y-81788000D01*
X152284515Y-81835835D01*
X152303255Y-81867155D01*
X153446255Y-83264155D01*
X153450507Y-83269084D01*
X155958000Y-86027326D01*
X155958000Y-93472000D01*
X155967515Y-93519835D01*
X155994612Y-93560388D01*
X156035165Y-93587485D01*
X156083000Y-93597000D01*
X166118000Y-93597000D01*
X166118000Y-96393000D01*
X166127515Y-96440835D01*
X166154612Y-96481388D01*
X166195165Y-96508485D01*
X166243000Y-96518000D01*
X166624000Y-96518000D01*
X166671835Y-96508485D01*
X166712388Y-96481388D01*
X166739485Y-96440835D01*
X166749000Y-96393000D01*
X166749000Y-93091000D01*
X166739485Y-93043165D01*
X166712388Y-93002612D01*
X166671835Y-92975515D01*
X166624000Y-92966000D01*
X156589000Y-92966000D01*
X156589000Y-85725000D01*
X156579485Y-85677165D01*
X156554419Y-85638691D01*
X154951675Y-83959625D01*
X174558000Y-83959625D01*
X174558000Y-84188375D01*
X174645538Y-84399711D01*
X174807289Y-84561462D01*
X175018625Y-84649000D01*
X175247375Y-84649000D01*
X175458711Y-84561462D01*
X175620462Y-84399711D01*
X175708000Y-84188375D01*
X175708000Y-83959625D01*
X175620462Y-83748289D01*
X175458711Y-83586538D01*
X175247375Y-83499000D01*
X175018625Y-83499000D01*
X174807289Y-83586538D01*
X174645538Y-83748289D01*
X174558000Y-83959625D01*
X154951675Y-83959625D01*
X153888955Y-82846300D01*
X153491269Y-82398904D01*
X153649462Y-82240711D01*
X153737000Y-82029375D01*
X153737000Y-81800625D01*
X153649462Y-81589289D01*
X153487711Y-81427538D01*
X153276375Y-81340000D01*
X153047625Y-81340000D01*
X152906000Y-81398663D01*
X152906000Y-80264000D01*
X152896485Y-80216165D01*
X152869388Y-80175612D01*
X152828835Y-80148515D01*
X152781000Y-80139000D01*
X152670200Y-80139000D01*
X152670200Y-80048025D01*
X152633377Y-79959125D01*
X156308100Y-79959125D01*
X156308100Y-80187875D01*
X156395638Y-80399211D01*
X156557389Y-80560962D01*
X156768725Y-80648500D01*
X156997475Y-80648500D01*
X157208811Y-80560962D01*
X157370562Y-80399211D01*
X157458100Y-80187875D01*
X157458100Y-79959125D01*
X157370562Y-79747789D01*
X157208811Y-79586038D01*
X156997475Y-79498500D01*
X156768725Y-79498500D01*
X156557389Y-79586038D01*
X156395638Y-79747789D01*
X156308100Y-79959125D01*
X152633377Y-79959125D01*
X152582662Y-79836689D01*
X152420911Y-79674938D01*
X152209575Y-79587400D01*
X151980825Y-79587400D01*
X151769489Y-79674938D01*
X151607738Y-79836689D01*
X151520200Y-80048025D01*
X151520200Y-80139000D01*
X151384000Y-80139000D01*
X151336165Y-80148515D01*
X151295612Y-80175612D01*
X151276813Y-80199688D01*
X150991167Y-80675765D01*
X150969762Y-80624089D01*
X150808011Y-80462338D01*
X150596675Y-80374800D01*
X150367925Y-80374800D01*
X150156589Y-80462338D01*
X149994838Y-80624089D01*
X149907300Y-80835425D01*
X149907300Y-81064175D01*
X149994838Y-81275511D01*
X150156589Y-81437262D01*
X150367925Y-81524800D01*
X150470797Y-81524800D01*
X149910787Y-82244814D01*
X149893611Y-82227638D01*
X149682275Y-82140100D01*
X149453525Y-82140100D01*
X149242189Y-82227638D01*
X149080438Y-82389389D01*
X148992900Y-82600725D01*
X148992900Y-82829475D01*
X149067023Y-83008424D01*
X148932975Y-82952900D01*
X148704225Y-82952900D01*
X148492889Y-83040438D01*
X148331138Y-83202189D01*
X148243600Y-83413525D01*
X148243600Y-83642275D01*
X148331138Y-83853611D01*
X148492889Y-84015362D01*
X148665615Y-84086907D01*
X148577000Y-84300843D01*
X148577000Y-84609157D01*
X148694987Y-84894002D01*
X148912998Y-85112013D01*
X149197843Y-85230000D01*
X149506157Y-85230000D01*
X149608000Y-85187815D01*
X149608000Y-89664000D01*
X123442000Y-89664000D01*
X123442000Y-86675743D01*
X145402000Y-86675743D01*
X145402000Y-86984057D01*
X145519987Y-87268902D01*
X145737998Y-87486913D01*
X146022843Y-87604900D01*
X146331157Y-87604900D01*
X146616002Y-87486913D01*
X146834013Y-87268902D01*
X146952000Y-86984057D01*
X146952000Y-86675743D01*
X146834013Y-86390898D01*
X146616002Y-86172887D01*
X146331157Y-86054900D01*
X146022843Y-86054900D01*
X145737998Y-86172887D01*
X145519987Y-86390898D01*
X145402000Y-86675743D01*
X123442000Y-86675743D01*
X123442000Y-83337325D01*
X145589300Y-83337325D01*
X145589300Y-83566075D01*
X145676838Y-83777411D01*
X145838589Y-83939162D01*
X146049925Y-84026700D01*
X146278675Y-84026700D01*
X146490011Y-83939162D01*
X146651762Y-83777411D01*
X146739300Y-83566075D01*
X146739300Y-83337325D01*
X146651762Y-83125989D01*
X146490011Y-82964238D01*
X146278675Y-82876700D01*
X146049925Y-82876700D01*
X145838589Y-82964238D01*
X145676838Y-83125989D01*
X145589300Y-83337325D01*
X123442000Y-83337325D01*
X123442000Y-80935343D01*
X125005800Y-80935343D01*
X125005800Y-81243657D01*
X125123787Y-81528502D01*
X125341798Y-81746513D01*
X125626643Y-81864500D01*
X125934957Y-81864500D01*
X126219802Y-81746513D01*
X126318090Y-81648225D01*
X145919500Y-81648225D01*
X145919500Y-81876975D01*
X146007038Y-82088311D01*
X146168789Y-82250062D01*
X146380125Y-82337600D01*
X146608875Y-82337600D01*
X146815855Y-82251866D01*
X146745000Y-82422925D01*
X146745000Y-82651675D01*
X146832538Y-82863011D01*
X146994289Y-83024762D01*
X147205625Y-83112300D01*
X147434375Y-83112300D01*
X147645711Y-83024762D01*
X147807462Y-82863011D01*
X147895000Y-82651675D01*
X147895000Y-82422925D01*
X147807462Y-82211589D01*
X147726773Y-82130900D01*
X147782062Y-82075611D01*
X147869600Y-81864275D01*
X147869600Y-81635525D01*
X147788676Y-81440156D01*
X147993025Y-81524800D01*
X148221775Y-81524800D01*
X148433111Y-81437262D01*
X148496020Y-81374353D01*
X148569089Y-81447422D01*
X148780425Y-81534960D01*
X149009175Y-81534960D01*
X149220511Y-81447422D01*
X149382262Y-81285671D01*
X149469800Y-81074335D01*
X149469800Y-80845585D01*
X149382262Y-80634249D01*
X149220511Y-80472498D01*
X149009175Y-80384960D01*
X148780425Y-80384960D01*
X148569089Y-80472498D01*
X148506180Y-80535407D01*
X148433111Y-80462338D01*
X148221775Y-80374800D01*
X147993025Y-80374800D01*
X147781689Y-80462338D01*
X147707350Y-80536677D01*
X147633011Y-80462338D01*
X147421675Y-80374800D01*
X147192925Y-80374800D01*
X146981589Y-80462338D01*
X146819838Y-80624089D01*
X146732300Y-80835425D01*
X146732300Y-81064175D01*
X146819574Y-81274874D01*
X146608875Y-81187600D01*
X146380125Y-81187600D01*
X146168789Y-81275138D01*
X146007038Y-81436889D01*
X145919500Y-81648225D01*
X126318090Y-81648225D01*
X126437813Y-81528502D01*
X126555800Y-81243657D01*
X126555800Y-80935343D01*
X126437813Y-80650498D01*
X126219802Y-80432487D01*
X125934957Y-80314500D01*
X125626643Y-80314500D01*
X125341798Y-80432487D01*
X125123787Y-80650498D01*
X125005800Y-80935343D01*
X123442000Y-80935343D01*
X123442000Y-79656865D01*
X132495600Y-79656865D01*
X132495600Y-79885615D01*
X132583138Y-80096951D01*
X132744889Y-80258702D01*
X132956225Y-80346240D01*
X133184975Y-80346240D01*
X133396311Y-80258702D01*
X133558062Y-80096951D01*
X133645600Y-79885615D01*
X133645600Y-79738145D01*
X140432341Y-79738145D01*
X140432341Y-79966895D01*
X140519879Y-80178231D01*
X140681630Y-80339982D01*
X140892966Y-80427520D01*
X141121716Y-80427520D01*
X141333052Y-80339982D01*
X141494803Y-80178231D01*
X141582341Y-79966895D01*
X141582341Y-79738145D01*
X141494803Y-79526809D01*
X141333794Y-79365800D01*
X141516175Y-79365800D01*
X141727511Y-79278262D01*
X141889262Y-79116511D01*
X141976800Y-78905175D01*
X141976800Y-78830245D01*
X143379500Y-78830245D01*
X143379500Y-79058995D01*
X143467038Y-79270331D01*
X143628789Y-79432082D01*
X143840125Y-79519620D01*
X144068875Y-79519620D01*
X144280211Y-79432082D01*
X144441962Y-79270331D01*
X144529500Y-79058995D01*
X144529500Y-78830245D01*
X144441962Y-78618909D01*
X144280211Y-78457158D01*
X144068875Y-78369620D01*
X143840125Y-78369620D01*
X143628789Y-78457158D01*
X143467038Y-78618909D01*
X143379500Y-78830245D01*
X141976800Y-78830245D01*
X141976800Y-78676425D01*
X141889262Y-78465089D01*
X141727511Y-78303338D01*
X141516175Y-78215800D01*
X141287425Y-78215800D01*
X141076089Y-78303338D01*
X140914338Y-78465089D01*
X140826800Y-78676425D01*
X140826800Y-78905175D01*
X140914338Y-79116511D01*
X141075347Y-79277520D01*
X140892966Y-79277520D01*
X140681630Y-79365058D01*
X140519879Y-79526809D01*
X140432341Y-79738145D01*
X133645600Y-79738145D01*
X133645600Y-79656865D01*
X133558062Y-79445529D01*
X133396311Y-79283778D01*
X133184975Y-79196240D01*
X132956225Y-79196240D01*
X132744889Y-79283778D01*
X132583138Y-79445529D01*
X132495600Y-79656865D01*
X123442000Y-79656865D01*
X123442000Y-78508785D01*
X132023160Y-78508785D01*
X132023160Y-78737535D01*
X132110698Y-78948871D01*
X132272449Y-79110622D01*
X132483785Y-79198160D01*
X132712535Y-79198160D01*
X132923871Y-79110622D01*
X133085622Y-78948871D01*
X133173160Y-78737535D01*
X133173160Y-78508785D01*
X139246920Y-78508785D01*
X139246920Y-78737535D01*
X139334458Y-78948871D01*
X139496209Y-79110622D01*
X139707545Y-79198160D01*
X139936295Y-79198160D01*
X140147631Y-79110622D01*
X140309382Y-78948871D01*
X140396920Y-78737535D01*
X140396920Y-78508785D01*
X140309382Y-78297449D01*
X140147631Y-78135698D01*
X139936295Y-78048160D01*
X139707545Y-78048160D01*
X139496209Y-78135698D01*
X139334458Y-78297449D01*
X139246920Y-78508785D01*
X133173160Y-78508785D01*
X133085622Y-78297449D01*
X132923871Y-78135698D01*
X132712535Y-78048160D01*
X132483785Y-78048160D01*
X132272449Y-78135698D01*
X132110698Y-78297449D01*
X132023160Y-78508785D01*
X123442000Y-78508785D01*
X123442000Y-77198145D01*
X132231440Y-77198145D01*
X132231440Y-77426895D01*
X132318978Y-77638231D01*
X132480729Y-77799982D01*
X132692065Y-77887520D01*
X132920815Y-77887520D01*
X133132151Y-77799982D01*
X133293902Y-77638231D01*
X133326792Y-77558825D01*
X144217700Y-77558825D01*
X144217700Y-77787575D01*
X144305238Y-77998911D01*
X144466989Y-78160662D01*
X144678325Y-78248200D01*
X144907075Y-78248200D01*
X145118411Y-78160662D01*
X145202347Y-78076726D01*
X145206938Y-78087811D01*
X145368689Y-78249562D01*
X145580025Y-78337100D01*
X145808775Y-78337100D01*
X146020111Y-78249562D01*
X146107150Y-78162523D01*
X146206889Y-78262262D01*
X146418225Y-78349800D01*
X146646975Y-78349800D01*
X146783653Y-78293186D01*
X146719600Y-78447825D01*
X146719600Y-78676575D01*
X146807138Y-78887911D01*
X146881477Y-78962250D01*
X146807138Y-79036589D01*
X146719600Y-79247925D01*
X146719600Y-79476675D01*
X146807138Y-79688011D01*
X146968889Y-79849762D01*
X147180225Y-79937300D01*
X147408975Y-79937300D01*
X147620311Y-79849762D01*
X147782062Y-79688011D01*
X147869600Y-79476675D01*
X147869600Y-79247925D01*
X147791306Y-79058906D01*
X147980325Y-79137200D01*
X148209075Y-79137200D01*
X148420411Y-79049662D01*
X148582162Y-78887911D01*
X148669700Y-78676575D01*
X148669700Y-78447825D01*
X149132600Y-78447825D01*
X149132600Y-78676575D01*
X149220138Y-78887911D01*
X149381889Y-79049662D01*
X149593225Y-79137200D01*
X149821975Y-79137200D01*
X150033311Y-79049662D01*
X150195062Y-78887911D01*
X150282600Y-78676575D01*
X150282600Y-78447825D01*
X150195062Y-78236489D01*
X150033311Y-78074738D01*
X149821975Y-77987200D01*
X149593225Y-77987200D01*
X149381889Y-78074738D01*
X149220138Y-78236489D01*
X149132600Y-78447825D01*
X148669700Y-78447825D01*
X148582162Y-78236489D01*
X148514173Y-78168500D01*
X148594862Y-78087811D01*
X148682400Y-77876475D01*
X148682400Y-77647725D01*
X148594862Y-77436389D01*
X148433111Y-77274638D01*
X148221775Y-77187100D01*
X147993025Y-77187100D01*
X147781689Y-77274638D01*
X147619938Y-77436389D01*
X147532400Y-77647725D01*
X147532400Y-77876475D01*
X147613324Y-78071844D01*
X147408975Y-77987200D01*
X147180225Y-77987200D01*
X147043547Y-78043814D01*
X147107600Y-77889175D01*
X147107600Y-77660425D01*
X147020062Y-77449089D01*
X146858311Y-77287338D01*
X146646975Y-77199800D01*
X146418225Y-77199800D01*
X146206889Y-77287338D01*
X146119850Y-77374377D01*
X146020111Y-77274638D01*
X145808775Y-77187100D01*
X145580025Y-77187100D01*
X145368689Y-77274638D01*
X145284753Y-77358574D01*
X145280162Y-77347489D01*
X145118411Y-77185738D01*
X144907075Y-77098200D01*
X144678325Y-77098200D01*
X144466989Y-77185738D01*
X144305238Y-77347489D01*
X144217700Y-77558825D01*
X133326792Y-77558825D01*
X133381440Y-77426895D01*
X133381440Y-77198145D01*
X133293902Y-76986809D01*
X133205518Y-76898425D01*
X150669300Y-76898425D01*
X150669300Y-77127175D01*
X150756838Y-77338511D01*
X150831177Y-77412850D01*
X150807638Y-77436389D01*
X150720100Y-77647725D01*
X150720100Y-77876475D01*
X150807638Y-78087811D01*
X150881977Y-78162150D01*
X150782238Y-78261889D01*
X150694700Y-78473225D01*
X150694700Y-78701975D01*
X150782238Y-78913311D01*
X150943989Y-79075062D01*
X151155325Y-79162600D01*
X151384075Y-79162600D01*
X151595411Y-79075062D01*
X151757162Y-78913311D01*
X151844700Y-78701975D01*
X151844700Y-78473225D01*
X151757162Y-78261889D01*
X151682823Y-78187550D01*
X151782562Y-78087811D01*
X151870100Y-77876475D01*
X151870100Y-77647725D01*
X151782562Y-77436389D01*
X151708223Y-77362050D01*
X151731762Y-77338511D01*
X151819300Y-77127175D01*
X151819300Y-76898425D01*
X151731762Y-76687089D01*
X151657423Y-76612750D01*
X151669750Y-76600423D01*
X151744089Y-76674762D01*
X151955425Y-76762300D01*
X152184175Y-76762300D01*
X152395511Y-76674762D01*
X152527448Y-76542825D01*
X152942600Y-76542825D01*
X152942600Y-76771575D01*
X153030138Y-76982911D01*
X153191889Y-77144662D01*
X153403225Y-77232200D01*
X153631975Y-77232200D01*
X153843311Y-77144662D01*
X154005062Y-76982911D01*
X154092600Y-76771575D01*
X154092600Y-76542825D01*
X154005062Y-76331489D01*
X153843311Y-76169738D01*
X153808515Y-76155325D01*
X154187200Y-76155325D01*
X154187200Y-76384075D01*
X154274738Y-76595411D01*
X154436489Y-76757162D01*
X154647825Y-76844700D01*
X154876575Y-76844700D01*
X155087911Y-76757162D01*
X155249662Y-76595411D01*
X155337200Y-76384075D01*
X155337200Y-76155325D01*
X155249662Y-75943989D01*
X155147361Y-75841688D01*
X189813100Y-75841688D01*
X189813100Y-76130112D01*
X189923474Y-76396580D01*
X189937794Y-76410900D01*
X189923474Y-76425220D01*
X189813100Y-76691688D01*
X189813100Y-76980112D01*
X189923474Y-77246580D01*
X189937794Y-77260900D01*
X189923474Y-77275220D01*
X189813100Y-77541688D01*
X189813100Y-77830112D01*
X189923474Y-78096580D01*
X189937794Y-78110900D01*
X189923474Y-78125220D01*
X189813100Y-78391688D01*
X189813100Y-78680112D01*
X189923474Y-78946580D01*
X189937794Y-78960900D01*
X189923474Y-78975220D01*
X189813100Y-79241688D01*
X189813100Y-79530112D01*
X189923474Y-79796580D01*
X189937794Y-79810900D01*
X189923474Y-79825220D01*
X189813100Y-80091688D01*
X189813100Y-80380112D01*
X189923474Y-80646580D01*
X190127420Y-80850526D01*
X190393888Y-80960900D01*
X190682312Y-80960900D01*
X190948780Y-80850526D01*
X191152726Y-80646580D01*
X191213100Y-80500823D01*
X191273474Y-80646580D01*
X191477420Y-80850526D01*
X191743888Y-80960900D01*
X192032312Y-80960900D01*
X192298780Y-80850526D01*
X192502726Y-80646580D01*
X192613100Y-80380112D01*
X192613100Y-80091688D01*
X192502726Y-79825220D01*
X192488406Y-79810900D01*
X192502726Y-79796580D01*
X192613100Y-79530112D01*
X192613100Y-79241688D01*
X192502726Y-78975220D01*
X192488406Y-78960900D01*
X192502726Y-78946580D01*
X192613100Y-78680112D01*
X192613100Y-78391688D01*
X192502726Y-78125220D01*
X192488406Y-78110900D01*
X192502726Y-78096580D01*
X192613100Y-77830112D01*
X192613100Y-77541688D01*
X192502726Y-77275220D01*
X192488406Y-77260900D01*
X192502726Y-77246580D01*
X192613100Y-76980112D01*
X192613100Y-76691688D01*
X192502726Y-76425220D01*
X192488406Y-76410900D01*
X192502726Y-76396580D01*
X192613100Y-76130112D01*
X192613100Y-75841688D01*
X192502726Y-75575220D01*
X192298780Y-75371274D01*
X192032312Y-75260900D01*
X191743888Y-75260900D01*
X191477420Y-75371274D01*
X191273474Y-75575220D01*
X191213100Y-75720977D01*
X191152726Y-75575220D01*
X190948780Y-75371274D01*
X190682312Y-75260900D01*
X190393888Y-75260900D01*
X190127420Y-75371274D01*
X189923474Y-75575220D01*
X189813100Y-75841688D01*
X155147361Y-75841688D01*
X155087911Y-75782238D01*
X154876575Y-75694700D01*
X154647825Y-75694700D01*
X154436489Y-75782238D01*
X154274738Y-75943989D01*
X154187200Y-76155325D01*
X153808515Y-76155325D01*
X153631975Y-76082200D01*
X153403225Y-76082200D01*
X153191889Y-76169738D01*
X153030138Y-76331489D01*
X152942600Y-76542825D01*
X152527448Y-76542825D01*
X152557262Y-76513011D01*
X152644800Y-76301675D01*
X152644800Y-76072925D01*
X152572856Y-75899236D01*
X152755525Y-75974900D01*
X152984275Y-75974900D01*
X153195611Y-75887362D01*
X153357362Y-75725611D01*
X153444900Y-75514275D01*
X153444900Y-75285525D01*
X153357362Y-75074189D01*
X153195611Y-74912438D01*
X152984275Y-74824900D01*
X152755525Y-74824900D01*
X152544189Y-74912438D01*
X152506680Y-74949947D01*
X152431071Y-74874338D01*
X152219735Y-74786800D01*
X151990985Y-74786800D01*
X151779649Y-74874338D01*
X151617898Y-75036089D01*
X151530360Y-75247425D01*
X151530360Y-75476175D01*
X151610758Y-75670274D01*
X151409475Y-75586900D01*
X151180725Y-75586900D01*
X150969389Y-75674438D01*
X150807638Y-75836189D01*
X150720100Y-76047525D01*
X150720100Y-76276275D01*
X150807638Y-76487611D01*
X150881977Y-76561950D01*
X150756838Y-76687089D01*
X150669300Y-76898425D01*
X133205518Y-76898425D01*
X133132151Y-76825058D01*
X132920815Y-76737520D01*
X132692065Y-76737520D01*
X132480729Y-76825058D01*
X132318978Y-76986809D01*
X132231440Y-77198145D01*
X123442000Y-77198145D01*
X123442000Y-76047525D01*
X145119400Y-76047525D01*
X145119400Y-76276275D01*
X145206938Y-76487611D01*
X145368689Y-76649362D01*
X145580025Y-76736900D01*
X145808775Y-76736900D01*
X146020111Y-76649362D01*
X146181862Y-76487611D01*
X146269400Y-76276275D01*
X146269400Y-76047525D01*
X146181862Y-75836189D01*
X146020111Y-75674438D01*
X145808775Y-75586900D01*
X145580025Y-75586900D01*
X145368689Y-75674438D01*
X145206938Y-75836189D01*
X145119400Y-76047525D01*
X123442000Y-76047525D01*
X123442000Y-74447325D01*
X144319300Y-74447325D01*
X144319300Y-74676075D01*
X144406838Y-74887411D01*
X144568589Y-75049162D01*
X144779925Y-75136700D01*
X145008675Y-75136700D01*
X145220011Y-75049162D01*
X145381762Y-74887411D01*
X145420919Y-74792877D01*
X145476743Y-74816000D01*
X145785057Y-74816000D01*
X146069902Y-74698013D01*
X146287913Y-74480002D01*
X146405900Y-74195157D01*
X146405900Y-73926625D01*
X147868898Y-73926625D01*
X147868898Y-74155375D01*
X147956436Y-74366711D01*
X148118187Y-74528462D01*
X148329523Y-74616000D01*
X148558273Y-74616000D01*
X148769609Y-74528462D01*
X148931360Y-74366711D01*
X149018898Y-74155375D01*
X149018898Y-73926625D01*
X149012941Y-73912243D01*
X149059600Y-73912243D01*
X149059600Y-74220557D01*
X149177587Y-74505402D01*
X149395598Y-74723413D01*
X149680443Y-74841400D01*
X149988757Y-74841400D01*
X150273602Y-74723413D01*
X150491613Y-74505402D01*
X150609600Y-74220557D01*
X150609600Y-73912243D01*
X150491613Y-73627398D01*
X150273602Y-73409387D01*
X149988757Y-73291400D01*
X149680443Y-73291400D01*
X149395598Y-73409387D01*
X149177587Y-73627398D01*
X149059600Y-73912243D01*
X149012941Y-73912243D01*
X148931360Y-73715289D01*
X148769609Y-73553538D01*
X148558273Y-73466000D01*
X148329523Y-73466000D01*
X148118187Y-73553538D01*
X147956436Y-73715289D01*
X147868898Y-73926625D01*
X146405900Y-73926625D01*
X146405900Y-73886843D01*
X146344756Y-73739229D01*
X146435489Y-73829962D01*
X146646825Y-73917500D01*
X146875575Y-73917500D01*
X147086911Y-73829962D01*
X147248662Y-73668211D01*
X147336200Y-73456875D01*
X147336200Y-73228125D01*
X147248662Y-73016789D01*
X147112544Y-72880671D01*
X147303913Y-72689302D01*
X147421900Y-72404457D01*
X147421900Y-72096143D01*
X147303913Y-71811298D01*
X147182358Y-71689743D01*
X154279300Y-71689743D01*
X154279300Y-71998057D01*
X154397287Y-72282902D01*
X154615298Y-72500913D01*
X154900143Y-72618900D01*
X155208457Y-72618900D01*
X155493302Y-72500913D01*
X155711313Y-72282902D01*
X155829300Y-71998057D01*
X155829300Y-71689743D01*
X155711313Y-71404898D01*
X155616840Y-71310425D01*
X157326640Y-71310425D01*
X157326640Y-71539175D01*
X157414178Y-71750511D01*
X157575929Y-71912262D01*
X157787265Y-71999800D01*
X158016015Y-71999800D01*
X158227351Y-71912262D01*
X158389102Y-71750511D01*
X158476640Y-71539175D01*
X158476640Y-71310425D01*
X158389102Y-71099089D01*
X158227351Y-70937338D01*
X158016015Y-70849800D01*
X157787265Y-70849800D01*
X157575929Y-70937338D01*
X157414178Y-71099089D01*
X157326640Y-71310425D01*
X155616840Y-71310425D01*
X155493302Y-71186887D01*
X155208457Y-71068900D01*
X154900143Y-71068900D01*
X154615298Y-71186887D01*
X154397287Y-71404898D01*
X154279300Y-71689743D01*
X147182358Y-71689743D01*
X147085902Y-71593287D01*
X146801057Y-71475300D01*
X146492743Y-71475300D01*
X146207898Y-71593287D01*
X145989887Y-71811298D01*
X145871900Y-72096143D01*
X145871900Y-72404457D01*
X145989887Y-72689302D01*
X146207898Y-72907313D01*
X146331865Y-72958662D01*
X146273738Y-73016789D01*
X146186200Y-73228125D01*
X146186200Y-73456875D01*
X146216895Y-73530980D01*
X146069902Y-73383987D01*
X145785057Y-73266000D01*
X145476743Y-73266000D01*
X145191898Y-73383987D01*
X144973887Y-73601998D01*
X144855900Y-73886843D01*
X144855900Y-73986700D01*
X144779925Y-73986700D01*
X144568589Y-74074238D01*
X144406838Y-74235989D01*
X144319300Y-74447325D01*
X123442000Y-74447325D01*
X123442000Y-72159643D01*
X140271200Y-72159643D01*
X140271200Y-72467957D01*
X140389187Y-72752802D01*
X140607198Y-72970813D01*
X140892043Y-73088800D01*
X141200357Y-73088800D01*
X141485202Y-72970813D01*
X141703213Y-72752802D01*
X141821200Y-72467957D01*
X141821200Y-72159643D01*
X141703213Y-71874798D01*
X141485202Y-71656787D01*
X141200357Y-71538800D01*
X140892043Y-71538800D01*
X140607198Y-71656787D01*
X140389187Y-71874798D01*
X140271200Y-72159643D01*
X123442000Y-72159643D01*
X123442000Y-70535725D01*
X131644700Y-70535725D01*
X131644700Y-70764475D01*
X131732238Y-70975811D01*
X131893989Y-71137562D01*
X132105325Y-71225100D01*
X132334075Y-71225100D01*
X132545411Y-71137562D01*
X132707162Y-70975811D01*
X132794700Y-70764475D01*
X132794700Y-70535725D01*
X132789440Y-70523025D01*
X151291600Y-70523025D01*
X151291600Y-70751775D01*
X151379138Y-70963111D01*
X151540889Y-71124862D01*
X151752225Y-71212400D01*
X151980975Y-71212400D01*
X152192311Y-71124862D01*
X152354062Y-70963111D01*
X152441600Y-70751775D01*
X152441600Y-70523025D01*
X152354062Y-70311689D01*
X152192311Y-70149938D01*
X151980975Y-70062400D01*
X151752225Y-70062400D01*
X151540889Y-70149938D01*
X151379138Y-70311689D01*
X151291600Y-70523025D01*
X132789440Y-70523025D01*
X132707162Y-70324389D01*
X132545411Y-70162638D01*
X132334075Y-70075100D01*
X132105325Y-70075100D01*
X131893989Y-70162638D01*
X131732238Y-70324389D01*
X131644700Y-70535725D01*
X123442000Y-70535725D01*
X123442000Y-69095545D01*
X156198880Y-69095545D01*
X156198880Y-69324295D01*
X156286418Y-69535631D01*
X156448169Y-69697382D01*
X156659505Y-69784920D01*
X156888255Y-69784920D01*
X157099591Y-69697382D01*
X157261342Y-69535631D01*
X157348880Y-69324295D01*
X157348880Y-69095545D01*
X157323630Y-69034585D01*
X157473960Y-69034585D01*
X157473960Y-69263335D01*
X157561498Y-69474671D01*
X157723249Y-69636422D01*
X157934585Y-69723960D01*
X158163335Y-69723960D01*
X158374671Y-69636422D01*
X158536422Y-69474671D01*
X158623960Y-69263335D01*
X158623960Y-69049825D01*
X158749040Y-69049825D01*
X158749040Y-69278575D01*
X158836578Y-69489911D01*
X158998329Y-69651662D01*
X159209665Y-69739200D01*
X159438415Y-69739200D01*
X159649751Y-69651662D01*
X159811502Y-69489911D01*
X159899040Y-69278575D01*
X159899040Y-69049825D01*
X159893780Y-69037125D01*
X160016500Y-69037125D01*
X160016500Y-69265875D01*
X160104038Y-69477211D01*
X160265789Y-69638962D01*
X160477125Y-69726500D01*
X160705875Y-69726500D01*
X160917211Y-69638962D01*
X161078962Y-69477211D01*
X161093611Y-69441843D01*
X178610000Y-69441843D01*
X178610000Y-69750157D01*
X178727987Y-70035002D01*
X178945998Y-70253013D01*
X179230843Y-70371000D01*
X179539157Y-70371000D01*
X179824002Y-70253013D01*
X180042013Y-70035002D01*
X180160000Y-69750157D01*
X180160000Y-69441843D01*
X180042013Y-69156998D01*
X179824002Y-68938987D01*
X179539157Y-68821000D01*
X179230843Y-68821000D01*
X178945998Y-68938987D01*
X178727987Y-69156998D01*
X178610000Y-69441843D01*
X161093611Y-69441843D01*
X161166500Y-69265875D01*
X161166500Y-69037125D01*
X161078962Y-68825789D01*
X160917211Y-68664038D01*
X160705875Y-68576500D01*
X160477125Y-68576500D01*
X160265789Y-68664038D01*
X160104038Y-68825789D01*
X160016500Y-69037125D01*
X159893780Y-69037125D01*
X159811502Y-68838489D01*
X159649751Y-68676738D01*
X159438415Y-68589200D01*
X159209665Y-68589200D01*
X158998329Y-68676738D01*
X158836578Y-68838489D01*
X158749040Y-69049825D01*
X158623960Y-69049825D01*
X158623960Y-69034585D01*
X158536422Y-68823249D01*
X158374671Y-68661498D01*
X158163335Y-68573960D01*
X157934585Y-68573960D01*
X157723249Y-68661498D01*
X157561498Y-68823249D01*
X157473960Y-69034585D01*
X157323630Y-69034585D01*
X157261342Y-68884209D01*
X157099591Y-68722458D01*
X156888255Y-68634920D01*
X156659505Y-68634920D01*
X156448169Y-68722458D01*
X156286418Y-68884209D01*
X156198880Y-69095545D01*
X123442000Y-69095545D01*
X123442000Y-66293925D01*
X150161300Y-66293925D01*
X150161300Y-66522675D01*
X150248838Y-66734011D01*
X150410589Y-66895762D01*
X150621925Y-66983300D01*
X150850675Y-66983300D01*
X151062011Y-66895762D01*
X151223762Y-66734011D01*
X151311300Y-66522675D01*
X151311300Y-66520843D01*
X170167000Y-66520843D01*
X170167000Y-66829157D01*
X170284987Y-67114002D01*
X170290485Y-67119500D01*
X170284987Y-67124998D01*
X170167000Y-67409843D01*
X170167000Y-67718157D01*
X170284987Y-68003002D01*
X170290485Y-68008500D01*
X170284987Y-68013998D01*
X170167000Y-68298843D01*
X170167000Y-68607157D01*
X170284987Y-68892002D01*
X170502998Y-69110013D01*
X170787843Y-69228000D01*
X171096157Y-69228000D01*
X171381002Y-69110013D01*
X171450000Y-69041015D01*
X171518998Y-69110013D01*
X171803843Y-69228000D01*
X172112157Y-69228000D01*
X172397002Y-69110013D01*
X172615013Y-68892002D01*
X172733000Y-68607157D01*
X172733000Y-68298843D01*
X172615013Y-68013998D01*
X172609515Y-68008500D01*
X172615013Y-68003002D01*
X172733000Y-67718157D01*
X172733000Y-67409843D01*
X172615013Y-67124998D01*
X172609515Y-67119500D01*
X172615013Y-67114002D01*
X172733000Y-66829157D01*
X172733000Y-66520843D01*
X181343000Y-66520843D01*
X181343000Y-66829157D01*
X181460987Y-67114002D01*
X181466485Y-67119500D01*
X181460987Y-67124998D01*
X181343000Y-67409843D01*
X181343000Y-67718157D01*
X181460987Y-68003002D01*
X181554010Y-68096025D01*
X181470000Y-68298843D01*
X181470000Y-68607157D01*
X181587987Y-68892002D01*
X181805998Y-69110013D01*
X182090843Y-69228000D01*
X182399157Y-69228000D01*
X182684002Y-69110013D01*
X182689500Y-69104515D01*
X182694998Y-69110013D01*
X182979843Y-69228000D01*
X183288157Y-69228000D01*
X183573002Y-69110013D01*
X183791013Y-68892002D01*
X183909000Y-68607157D01*
X183909000Y-68298843D01*
X183791013Y-68013998D01*
X183785515Y-68008500D01*
X183791013Y-68003002D01*
X183909000Y-67718157D01*
X183909000Y-67409843D01*
X183791013Y-67124998D01*
X183785515Y-67119500D01*
X183791013Y-67114002D01*
X183909000Y-66829157D01*
X183909000Y-66520843D01*
X183791013Y-66235998D01*
X183573002Y-66017987D01*
X183288157Y-65900000D01*
X182979843Y-65900000D01*
X182694998Y-66017987D01*
X182626000Y-66086985D01*
X182557002Y-66017987D01*
X182272157Y-65900000D01*
X181963843Y-65900000D01*
X181678998Y-66017987D01*
X181460987Y-66235998D01*
X181343000Y-66520843D01*
X172733000Y-66520843D01*
X172615013Y-66235998D01*
X172397002Y-66017987D01*
X172112157Y-65900000D01*
X171803843Y-65900000D01*
X171518998Y-66017987D01*
X171450000Y-66086985D01*
X171381002Y-66017987D01*
X171096157Y-65900000D01*
X170787843Y-65900000D01*
X170502998Y-66017987D01*
X170284987Y-66235998D01*
X170167000Y-66520843D01*
X151311300Y-66520843D01*
X151311300Y-66293925D01*
X151223762Y-66082589D01*
X151062011Y-65920838D01*
X150850675Y-65833300D01*
X150621925Y-65833300D01*
X150410589Y-65920838D01*
X150248838Y-66082589D01*
X150161300Y-66293925D01*
X123442000Y-66293925D01*
X123442000Y-64808025D01*
X130362000Y-64808025D01*
X130362000Y-65036775D01*
X130449538Y-65248111D01*
X130611289Y-65409862D01*
X130822625Y-65497400D01*
X131051375Y-65497400D01*
X131262711Y-65409862D01*
X131424462Y-65248111D01*
X131512000Y-65036775D01*
X131512000Y-64820725D01*
X131632000Y-64820725D01*
X131632000Y-65049475D01*
X131719538Y-65260811D01*
X131881289Y-65422562D01*
X132092625Y-65510100D01*
X132321375Y-65510100D01*
X132532711Y-65422562D01*
X132694462Y-65260811D01*
X132782000Y-65049475D01*
X132782000Y-64833425D01*
X132902000Y-64833425D01*
X132902000Y-65062175D01*
X132989538Y-65273511D01*
X133151289Y-65435262D01*
X133362625Y-65522800D01*
X133591375Y-65522800D01*
X133802711Y-65435262D01*
X133964462Y-65273511D01*
X134052000Y-65062175D01*
X134052000Y-64833425D01*
X134041480Y-64808025D01*
X134172000Y-64808025D01*
X134172000Y-65036775D01*
X134259538Y-65248111D01*
X134421289Y-65409862D01*
X134632625Y-65497400D01*
X134861375Y-65497400D01*
X135072711Y-65409862D01*
X135234462Y-65248111D01*
X135322000Y-65036775D01*
X135322000Y-64808025D01*
X135234462Y-64596689D01*
X135072711Y-64434938D01*
X134896244Y-64361843D01*
X166230000Y-64361843D01*
X166230000Y-64670157D01*
X166347987Y-64955002D01*
X166565998Y-65173013D01*
X166850843Y-65291000D01*
X167159157Y-65291000D01*
X167444002Y-65173013D01*
X167662013Y-64955002D01*
X167780000Y-64670157D01*
X167780000Y-64361843D01*
X167662013Y-64076998D01*
X167444002Y-63858987D01*
X167159157Y-63741000D01*
X166850843Y-63741000D01*
X166565998Y-63858987D01*
X166347987Y-64076998D01*
X166230000Y-64361843D01*
X134896244Y-64361843D01*
X134861375Y-64347400D01*
X134632625Y-64347400D01*
X134421289Y-64434938D01*
X134259538Y-64596689D01*
X134172000Y-64808025D01*
X134041480Y-64808025D01*
X133964462Y-64622089D01*
X133802711Y-64460338D01*
X133591375Y-64372800D01*
X133362625Y-64372800D01*
X133151289Y-64460338D01*
X132989538Y-64622089D01*
X132902000Y-64833425D01*
X132782000Y-64833425D01*
X132782000Y-64820725D01*
X132694462Y-64609389D01*
X132532711Y-64447638D01*
X132321375Y-64360100D01*
X132092625Y-64360100D01*
X131881289Y-64447638D01*
X131719538Y-64609389D01*
X131632000Y-64820725D01*
X131512000Y-64820725D01*
X131512000Y-64808025D01*
X131424462Y-64596689D01*
X131262711Y-64434938D01*
X131051375Y-64347400D01*
X130822625Y-64347400D01*
X130611289Y-64434938D01*
X130449538Y-64596689D01*
X130362000Y-64808025D01*
X123442000Y-64808025D01*
X123442000Y-61339000D01*
X198757000Y-61339000D01*
X198757000Y-102222000D01*
X198757000Y-102222000D01*
G37*
X198757000Y-102222000D02*
X198473843Y-102222000D01*
X198188998Y-102339987D01*
X198183500Y-102345485D01*
X198178002Y-102339987D01*
X197893157Y-102222000D01*
X197584843Y-102222000D01*
X197299998Y-102339987D01*
X197081987Y-102557998D01*
X196964000Y-102842843D01*
X196964000Y-103151157D01*
X197081987Y-103436002D01*
X197150985Y-103505000D01*
X197081987Y-103573998D01*
X196964000Y-103858843D01*
X196964000Y-104167157D01*
X197081987Y-104452002D01*
X197150985Y-104521000D01*
X197081987Y-104589998D01*
X196964000Y-104874843D01*
X196964000Y-105143000D01*
X196949843Y-105143000D01*
X196664998Y-105260987D01*
X196446987Y-105478998D01*
X196329000Y-105763843D01*
X196329000Y-106072157D01*
X196446987Y-106357002D01*
X196664998Y-106575013D01*
X196949843Y-106693000D01*
X197258157Y-106693000D01*
X197543002Y-106575013D01*
X197761013Y-106357002D01*
X197879000Y-106072157D01*
X197879000Y-105804000D01*
X197893157Y-105804000D01*
X198178002Y-105686013D01*
X198183500Y-105680515D01*
X198188998Y-105686013D01*
X198473843Y-105804000D01*
X198757000Y-105804000D01*
X198757000Y-117858000D01*
X169035000Y-117858000D01*
X169035000Y-112776000D01*
X169025485Y-112728165D01*
X168998388Y-112687612D01*
X168957835Y-112660515D01*
X168910000Y-112651000D01*
X168529000Y-112651000D01*
X168481165Y-112660515D01*
X168440612Y-112687612D01*
X168413515Y-112728165D01*
X168404000Y-112776000D01*
X168404000Y-117858000D01*
X91819000Y-117858000D01*
X91819000Y-114526843D01*
X148704000Y-114526843D01*
X148704000Y-114835157D01*
X148821987Y-115120002D01*
X149039998Y-115338013D01*
X149324843Y-115456000D01*
X149633157Y-115456000D01*
X149918002Y-115338013D01*
X150136013Y-115120002D01*
X150254000Y-114835157D01*
X150254000Y-114526843D01*
X150148790Y-114272843D01*
X154419000Y-114272843D01*
X154419000Y-114581157D01*
X154536987Y-114866002D01*
X154754998Y-115084013D01*
X155039843Y-115202000D01*
X155348157Y-115202000D01*
X155633002Y-115084013D01*
X155851013Y-114866002D01*
X155969000Y-114581157D01*
X155969000Y-114399843D01*
X164071000Y-114399843D01*
X164071000Y-114708157D01*
X164188987Y-114993002D01*
X164194485Y-114998500D01*
X164188987Y-115003998D01*
X164071000Y-115288843D01*
X164071000Y-115597157D01*
X164188987Y-115882002D01*
X164406998Y-116100013D01*
X164691843Y-116218000D01*
X165000157Y-116218000D01*
X165285002Y-116100013D01*
X165354000Y-116031015D01*
X165422998Y-116100013D01*
X165707843Y-116218000D01*
X166016157Y-116218000D01*
X166301002Y-116100013D01*
X166370000Y-116031015D01*
X166438998Y-116100013D01*
X166723843Y-116218000D01*
X167032157Y-116218000D01*
X167317002Y-116100013D01*
X167535013Y-115882002D01*
X167653000Y-115597157D01*
X167653000Y-115288843D01*
X167535013Y-115003998D01*
X167529515Y-114998500D01*
X167535013Y-114993002D01*
X167653000Y-114708157D01*
X167653000Y-114399843D01*
X167535013Y-114114998D01*
X167317002Y-113896987D01*
X167032157Y-113779000D01*
X166723843Y-113779000D01*
X166438998Y-113896987D01*
X166370000Y-113965985D01*
X166301002Y-113896987D01*
X166016157Y-113779000D01*
X165707843Y-113779000D01*
X165422998Y-113896987D01*
X165354000Y-113965985D01*
X165285002Y-113896987D01*
X165000157Y-113779000D01*
X164691843Y-113779000D01*
X164406998Y-113896987D01*
X164188987Y-114114998D01*
X164071000Y-114399843D01*
X155969000Y-114399843D01*
X155969000Y-114272843D01*
X155851013Y-113987998D01*
X155633002Y-113769987D01*
X155348157Y-113652000D01*
X155039843Y-113652000D01*
X154754998Y-113769987D01*
X154536987Y-113987998D01*
X154419000Y-114272843D01*
X150148790Y-114272843D01*
X150136013Y-114241998D01*
X149918002Y-114023987D01*
X149633157Y-113906000D01*
X149324843Y-113906000D01*
X149039998Y-114023987D01*
X148821987Y-114241998D01*
X148704000Y-114526843D01*
X91819000Y-114526843D01*
X91819000Y-112621843D01*
X129146000Y-112621843D01*
X129146000Y-112930157D01*
X129263987Y-113215002D01*
X129481998Y-113433013D01*
X129766843Y-113551000D01*
X130075157Y-113551000D01*
X130360002Y-113433013D01*
X130578013Y-113215002D01*
X130696000Y-112930157D01*
X130696000Y-112621843D01*
X130578013Y-112336998D01*
X130360002Y-112118987D01*
X130075157Y-112001000D01*
X129766843Y-112001000D01*
X129481998Y-112118987D01*
X129263987Y-112336998D01*
X129146000Y-112621843D01*
X91819000Y-112621843D01*
X91819000Y-111518625D01*
X170240000Y-111518625D01*
X170240000Y-111747375D01*
X170327538Y-111958711D01*
X170489289Y-112120462D01*
X170700625Y-112208000D01*
X170929375Y-112208000D01*
X171140711Y-112120462D01*
X171302462Y-111958711D01*
X171390000Y-111747375D01*
X171390000Y-111518625D01*
X171302462Y-111307289D01*
X171140711Y-111145538D01*
X170929375Y-111058000D01*
X170700625Y-111058000D01*
X170489289Y-111145538D01*
X170327538Y-111307289D01*
X170240000Y-111518625D01*
X91819000Y-111518625D01*
X91819000Y-110462843D01*
X128003000Y-110462843D01*
X128003000Y-110771157D01*
X128120987Y-111056002D01*
X128338998Y-111274013D01*
X128623843Y-111392000D01*
X128932157Y-111392000D01*
X129217002Y-111274013D01*
X129435013Y-111056002D01*
X129553000Y-110771157D01*
X129553000Y-110462843D01*
X129435013Y-110177998D01*
X129217002Y-109959987D01*
X128932157Y-109842000D01*
X128623843Y-109842000D01*
X128338998Y-109959987D01*
X128120987Y-110177998D01*
X128003000Y-110462843D01*
X91819000Y-110462843D01*
X91819000Y-109700843D01*
X142862000Y-109700843D01*
X142862000Y-110009157D01*
X142979987Y-110294002D01*
X143197998Y-110512013D01*
X143482843Y-110630000D01*
X143791157Y-110630000D01*
X144076002Y-110512013D01*
X144294013Y-110294002D01*
X144412000Y-110009157D01*
X144412000Y-109740625D01*
X166430000Y-109740625D01*
X166430000Y-109969375D01*
X166517538Y-110180711D01*
X166679289Y-110342462D01*
X166890625Y-110430000D01*
X167119375Y-110430000D01*
X167330711Y-110342462D01*
X167492462Y-110180711D01*
X167580000Y-109969375D01*
X167580000Y-109740625D01*
X167492462Y-109529289D01*
X167330711Y-109367538D01*
X167119375Y-109280000D01*
X166890625Y-109280000D01*
X166679289Y-109367538D01*
X166517538Y-109529289D01*
X166430000Y-109740625D01*
X144412000Y-109740625D01*
X144412000Y-109700843D01*
X144294013Y-109415998D01*
X144076002Y-109197987D01*
X143791157Y-109080000D01*
X143482843Y-109080000D01*
X143197998Y-109197987D01*
X142979987Y-109415998D01*
X142862000Y-109700843D01*
X91819000Y-109700843D01*
X91819000Y-106271843D01*
X111366000Y-106271843D01*
X111366000Y-106580157D01*
X111483987Y-106865002D01*
X111701998Y-107083013D01*
X111986843Y-107201000D01*
X112295157Y-107201000D01*
X112580002Y-107083013D01*
X112798013Y-106865002D01*
X112916000Y-106580157D01*
X112916000Y-106271843D01*
X121907000Y-106271843D01*
X121907000Y-106580157D01*
X122024987Y-106865002D01*
X122242998Y-107083013D01*
X122527843Y-107201000D01*
X122836157Y-107201000D01*
X123121002Y-107083013D01*
X123257390Y-106946625D01*
X124266000Y-106946625D01*
X124266000Y-107175375D01*
X124350137Y-107378500D01*
X124266000Y-107581625D01*
X124266000Y-107810375D01*
X124350137Y-108013500D01*
X124266000Y-108216625D01*
X124266000Y-108445375D01*
X124353538Y-108656711D01*
X124515289Y-108818462D01*
X124726625Y-108906000D01*
X124955375Y-108906000D01*
X125166711Y-108818462D01*
X125328462Y-108656711D01*
X125369414Y-108557843D01*
X134226000Y-108557843D01*
X134226000Y-108866157D01*
X134343987Y-109151002D01*
X134561998Y-109369013D01*
X134846843Y-109487000D01*
X135155157Y-109487000D01*
X135440002Y-109369013D01*
X135658013Y-109151002D01*
X135776000Y-108866157D01*
X135776000Y-108557843D01*
X135658013Y-108272998D01*
X135440002Y-108054987D01*
X135155157Y-107937000D01*
X134846843Y-107937000D01*
X134561998Y-108054987D01*
X134343987Y-108272998D01*
X134226000Y-108557843D01*
X125369414Y-108557843D01*
X125416000Y-108445375D01*
X125416000Y-108216625D01*
X125331863Y-108013500D01*
X125416000Y-107810375D01*
X125416000Y-107581625D01*
X125331863Y-107378500D01*
X125416000Y-107175375D01*
X125416000Y-106946625D01*
X125328462Y-106735289D01*
X125166711Y-106573538D01*
X125051565Y-106525843D01*
X140322000Y-106525843D01*
X140322000Y-106834157D01*
X140439987Y-107119002D01*
X140657998Y-107337013D01*
X140942843Y-107455000D01*
X141251157Y-107455000D01*
X141536002Y-107337013D01*
X141585172Y-107287843D01*
X158483000Y-107287843D01*
X158483000Y-107596157D01*
X158600987Y-107881002D01*
X158818998Y-108099013D01*
X159103843Y-108217000D01*
X159412157Y-108217000D01*
X159697002Y-108099013D01*
X159915013Y-107881002D01*
X160033000Y-107596157D01*
X160033000Y-107287843D01*
X159915013Y-107002998D01*
X159697002Y-106784987D01*
X159412157Y-106667000D01*
X159103843Y-106667000D01*
X158818998Y-106784987D01*
X158600987Y-107002998D01*
X158483000Y-107287843D01*
X141585172Y-107287843D01*
X141754013Y-107119002D01*
X141872000Y-106834157D01*
X141872000Y-106525843D01*
X141754013Y-106240998D01*
X141536002Y-106022987D01*
X141251157Y-105905000D01*
X140942843Y-105905000D01*
X140657998Y-106022987D01*
X140439987Y-106240998D01*
X140322000Y-106525843D01*
X125051565Y-106525843D01*
X124955375Y-106486000D01*
X124726625Y-106486000D01*
X124515289Y-106573538D01*
X124353538Y-106735289D01*
X124266000Y-106946625D01*
X123257390Y-106946625D01*
X123339013Y-106865002D01*
X123457000Y-106580157D01*
X123457000Y-106271843D01*
X123339013Y-105986998D01*
X123121002Y-105768987D01*
X122836157Y-105651000D01*
X122527843Y-105651000D01*
X122242998Y-105768987D01*
X122024987Y-105986998D01*
X121907000Y-106271843D01*
X112916000Y-106271843D01*
X112798013Y-105986998D01*
X112580002Y-105768987D01*
X112295157Y-105651000D01*
X111986843Y-105651000D01*
X111701998Y-105768987D01*
X111483987Y-105986998D01*
X111366000Y-106271843D01*
X91819000Y-106271843D01*
X91819000Y-104874843D01*
X114414000Y-104874843D01*
X114414000Y-105183157D01*
X114531987Y-105468002D01*
X114749998Y-105686013D01*
X115034843Y-105804000D01*
X115343157Y-105804000D01*
X115628002Y-105686013D01*
X115846013Y-105468002D01*
X115964000Y-105183157D01*
X115964000Y-104874843D01*
X115927874Y-104787625D01*
X129473000Y-104787625D01*
X129473000Y-105016375D01*
X129560538Y-105227711D01*
X129722289Y-105389462D01*
X129933625Y-105477000D01*
X130162375Y-105477000D01*
X130373711Y-105389462D01*
X130535462Y-105227711D01*
X130623000Y-105016375D01*
X130623000Y-104787625D01*
X135569000Y-104787625D01*
X135569000Y-105016375D01*
X135656538Y-105227711D01*
X135818289Y-105389462D01*
X136029625Y-105477000D01*
X136258375Y-105477000D01*
X136469711Y-105389462D01*
X136631462Y-105227711D01*
X136719000Y-105016375D01*
X136719000Y-104874843D01*
X136766000Y-104874843D01*
X136766000Y-105183157D01*
X136883987Y-105468002D01*
X137101998Y-105686013D01*
X137386843Y-105804000D01*
X137695157Y-105804000D01*
X137980002Y-105686013D01*
X138129684Y-105536331D01*
X138153987Y-105595002D01*
X138371998Y-105813013D01*
X138656843Y-105931000D01*
X138965157Y-105931000D01*
X139250002Y-105813013D01*
X139468013Y-105595002D01*
X139586000Y-105310157D01*
X139586000Y-105001843D01*
X139468013Y-104716998D01*
X139250002Y-104498987D01*
X138965157Y-104381000D01*
X138656843Y-104381000D01*
X138371998Y-104498987D01*
X138222316Y-104648669D01*
X138198013Y-104589998D01*
X137980002Y-104371987D01*
X137695157Y-104254000D01*
X137386843Y-104254000D01*
X137101998Y-104371987D01*
X136883987Y-104589998D01*
X136766000Y-104874843D01*
X136719000Y-104874843D01*
X136719000Y-104787625D01*
X136631462Y-104576289D01*
X136469711Y-104414538D01*
X136258375Y-104327000D01*
X136029625Y-104327000D01*
X135818289Y-104414538D01*
X135656538Y-104576289D01*
X135569000Y-104787625D01*
X130623000Y-104787625D01*
X130535462Y-104576289D01*
X130373711Y-104414538D01*
X130162375Y-104327000D01*
X129933625Y-104327000D01*
X129722289Y-104414538D01*
X129560538Y-104576289D01*
X129473000Y-104787625D01*
X115927874Y-104787625D01*
X115846013Y-104589998D01*
X115628002Y-104371987D01*
X115343157Y-104254000D01*
X115034843Y-104254000D01*
X114749998Y-104371987D01*
X114531987Y-104589998D01*
X114414000Y-104874843D01*
X91819000Y-104874843D01*
X91819000Y-102382278D01*
X92678000Y-102382278D01*
X92678000Y-102849722D01*
X92856883Y-103281584D01*
X93187416Y-103612117D01*
X93619278Y-103791000D01*
X94086722Y-103791000D01*
X94518584Y-103612117D01*
X94849117Y-103281584D01*
X94961766Y-103009625D01*
X123377000Y-103009625D01*
X123377000Y-103238375D01*
X123464538Y-103449711D01*
X123626289Y-103611462D01*
X123837625Y-103699000D01*
X124019827Y-103699000D01*
X123904538Y-103814289D01*
X123817000Y-104025625D01*
X123817000Y-104254375D01*
X123904538Y-104465711D01*
X124066289Y-104627462D01*
X124277625Y-104715000D01*
X124506375Y-104715000D01*
X124717711Y-104627462D01*
X124879462Y-104465711D01*
X124967000Y-104254375D01*
X124967000Y-104025625D01*
X124879462Y-103814289D01*
X124836798Y-103771625D01*
X134045000Y-103771625D01*
X134045000Y-104000375D01*
X134132538Y-104211711D01*
X134294289Y-104373462D01*
X134505625Y-104461000D01*
X134734375Y-104461000D01*
X134945711Y-104373462D01*
X135107462Y-104211711D01*
X135195000Y-104000375D01*
X135195000Y-103771625D01*
X135107462Y-103560289D01*
X134945711Y-103398538D01*
X134734375Y-103311000D01*
X134505625Y-103311000D01*
X134294289Y-103398538D01*
X134132538Y-103560289D01*
X134045000Y-103771625D01*
X124836798Y-103771625D01*
X124717711Y-103652538D01*
X124506375Y-103565000D01*
X124324173Y-103565000D01*
X124439462Y-103449711D01*
X124527000Y-103238375D01*
X124527000Y-103009625D01*
X129219000Y-103009625D01*
X129219000Y-103238375D01*
X129306538Y-103449711D01*
X129468289Y-103611462D01*
X129679625Y-103699000D01*
X129908375Y-103699000D01*
X130119711Y-103611462D01*
X130281462Y-103449711D01*
X130369000Y-103238375D01*
X130369000Y-103009625D01*
X130281462Y-102798289D01*
X130119711Y-102636538D01*
X130004565Y-102588843D01*
X138036000Y-102588843D01*
X138036000Y-102897157D01*
X138153987Y-103182002D01*
X138371998Y-103400013D01*
X138656843Y-103518000D01*
X138965157Y-103518000D01*
X139250002Y-103400013D01*
X139468013Y-103182002D01*
X139586000Y-102897157D01*
X139586000Y-102588843D01*
X139468013Y-102303998D01*
X139250002Y-102085987D01*
X138965157Y-101968000D01*
X138656843Y-101968000D01*
X138371998Y-102085987D01*
X138153987Y-102303998D01*
X138036000Y-102588843D01*
X130004565Y-102588843D01*
X129908375Y-102549000D01*
X129679625Y-102549000D01*
X129468289Y-102636538D01*
X129306538Y-102798289D01*
X129219000Y-103009625D01*
X124527000Y-103009625D01*
X124439462Y-102798289D01*
X124277711Y-102636538D01*
X124066375Y-102549000D01*
X123837625Y-102549000D01*
X123626289Y-102636538D01*
X123464538Y-102798289D01*
X123377000Y-103009625D01*
X94961766Y-103009625D01*
X95028000Y-102849722D01*
X95028000Y-102382278D01*
X94850537Y-101953843D01*
X111239000Y-101953843D01*
X111239000Y-102262157D01*
X111356987Y-102547002D01*
X111574998Y-102765013D01*
X111859843Y-102883000D01*
X112168157Y-102883000D01*
X112453002Y-102765013D01*
X112671013Y-102547002D01*
X112789000Y-102262157D01*
X112789000Y-101953843D01*
X121780000Y-101953843D01*
X121780000Y-102262157D01*
X121897987Y-102547002D01*
X122115998Y-102765013D01*
X122400843Y-102883000D01*
X122709157Y-102883000D01*
X122994002Y-102765013D01*
X123212013Y-102547002D01*
X123330000Y-102262157D01*
X123330000Y-101953843D01*
X123212013Y-101668998D01*
X122994002Y-101450987D01*
X122709157Y-101333000D01*
X122400843Y-101333000D01*
X122115998Y-101450987D01*
X121897987Y-101668998D01*
X121780000Y-101953843D01*
X112789000Y-101953843D01*
X112671013Y-101668998D01*
X112453002Y-101450987D01*
X112168157Y-101333000D01*
X111859843Y-101333000D01*
X111574998Y-101450987D01*
X111356987Y-101668998D01*
X111239000Y-101953843D01*
X94850537Y-101953843D01*
X94849117Y-101950416D01*
X94518584Y-101619883D01*
X94086722Y-101441000D01*
X93619278Y-101441000D01*
X93187416Y-101619883D01*
X92856883Y-101950416D01*
X92678000Y-102382278D01*
X91819000Y-102382278D01*
X91819000Y-101191843D01*
X140322000Y-101191843D01*
X140322000Y-101500157D01*
X140439987Y-101785002D01*
X140657998Y-102003013D01*
X140942843Y-102121000D01*
X141251157Y-102121000D01*
X141536002Y-102003013D01*
X141754013Y-101785002D01*
X141872000Y-101500157D01*
X141872000Y-101191843D01*
X142608000Y-101191843D01*
X142608000Y-101500157D01*
X142725987Y-101785002D01*
X142943998Y-102003013D01*
X143228843Y-102121000D01*
X143537157Y-102121000D01*
X143822002Y-102003013D01*
X144040013Y-101785002D01*
X144158000Y-101500157D01*
X144158000Y-101191843D01*
X144040013Y-100906998D01*
X143822002Y-100688987D01*
X143537157Y-100571000D01*
X143228843Y-100571000D01*
X142943998Y-100688987D01*
X142725987Y-100906998D01*
X142608000Y-101191843D01*
X141872000Y-101191843D01*
X141754013Y-100906998D01*
X141536002Y-100688987D01*
X141251157Y-100571000D01*
X140942843Y-100571000D01*
X140657998Y-100688987D01*
X140439987Y-100906998D01*
X140322000Y-101191843D01*
X91819000Y-101191843D01*
X91819000Y-100302843D01*
X164325000Y-100302843D01*
X164325000Y-100611157D01*
X164442987Y-100896002D01*
X164448485Y-100901500D01*
X164442987Y-100906998D01*
X164325000Y-101191843D01*
X164325000Y-101500157D01*
X164442987Y-101785002D01*
X164660998Y-102003013D01*
X164945843Y-102121000D01*
X165254157Y-102121000D01*
X165539002Y-102003013D01*
X165608000Y-101934015D01*
X165676998Y-102003013D01*
X165961843Y-102121000D01*
X166270157Y-102121000D01*
X166555002Y-102003013D01*
X166687500Y-101870515D01*
X166819998Y-102003013D01*
X167104843Y-102121000D01*
X167413157Y-102121000D01*
X167698002Y-102003013D01*
X167916013Y-101785002D01*
X168034000Y-101500157D01*
X168034000Y-101191843D01*
X167916013Y-100906998D01*
X167910515Y-100901500D01*
X167916013Y-100896002D01*
X168034000Y-100611157D01*
X168034000Y-100302843D01*
X167916013Y-100017998D01*
X167698002Y-99799987D01*
X167413157Y-99682000D01*
X167104843Y-99682000D01*
X166819998Y-99799987D01*
X166687500Y-99932485D01*
X166555002Y-99799987D01*
X166270157Y-99682000D01*
X165961843Y-99682000D01*
X165676998Y-99799987D01*
X165608000Y-99868985D01*
X165539002Y-99799987D01*
X165254157Y-99682000D01*
X164945843Y-99682000D01*
X164660998Y-99799987D01*
X164442987Y-100017998D01*
X164325000Y-100302843D01*
X91819000Y-100302843D01*
X91819000Y-97508843D01*
X125844000Y-97508843D01*
X125844000Y-97817157D01*
X125961987Y-98102002D01*
X126179998Y-98320013D01*
X126464843Y-98438000D01*
X126773157Y-98438000D01*
X127058002Y-98320013D01*
X127276013Y-98102002D01*
X127394000Y-97817157D01*
X127394000Y-97508843D01*
X127276013Y-97223998D01*
X127058002Y-97005987D01*
X126804542Y-96901000D01*
X166118000Y-96901000D01*
X166118000Y-98679000D01*
X166127515Y-98726835D01*
X166161651Y-98773907D01*
X167050651Y-99535907D01*
X167093163Y-99559814D01*
X167132000Y-99566000D01*
X168404000Y-99566000D01*
X168404000Y-109982000D01*
X168413515Y-110029835D01*
X168440612Y-110070388D01*
X168481165Y-110097485D01*
X168529000Y-110107000D01*
X168910000Y-110107000D01*
X168957835Y-110097485D01*
X168998388Y-110070388D01*
X169025485Y-110029835D01*
X169035000Y-109982000D01*
X169035000Y-102882625D01*
X189290000Y-102882625D01*
X189290000Y-103111375D01*
X189377538Y-103322711D01*
X189539289Y-103484462D01*
X189750625Y-103572000D01*
X189979375Y-103572000D01*
X190190711Y-103484462D01*
X190352462Y-103322711D01*
X190440000Y-103111375D01*
X190440000Y-102882625D01*
X190352462Y-102671289D01*
X190190711Y-102509538D01*
X189979375Y-102422000D01*
X189750625Y-102422000D01*
X189539289Y-102509538D01*
X189377538Y-102671289D01*
X189290000Y-102882625D01*
X169035000Y-102882625D01*
X169035000Y-100596625D01*
X187512000Y-100596625D01*
X187512000Y-100825375D01*
X187599538Y-101036711D01*
X187761289Y-101198462D01*
X187972625Y-101286000D01*
X188201375Y-101286000D01*
X188412711Y-101198462D01*
X188574462Y-101036711D01*
X188662000Y-100825375D01*
X188662000Y-100596625D01*
X188574462Y-100385289D01*
X188417147Y-100227974D01*
X188694843Y-100343000D01*
X189003157Y-100343000D01*
X189151408Y-100281592D01*
X189090000Y-100429843D01*
X189090000Y-100738157D01*
X189207987Y-101023002D01*
X189425998Y-101241013D01*
X189710843Y-101359000D01*
X190019157Y-101359000D01*
X190304002Y-101241013D01*
X190522013Y-101023002D01*
X190640000Y-100738157D01*
X190640000Y-100429843D01*
X190522013Y-100144998D01*
X190453015Y-100076000D01*
X190522013Y-100007002D01*
X190640000Y-99722157D01*
X190640000Y-99413843D01*
X190522013Y-99128998D01*
X190453015Y-99060000D01*
X190522013Y-98991002D01*
X190640000Y-98706157D01*
X190640000Y-98397843D01*
X190522013Y-98112998D01*
X190453015Y-98044000D01*
X190522013Y-97975002D01*
X190640000Y-97690157D01*
X190640000Y-97381843D01*
X190522013Y-97096998D01*
X190304002Y-96878987D01*
X190019157Y-96761000D01*
X189710843Y-96761000D01*
X189425998Y-96878987D01*
X189357000Y-96947985D01*
X189288002Y-96878987D01*
X189003157Y-96761000D01*
X188694843Y-96761000D01*
X188409998Y-96878987D01*
X188191987Y-97096998D01*
X188074000Y-97381843D01*
X188074000Y-97690157D01*
X188191987Y-97975002D01*
X188260985Y-98044000D01*
X188191987Y-98112998D01*
X188074000Y-98397843D01*
X188074000Y-98706157D01*
X188191987Y-98991002D01*
X188260985Y-99060000D01*
X188191987Y-99128998D01*
X188074000Y-99413843D01*
X188074000Y-99722157D01*
X188191987Y-100007002D01*
X188405562Y-100220577D01*
X188201375Y-100136000D01*
X187972625Y-100136000D01*
X187761289Y-100223538D01*
X187599538Y-100385289D01*
X187512000Y-100596625D01*
X169035000Y-100596625D01*
X169035000Y-99060000D01*
X169025485Y-99012165D01*
X168998388Y-98971612D01*
X168957835Y-98944515D01*
X168910000Y-98935000D01*
X167431257Y-98935000D01*
X166749000Y-98366453D01*
X166749000Y-96901000D01*
X166739485Y-96853165D01*
X166712388Y-96812612D01*
X166671835Y-96785515D01*
X166624000Y-96776000D01*
X166243000Y-96776000D01*
X166195165Y-96785515D01*
X166154612Y-96812612D01*
X166127515Y-96853165D01*
X166118000Y-96901000D01*
X126804542Y-96901000D01*
X126773157Y-96888000D01*
X126464843Y-96888000D01*
X126179998Y-97005987D01*
X125961987Y-97223998D01*
X125844000Y-97508843D01*
X91819000Y-97508843D01*
X91819000Y-90295000D01*
X150114000Y-90295000D01*
X150161835Y-90285485D01*
X150202388Y-90258388D01*
X150229485Y-90217835D01*
X150239000Y-90170000D01*
X150239000Y-86677425D01*
X150859800Y-86677425D01*
X150859800Y-86906175D01*
X150947338Y-87117511D01*
X151109089Y-87279262D01*
X151320425Y-87366800D01*
X151549175Y-87366800D01*
X151760511Y-87279262D01*
X151922262Y-87117511D01*
X152009800Y-86906175D01*
X152009800Y-86677425D01*
X152142500Y-86677425D01*
X152142500Y-86906175D01*
X152230038Y-87117511D01*
X152391789Y-87279262D01*
X152603125Y-87366800D01*
X152831875Y-87366800D01*
X153043211Y-87279262D01*
X153204962Y-87117511D01*
X153231850Y-87052597D01*
X153258738Y-87117511D01*
X153420489Y-87279262D01*
X153631825Y-87366800D01*
X153860575Y-87366800D01*
X154071911Y-87279262D01*
X154233662Y-87117511D01*
X154321200Y-86906175D01*
X154321200Y-86677425D01*
X154479300Y-86677425D01*
X154479300Y-86906175D01*
X154566838Y-87117511D01*
X154728589Y-87279262D01*
X154939925Y-87366800D01*
X155168675Y-87366800D01*
X155380011Y-87279262D01*
X155541762Y-87117511D01*
X155629300Y-86906175D01*
X155629300Y-86677425D01*
X155541762Y-86466089D01*
X155380011Y-86304338D01*
X155168675Y-86216800D01*
X154939925Y-86216800D01*
X154728589Y-86304338D01*
X154566838Y-86466089D01*
X154479300Y-86677425D01*
X154321200Y-86677425D01*
X154233662Y-86466089D01*
X154071911Y-86304338D01*
X153860575Y-86216800D01*
X153631825Y-86216800D01*
X153420489Y-86304338D01*
X153258738Y-86466089D01*
X153231850Y-86531003D01*
X153204962Y-86466089D01*
X153043211Y-86304338D01*
X152831875Y-86216800D01*
X152603125Y-86216800D01*
X152391789Y-86304338D01*
X152230038Y-86466089D01*
X152142500Y-86677425D01*
X152009800Y-86677425D01*
X151922262Y-86466089D01*
X151760511Y-86304338D01*
X151549175Y-86216800D01*
X151320425Y-86216800D01*
X151109089Y-86304338D01*
X150947338Y-86466089D01*
X150859800Y-86677425D01*
X150239000Y-86677425D01*
X150239000Y-82845667D01*
X150807417Y-82087777D01*
X150807638Y-82088311D01*
X150969389Y-82250062D01*
X151180725Y-82337600D01*
X151409475Y-82337600D01*
X151620811Y-82250062D01*
X151782562Y-82088311D01*
X151870100Y-81876975D01*
X151870100Y-81648225D01*
X151782562Y-81436889D01*
X151620811Y-81275138D01*
X151422814Y-81193125D01*
X151704898Y-80770000D01*
X152275000Y-80770000D01*
X152275000Y-81788000D01*
X152284515Y-81835835D01*
X152303255Y-81867155D01*
X153446255Y-83264155D01*
X153450507Y-83269084D01*
X155958000Y-86027326D01*
X155958000Y-93472000D01*
X155967515Y-93519835D01*
X155994612Y-93560388D01*
X156035165Y-93587485D01*
X156083000Y-93597000D01*
X166118000Y-93597000D01*
X166118000Y-96393000D01*
X166127515Y-96440835D01*
X166154612Y-96481388D01*
X166195165Y-96508485D01*
X166243000Y-96518000D01*
X166624000Y-96518000D01*
X166671835Y-96508485D01*
X166712388Y-96481388D01*
X166739485Y-96440835D01*
X166749000Y-96393000D01*
X166749000Y-93091000D01*
X166739485Y-93043165D01*
X166712388Y-93002612D01*
X166671835Y-92975515D01*
X166624000Y-92966000D01*
X156589000Y-92966000D01*
X156589000Y-85725000D01*
X156579485Y-85677165D01*
X156554419Y-85638691D01*
X154951675Y-83959625D01*
X174558000Y-83959625D01*
X174558000Y-84188375D01*
X174645538Y-84399711D01*
X174807289Y-84561462D01*
X175018625Y-84649000D01*
X175247375Y-84649000D01*
X175458711Y-84561462D01*
X175620462Y-84399711D01*
X175708000Y-84188375D01*
X175708000Y-83959625D01*
X175620462Y-83748289D01*
X175458711Y-83586538D01*
X175247375Y-83499000D01*
X175018625Y-83499000D01*
X174807289Y-83586538D01*
X174645538Y-83748289D01*
X174558000Y-83959625D01*
X154951675Y-83959625D01*
X153888955Y-82846300D01*
X153491269Y-82398904D01*
X153649462Y-82240711D01*
X153737000Y-82029375D01*
X153737000Y-81800625D01*
X153649462Y-81589289D01*
X153487711Y-81427538D01*
X153276375Y-81340000D01*
X153047625Y-81340000D01*
X152906000Y-81398663D01*
X152906000Y-80264000D01*
X152896485Y-80216165D01*
X152869388Y-80175612D01*
X152828835Y-80148515D01*
X152781000Y-80139000D01*
X152670200Y-80139000D01*
X152670200Y-80048025D01*
X152633377Y-79959125D01*
X156308100Y-79959125D01*
X156308100Y-80187875D01*
X156395638Y-80399211D01*
X156557389Y-80560962D01*
X156768725Y-80648500D01*
X156997475Y-80648500D01*
X157208811Y-80560962D01*
X157370562Y-80399211D01*
X157458100Y-80187875D01*
X157458100Y-79959125D01*
X157370562Y-79747789D01*
X157208811Y-79586038D01*
X156997475Y-79498500D01*
X156768725Y-79498500D01*
X156557389Y-79586038D01*
X156395638Y-79747789D01*
X156308100Y-79959125D01*
X152633377Y-79959125D01*
X152582662Y-79836689D01*
X152420911Y-79674938D01*
X152209575Y-79587400D01*
X151980825Y-79587400D01*
X151769489Y-79674938D01*
X151607738Y-79836689D01*
X151520200Y-80048025D01*
X151520200Y-80139000D01*
X151384000Y-80139000D01*
X151336165Y-80148515D01*
X151295612Y-80175612D01*
X151276813Y-80199688D01*
X150991167Y-80675765D01*
X150969762Y-80624089D01*
X150808011Y-80462338D01*
X150596675Y-80374800D01*
X150367925Y-80374800D01*
X150156589Y-80462338D01*
X149994838Y-80624089D01*
X149907300Y-80835425D01*
X149907300Y-81064175D01*
X149994838Y-81275511D01*
X150156589Y-81437262D01*
X150367925Y-81524800D01*
X150470797Y-81524800D01*
X149910787Y-82244814D01*
X149893611Y-82227638D01*
X149682275Y-82140100D01*
X149453525Y-82140100D01*
X149242189Y-82227638D01*
X149080438Y-82389389D01*
X148992900Y-82600725D01*
X148992900Y-82829475D01*
X149067023Y-83008424D01*
X148932975Y-82952900D01*
X148704225Y-82952900D01*
X148492889Y-83040438D01*
X148331138Y-83202189D01*
X148243600Y-83413525D01*
X148243600Y-83642275D01*
X148331138Y-83853611D01*
X148492889Y-84015362D01*
X148665615Y-84086907D01*
X148577000Y-84300843D01*
X148577000Y-84609157D01*
X148694987Y-84894002D01*
X148912998Y-85112013D01*
X149197843Y-85230000D01*
X149506157Y-85230000D01*
X149608000Y-85187815D01*
X149608000Y-89664000D01*
X123442000Y-89664000D01*
X123442000Y-86675743D01*
X145402000Y-86675743D01*
X145402000Y-86984057D01*
X145519987Y-87268902D01*
X145737998Y-87486913D01*
X146022843Y-87604900D01*
X146331157Y-87604900D01*
X146616002Y-87486913D01*
X146834013Y-87268902D01*
X146952000Y-86984057D01*
X146952000Y-86675743D01*
X146834013Y-86390898D01*
X146616002Y-86172887D01*
X146331157Y-86054900D01*
X146022843Y-86054900D01*
X145737998Y-86172887D01*
X145519987Y-86390898D01*
X145402000Y-86675743D01*
X123442000Y-86675743D01*
X123442000Y-83337325D01*
X145589300Y-83337325D01*
X145589300Y-83566075D01*
X145676838Y-83777411D01*
X145838589Y-83939162D01*
X146049925Y-84026700D01*
X146278675Y-84026700D01*
X146490011Y-83939162D01*
X146651762Y-83777411D01*
X146739300Y-83566075D01*
X146739300Y-83337325D01*
X146651762Y-83125989D01*
X146490011Y-82964238D01*
X146278675Y-82876700D01*
X146049925Y-82876700D01*
X145838589Y-82964238D01*
X145676838Y-83125989D01*
X145589300Y-83337325D01*
X123442000Y-83337325D01*
X123442000Y-80935343D01*
X125005800Y-80935343D01*
X125005800Y-81243657D01*
X125123787Y-81528502D01*
X125341798Y-81746513D01*
X125626643Y-81864500D01*
X125934957Y-81864500D01*
X126219802Y-81746513D01*
X126318090Y-81648225D01*
X145919500Y-81648225D01*
X145919500Y-81876975D01*
X146007038Y-82088311D01*
X146168789Y-82250062D01*
X146380125Y-82337600D01*
X146608875Y-82337600D01*
X146815855Y-82251866D01*
X146745000Y-82422925D01*
X146745000Y-82651675D01*
X146832538Y-82863011D01*
X146994289Y-83024762D01*
X147205625Y-83112300D01*
X147434375Y-83112300D01*
X147645711Y-83024762D01*
X147807462Y-82863011D01*
X147895000Y-82651675D01*
X147895000Y-82422925D01*
X147807462Y-82211589D01*
X147726773Y-82130900D01*
X147782062Y-82075611D01*
X147869600Y-81864275D01*
X147869600Y-81635525D01*
X147788676Y-81440156D01*
X147993025Y-81524800D01*
X148221775Y-81524800D01*
X148433111Y-81437262D01*
X148496020Y-81374353D01*
X148569089Y-81447422D01*
X148780425Y-81534960D01*
X149009175Y-81534960D01*
X149220511Y-81447422D01*
X149382262Y-81285671D01*
X149469800Y-81074335D01*
X149469800Y-80845585D01*
X149382262Y-80634249D01*
X149220511Y-80472498D01*
X149009175Y-80384960D01*
X148780425Y-80384960D01*
X148569089Y-80472498D01*
X148506180Y-80535407D01*
X148433111Y-80462338D01*
X148221775Y-80374800D01*
X147993025Y-80374800D01*
X147781689Y-80462338D01*
X147707350Y-80536677D01*
X147633011Y-80462338D01*
X147421675Y-80374800D01*
X147192925Y-80374800D01*
X146981589Y-80462338D01*
X146819838Y-80624089D01*
X146732300Y-80835425D01*
X146732300Y-81064175D01*
X146819574Y-81274874D01*
X146608875Y-81187600D01*
X146380125Y-81187600D01*
X146168789Y-81275138D01*
X146007038Y-81436889D01*
X145919500Y-81648225D01*
X126318090Y-81648225D01*
X126437813Y-81528502D01*
X126555800Y-81243657D01*
X126555800Y-80935343D01*
X126437813Y-80650498D01*
X126219802Y-80432487D01*
X125934957Y-80314500D01*
X125626643Y-80314500D01*
X125341798Y-80432487D01*
X125123787Y-80650498D01*
X125005800Y-80935343D01*
X123442000Y-80935343D01*
X123442000Y-79656865D01*
X132495600Y-79656865D01*
X132495600Y-79885615D01*
X132583138Y-80096951D01*
X132744889Y-80258702D01*
X132956225Y-80346240D01*
X133184975Y-80346240D01*
X133396311Y-80258702D01*
X133558062Y-80096951D01*
X133645600Y-79885615D01*
X133645600Y-79738145D01*
X140432341Y-79738145D01*
X140432341Y-79966895D01*
X140519879Y-80178231D01*
X140681630Y-80339982D01*
X140892966Y-80427520D01*
X141121716Y-80427520D01*
X141333052Y-80339982D01*
X141494803Y-80178231D01*
X141582341Y-79966895D01*
X141582341Y-79738145D01*
X141494803Y-79526809D01*
X141333794Y-79365800D01*
X141516175Y-79365800D01*
X141727511Y-79278262D01*
X141889262Y-79116511D01*
X141976800Y-78905175D01*
X141976800Y-78830245D01*
X143379500Y-78830245D01*
X143379500Y-79058995D01*
X143467038Y-79270331D01*
X143628789Y-79432082D01*
X143840125Y-79519620D01*
X144068875Y-79519620D01*
X144280211Y-79432082D01*
X144441962Y-79270331D01*
X144529500Y-79058995D01*
X144529500Y-78830245D01*
X144441962Y-78618909D01*
X144280211Y-78457158D01*
X144068875Y-78369620D01*
X143840125Y-78369620D01*
X143628789Y-78457158D01*
X143467038Y-78618909D01*
X143379500Y-78830245D01*
X141976800Y-78830245D01*
X141976800Y-78676425D01*
X141889262Y-78465089D01*
X141727511Y-78303338D01*
X141516175Y-78215800D01*
X141287425Y-78215800D01*
X141076089Y-78303338D01*
X140914338Y-78465089D01*
X140826800Y-78676425D01*
X140826800Y-78905175D01*
X140914338Y-79116511D01*
X141075347Y-79277520D01*
X140892966Y-79277520D01*
X140681630Y-79365058D01*
X140519879Y-79526809D01*
X140432341Y-79738145D01*
X133645600Y-79738145D01*
X133645600Y-79656865D01*
X133558062Y-79445529D01*
X133396311Y-79283778D01*
X133184975Y-79196240D01*
X132956225Y-79196240D01*
X132744889Y-79283778D01*
X132583138Y-79445529D01*
X132495600Y-79656865D01*
X123442000Y-79656865D01*
X123442000Y-78508785D01*
X132023160Y-78508785D01*
X132023160Y-78737535D01*
X132110698Y-78948871D01*
X132272449Y-79110622D01*
X132483785Y-79198160D01*
X132712535Y-79198160D01*
X132923871Y-79110622D01*
X133085622Y-78948871D01*
X133173160Y-78737535D01*
X133173160Y-78508785D01*
X139246920Y-78508785D01*
X139246920Y-78737535D01*
X139334458Y-78948871D01*
X139496209Y-79110622D01*
X139707545Y-79198160D01*
X139936295Y-79198160D01*
X140147631Y-79110622D01*
X140309382Y-78948871D01*
X140396920Y-78737535D01*
X140396920Y-78508785D01*
X140309382Y-78297449D01*
X140147631Y-78135698D01*
X139936295Y-78048160D01*
X139707545Y-78048160D01*
X139496209Y-78135698D01*
X139334458Y-78297449D01*
X139246920Y-78508785D01*
X133173160Y-78508785D01*
X133085622Y-78297449D01*
X132923871Y-78135698D01*
X132712535Y-78048160D01*
X132483785Y-78048160D01*
X132272449Y-78135698D01*
X132110698Y-78297449D01*
X132023160Y-78508785D01*
X123442000Y-78508785D01*
X123442000Y-77198145D01*
X132231440Y-77198145D01*
X132231440Y-77426895D01*
X132318978Y-77638231D01*
X132480729Y-77799982D01*
X132692065Y-77887520D01*
X132920815Y-77887520D01*
X133132151Y-77799982D01*
X133293902Y-77638231D01*
X133326792Y-77558825D01*
X144217700Y-77558825D01*
X144217700Y-77787575D01*
X144305238Y-77998911D01*
X144466989Y-78160662D01*
X144678325Y-78248200D01*
X144907075Y-78248200D01*
X145118411Y-78160662D01*
X145202347Y-78076726D01*
X145206938Y-78087811D01*
X145368689Y-78249562D01*
X145580025Y-78337100D01*
X145808775Y-78337100D01*
X146020111Y-78249562D01*
X146107150Y-78162523D01*
X146206889Y-78262262D01*
X146418225Y-78349800D01*
X146646975Y-78349800D01*
X146783653Y-78293186D01*
X146719600Y-78447825D01*
X146719600Y-78676575D01*
X146807138Y-78887911D01*
X146881477Y-78962250D01*
X146807138Y-79036589D01*
X146719600Y-79247925D01*
X146719600Y-79476675D01*
X146807138Y-79688011D01*
X146968889Y-79849762D01*
X147180225Y-79937300D01*
X147408975Y-79937300D01*
X147620311Y-79849762D01*
X147782062Y-79688011D01*
X147869600Y-79476675D01*
X147869600Y-79247925D01*
X147791306Y-79058906D01*
X147980325Y-79137200D01*
X148209075Y-79137200D01*
X148420411Y-79049662D01*
X148582162Y-78887911D01*
X148669700Y-78676575D01*
X148669700Y-78447825D01*
X149132600Y-78447825D01*
X149132600Y-78676575D01*
X149220138Y-78887911D01*
X149381889Y-79049662D01*
X149593225Y-79137200D01*
X149821975Y-79137200D01*
X150033311Y-79049662D01*
X150195062Y-78887911D01*
X150282600Y-78676575D01*
X150282600Y-78447825D01*
X150195062Y-78236489D01*
X150033311Y-78074738D01*
X149821975Y-77987200D01*
X149593225Y-77987200D01*
X149381889Y-78074738D01*
X149220138Y-78236489D01*
X149132600Y-78447825D01*
X148669700Y-78447825D01*
X148582162Y-78236489D01*
X148514173Y-78168500D01*
X148594862Y-78087811D01*
X148682400Y-77876475D01*
X148682400Y-77647725D01*
X148594862Y-77436389D01*
X148433111Y-77274638D01*
X148221775Y-77187100D01*
X147993025Y-77187100D01*
X147781689Y-77274638D01*
X147619938Y-77436389D01*
X147532400Y-77647725D01*
X147532400Y-77876475D01*
X147613324Y-78071844D01*
X147408975Y-77987200D01*
X147180225Y-77987200D01*
X147043547Y-78043814D01*
X147107600Y-77889175D01*
X147107600Y-77660425D01*
X147020062Y-77449089D01*
X146858311Y-77287338D01*
X146646975Y-77199800D01*
X146418225Y-77199800D01*
X146206889Y-77287338D01*
X146119850Y-77374377D01*
X146020111Y-77274638D01*
X145808775Y-77187100D01*
X145580025Y-77187100D01*
X145368689Y-77274638D01*
X145284753Y-77358574D01*
X145280162Y-77347489D01*
X145118411Y-77185738D01*
X144907075Y-77098200D01*
X144678325Y-77098200D01*
X144466989Y-77185738D01*
X144305238Y-77347489D01*
X144217700Y-77558825D01*
X133326792Y-77558825D01*
X133381440Y-77426895D01*
X133381440Y-77198145D01*
X133293902Y-76986809D01*
X133205518Y-76898425D01*
X150669300Y-76898425D01*
X150669300Y-77127175D01*
X150756838Y-77338511D01*
X150831177Y-77412850D01*
X150807638Y-77436389D01*
X150720100Y-77647725D01*
X150720100Y-77876475D01*
X150807638Y-78087811D01*
X150881977Y-78162150D01*
X150782238Y-78261889D01*
X150694700Y-78473225D01*
X150694700Y-78701975D01*
X150782238Y-78913311D01*
X150943989Y-79075062D01*
X151155325Y-79162600D01*
X151384075Y-79162600D01*
X151595411Y-79075062D01*
X151757162Y-78913311D01*
X151844700Y-78701975D01*
X151844700Y-78473225D01*
X151757162Y-78261889D01*
X151682823Y-78187550D01*
X151782562Y-78087811D01*
X151870100Y-77876475D01*
X151870100Y-77647725D01*
X151782562Y-77436389D01*
X151708223Y-77362050D01*
X151731762Y-77338511D01*
X151819300Y-77127175D01*
X151819300Y-76898425D01*
X151731762Y-76687089D01*
X151657423Y-76612750D01*
X151669750Y-76600423D01*
X151744089Y-76674762D01*
X151955425Y-76762300D01*
X152184175Y-76762300D01*
X152395511Y-76674762D01*
X152527448Y-76542825D01*
X152942600Y-76542825D01*
X152942600Y-76771575D01*
X153030138Y-76982911D01*
X153191889Y-77144662D01*
X153403225Y-77232200D01*
X153631975Y-77232200D01*
X153843311Y-77144662D01*
X154005062Y-76982911D01*
X154092600Y-76771575D01*
X154092600Y-76542825D01*
X154005062Y-76331489D01*
X153843311Y-76169738D01*
X153808515Y-76155325D01*
X154187200Y-76155325D01*
X154187200Y-76384075D01*
X154274738Y-76595411D01*
X154436489Y-76757162D01*
X154647825Y-76844700D01*
X154876575Y-76844700D01*
X155087911Y-76757162D01*
X155249662Y-76595411D01*
X155337200Y-76384075D01*
X155337200Y-76155325D01*
X155249662Y-75943989D01*
X155147361Y-75841688D01*
X189813100Y-75841688D01*
X189813100Y-76130112D01*
X189923474Y-76396580D01*
X189937794Y-76410900D01*
X189923474Y-76425220D01*
X189813100Y-76691688D01*
X189813100Y-76980112D01*
X189923474Y-77246580D01*
X189937794Y-77260900D01*
X189923474Y-77275220D01*
X189813100Y-77541688D01*
X189813100Y-77830112D01*
X189923474Y-78096580D01*
X189937794Y-78110900D01*
X189923474Y-78125220D01*
X189813100Y-78391688D01*
X189813100Y-78680112D01*
X189923474Y-78946580D01*
X189937794Y-78960900D01*
X189923474Y-78975220D01*
X189813100Y-79241688D01*
X189813100Y-79530112D01*
X189923474Y-79796580D01*
X189937794Y-79810900D01*
X189923474Y-79825220D01*
X189813100Y-80091688D01*
X189813100Y-80380112D01*
X189923474Y-80646580D01*
X190127420Y-80850526D01*
X190393888Y-80960900D01*
X190682312Y-80960900D01*
X190948780Y-80850526D01*
X191152726Y-80646580D01*
X191213100Y-80500823D01*
X191273474Y-80646580D01*
X191477420Y-80850526D01*
X191743888Y-80960900D01*
X192032312Y-80960900D01*
X192298780Y-80850526D01*
X192502726Y-80646580D01*
X192613100Y-80380112D01*
X192613100Y-80091688D01*
X192502726Y-79825220D01*
X192488406Y-79810900D01*
X192502726Y-79796580D01*
X192613100Y-79530112D01*
X192613100Y-79241688D01*
X192502726Y-78975220D01*
X192488406Y-78960900D01*
X192502726Y-78946580D01*
X192613100Y-78680112D01*
X192613100Y-78391688D01*
X192502726Y-78125220D01*
X192488406Y-78110900D01*
X192502726Y-78096580D01*
X192613100Y-77830112D01*
X192613100Y-77541688D01*
X192502726Y-77275220D01*
X192488406Y-77260900D01*
X192502726Y-77246580D01*
X192613100Y-76980112D01*
X192613100Y-76691688D01*
X192502726Y-76425220D01*
X192488406Y-76410900D01*
X192502726Y-76396580D01*
X192613100Y-76130112D01*
X192613100Y-75841688D01*
X192502726Y-75575220D01*
X192298780Y-75371274D01*
X192032312Y-75260900D01*
X191743888Y-75260900D01*
X191477420Y-75371274D01*
X191273474Y-75575220D01*
X191213100Y-75720977D01*
X191152726Y-75575220D01*
X190948780Y-75371274D01*
X190682312Y-75260900D01*
X190393888Y-75260900D01*
X190127420Y-75371274D01*
X189923474Y-75575220D01*
X189813100Y-75841688D01*
X155147361Y-75841688D01*
X155087911Y-75782238D01*
X154876575Y-75694700D01*
X154647825Y-75694700D01*
X154436489Y-75782238D01*
X154274738Y-75943989D01*
X154187200Y-76155325D01*
X153808515Y-76155325D01*
X153631975Y-76082200D01*
X153403225Y-76082200D01*
X153191889Y-76169738D01*
X153030138Y-76331489D01*
X152942600Y-76542825D01*
X152527448Y-76542825D01*
X152557262Y-76513011D01*
X152644800Y-76301675D01*
X152644800Y-76072925D01*
X152572856Y-75899236D01*
X152755525Y-75974900D01*
X152984275Y-75974900D01*
X153195611Y-75887362D01*
X153357362Y-75725611D01*
X153444900Y-75514275D01*
X153444900Y-75285525D01*
X153357362Y-75074189D01*
X153195611Y-74912438D01*
X152984275Y-74824900D01*
X152755525Y-74824900D01*
X152544189Y-74912438D01*
X152506680Y-74949947D01*
X152431071Y-74874338D01*
X152219735Y-74786800D01*
X151990985Y-74786800D01*
X151779649Y-74874338D01*
X151617898Y-75036089D01*
X151530360Y-75247425D01*
X151530360Y-75476175D01*
X151610758Y-75670274D01*
X151409475Y-75586900D01*
X151180725Y-75586900D01*
X150969389Y-75674438D01*
X150807638Y-75836189D01*
X150720100Y-76047525D01*
X150720100Y-76276275D01*
X150807638Y-76487611D01*
X150881977Y-76561950D01*
X150756838Y-76687089D01*
X150669300Y-76898425D01*
X133205518Y-76898425D01*
X133132151Y-76825058D01*
X132920815Y-76737520D01*
X132692065Y-76737520D01*
X132480729Y-76825058D01*
X132318978Y-76986809D01*
X132231440Y-77198145D01*
X123442000Y-77198145D01*
X123442000Y-76047525D01*
X145119400Y-76047525D01*
X145119400Y-76276275D01*
X145206938Y-76487611D01*
X145368689Y-76649362D01*
X145580025Y-76736900D01*
X145808775Y-76736900D01*
X146020111Y-76649362D01*
X146181862Y-76487611D01*
X146269400Y-76276275D01*
X146269400Y-76047525D01*
X146181862Y-75836189D01*
X146020111Y-75674438D01*
X145808775Y-75586900D01*
X145580025Y-75586900D01*
X145368689Y-75674438D01*
X145206938Y-75836189D01*
X145119400Y-76047525D01*
X123442000Y-76047525D01*
X123442000Y-74447325D01*
X144319300Y-74447325D01*
X144319300Y-74676075D01*
X144406838Y-74887411D01*
X144568589Y-75049162D01*
X144779925Y-75136700D01*
X145008675Y-75136700D01*
X145220011Y-75049162D01*
X145381762Y-74887411D01*
X145420919Y-74792877D01*
X145476743Y-74816000D01*
X145785057Y-74816000D01*
X146069902Y-74698013D01*
X146287913Y-74480002D01*
X146405900Y-74195157D01*
X146405900Y-73926625D01*
X147868898Y-73926625D01*
X147868898Y-74155375D01*
X147956436Y-74366711D01*
X148118187Y-74528462D01*
X148329523Y-74616000D01*
X148558273Y-74616000D01*
X148769609Y-74528462D01*
X148931360Y-74366711D01*
X149018898Y-74155375D01*
X149018898Y-73926625D01*
X149012941Y-73912243D01*
X149059600Y-73912243D01*
X149059600Y-74220557D01*
X149177587Y-74505402D01*
X149395598Y-74723413D01*
X149680443Y-74841400D01*
X149988757Y-74841400D01*
X150273602Y-74723413D01*
X150491613Y-74505402D01*
X150609600Y-74220557D01*
X150609600Y-73912243D01*
X150491613Y-73627398D01*
X150273602Y-73409387D01*
X149988757Y-73291400D01*
X149680443Y-73291400D01*
X149395598Y-73409387D01*
X149177587Y-73627398D01*
X149059600Y-73912243D01*
X149012941Y-73912243D01*
X148931360Y-73715289D01*
X148769609Y-73553538D01*
X148558273Y-73466000D01*
X148329523Y-73466000D01*
X148118187Y-73553538D01*
X147956436Y-73715289D01*
X147868898Y-73926625D01*
X146405900Y-73926625D01*
X146405900Y-73886843D01*
X146344756Y-73739229D01*
X146435489Y-73829962D01*
X146646825Y-73917500D01*
X146875575Y-73917500D01*
X147086911Y-73829962D01*
X147248662Y-73668211D01*
X147336200Y-73456875D01*
X147336200Y-73228125D01*
X147248662Y-73016789D01*
X147112544Y-72880671D01*
X147303913Y-72689302D01*
X147421900Y-72404457D01*
X147421900Y-72096143D01*
X147303913Y-71811298D01*
X147182358Y-71689743D01*
X154279300Y-71689743D01*
X154279300Y-71998057D01*
X154397287Y-72282902D01*
X154615298Y-72500913D01*
X154900143Y-72618900D01*
X155208457Y-72618900D01*
X155493302Y-72500913D01*
X155711313Y-72282902D01*
X155829300Y-71998057D01*
X155829300Y-71689743D01*
X155711313Y-71404898D01*
X155616840Y-71310425D01*
X157326640Y-71310425D01*
X157326640Y-71539175D01*
X157414178Y-71750511D01*
X157575929Y-71912262D01*
X157787265Y-71999800D01*
X158016015Y-71999800D01*
X158227351Y-71912262D01*
X158389102Y-71750511D01*
X158476640Y-71539175D01*
X158476640Y-71310425D01*
X158389102Y-71099089D01*
X158227351Y-70937338D01*
X158016015Y-70849800D01*
X157787265Y-70849800D01*
X157575929Y-70937338D01*
X157414178Y-71099089D01*
X157326640Y-71310425D01*
X155616840Y-71310425D01*
X155493302Y-71186887D01*
X155208457Y-71068900D01*
X154900143Y-71068900D01*
X154615298Y-71186887D01*
X154397287Y-71404898D01*
X154279300Y-71689743D01*
X147182358Y-71689743D01*
X147085902Y-71593287D01*
X146801057Y-71475300D01*
X146492743Y-71475300D01*
X146207898Y-71593287D01*
X145989887Y-71811298D01*
X145871900Y-72096143D01*
X145871900Y-72404457D01*
X145989887Y-72689302D01*
X146207898Y-72907313D01*
X146331865Y-72958662D01*
X146273738Y-73016789D01*
X146186200Y-73228125D01*
X146186200Y-73456875D01*
X146216895Y-73530980D01*
X146069902Y-73383987D01*
X145785057Y-73266000D01*
X145476743Y-73266000D01*
X145191898Y-73383987D01*
X144973887Y-73601998D01*
X144855900Y-73886843D01*
X144855900Y-73986700D01*
X144779925Y-73986700D01*
X144568589Y-74074238D01*
X144406838Y-74235989D01*
X144319300Y-74447325D01*
X123442000Y-74447325D01*
X123442000Y-72159643D01*
X140271200Y-72159643D01*
X140271200Y-72467957D01*
X140389187Y-72752802D01*
X140607198Y-72970813D01*
X140892043Y-73088800D01*
X141200357Y-73088800D01*
X141485202Y-72970813D01*
X141703213Y-72752802D01*
X141821200Y-72467957D01*
X141821200Y-72159643D01*
X141703213Y-71874798D01*
X141485202Y-71656787D01*
X141200357Y-71538800D01*
X140892043Y-71538800D01*
X140607198Y-71656787D01*
X140389187Y-71874798D01*
X140271200Y-72159643D01*
X123442000Y-72159643D01*
X123442000Y-70535725D01*
X131644700Y-70535725D01*
X131644700Y-70764475D01*
X131732238Y-70975811D01*
X131893989Y-71137562D01*
X132105325Y-71225100D01*
X132334075Y-71225100D01*
X132545411Y-71137562D01*
X132707162Y-70975811D01*
X132794700Y-70764475D01*
X132794700Y-70535725D01*
X132789440Y-70523025D01*
X151291600Y-70523025D01*
X151291600Y-70751775D01*
X151379138Y-70963111D01*
X151540889Y-71124862D01*
X151752225Y-71212400D01*
X151980975Y-71212400D01*
X152192311Y-71124862D01*
X152354062Y-70963111D01*
X152441600Y-70751775D01*
X152441600Y-70523025D01*
X152354062Y-70311689D01*
X152192311Y-70149938D01*
X151980975Y-70062400D01*
X151752225Y-70062400D01*
X151540889Y-70149938D01*
X151379138Y-70311689D01*
X151291600Y-70523025D01*
X132789440Y-70523025D01*
X132707162Y-70324389D01*
X132545411Y-70162638D01*
X132334075Y-70075100D01*
X132105325Y-70075100D01*
X131893989Y-70162638D01*
X131732238Y-70324389D01*
X131644700Y-70535725D01*
X123442000Y-70535725D01*
X123442000Y-69095545D01*
X156198880Y-69095545D01*
X156198880Y-69324295D01*
X156286418Y-69535631D01*
X156448169Y-69697382D01*
X156659505Y-69784920D01*
X156888255Y-69784920D01*
X157099591Y-69697382D01*
X157261342Y-69535631D01*
X157348880Y-69324295D01*
X157348880Y-69095545D01*
X157323630Y-69034585D01*
X157473960Y-69034585D01*
X157473960Y-69263335D01*
X157561498Y-69474671D01*
X157723249Y-69636422D01*
X157934585Y-69723960D01*
X158163335Y-69723960D01*
X158374671Y-69636422D01*
X158536422Y-69474671D01*
X158623960Y-69263335D01*
X158623960Y-69049825D01*
X158749040Y-69049825D01*
X158749040Y-69278575D01*
X158836578Y-69489911D01*
X158998329Y-69651662D01*
X159209665Y-69739200D01*
X159438415Y-69739200D01*
X159649751Y-69651662D01*
X159811502Y-69489911D01*
X159899040Y-69278575D01*
X159899040Y-69049825D01*
X159893780Y-69037125D01*
X160016500Y-69037125D01*
X160016500Y-69265875D01*
X160104038Y-69477211D01*
X160265789Y-69638962D01*
X160477125Y-69726500D01*
X160705875Y-69726500D01*
X160917211Y-69638962D01*
X161078962Y-69477211D01*
X161093611Y-69441843D01*
X178610000Y-69441843D01*
X178610000Y-69750157D01*
X178727987Y-70035002D01*
X178945998Y-70253013D01*
X179230843Y-70371000D01*
X179539157Y-70371000D01*
X179824002Y-70253013D01*
X180042013Y-70035002D01*
X180160000Y-69750157D01*
X180160000Y-69441843D01*
X180042013Y-69156998D01*
X179824002Y-68938987D01*
X179539157Y-68821000D01*
X179230843Y-68821000D01*
X178945998Y-68938987D01*
X178727987Y-69156998D01*
X178610000Y-69441843D01*
X161093611Y-69441843D01*
X161166500Y-69265875D01*
X161166500Y-69037125D01*
X161078962Y-68825789D01*
X160917211Y-68664038D01*
X160705875Y-68576500D01*
X160477125Y-68576500D01*
X160265789Y-68664038D01*
X160104038Y-68825789D01*
X160016500Y-69037125D01*
X159893780Y-69037125D01*
X159811502Y-68838489D01*
X159649751Y-68676738D01*
X159438415Y-68589200D01*
X159209665Y-68589200D01*
X158998329Y-68676738D01*
X158836578Y-68838489D01*
X158749040Y-69049825D01*
X158623960Y-69049825D01*
X158623960Y-69034585D01*
X158536422Y-68823249D01*
X158374671Y-68661498D01*
X158163335Y-68573960D01*
X157934585Y-68573960D01*
X157723249Y-68661498D01*
X157561498Y-68823249D01*
X157473960Y-69034585D01*
X157323630Y-69034585D01*
X157261342Y-68884209D01*
X157099591Y-68722458D01*
X156888255Y-68634920D01*
X156659505Y-68634920D01*
X156448169Y-68722458D01*
X156286418Y-68884209D01*
X156198880Y-69095545D01*
X123442000Y-69095545D01*
X123442000Y-66293925D01*
X150161300Y-66293925D01*
X150161300Y-66522675D01*
X150248838Y-66734011D01*
X150410589Y-66895762D01*
X150621925Y-66983300D01*
X150850675Y-66983300D01*
X151062011Y-66895762D01*
X151223762Y-66734011D01*
X151311300Y-66522675D01*
X151311300Y-66520843D01*
X170167000Y-66520843D01*
X170167000Y-66829157D01*
X170284987Y-67114002D01*
X170290485Y-67119500D01*
X170284987Y-67124998D01*
X170167000Y-67409843D01*
X170167000Y-67718157D01*
X170284987Y-68003002D01*
X170290485Y-68008500D01*
X170284987Y-68013998D01*
X170167000Y-68298843D01*
X170167000Y-68607157D01*
X170284987Y-68892002D01*
X170502998Y-69110013D01*
X170787843Y-69228000D01*
X171096157Y-69228000D01*
X171381002Y-69110013D01*
X171450000Y-69041015D01*
X171518998Y-69110013D01*
X171803843Y-69228000D01*
X172112157Y-69228000D01*
X172397002Y-69110013D01*
X172615013Y-68892002D01*
X172733000Y-68607157D01*
X172733000Y-68298843D01*
X172615013Y-68013998D01*
X172609515Y-68008500D01*
X172615013Y-68003002D01*
X172733000Y-67718157D01*
X172733000Y-67409843D01*
X172615013Y-67124998D01*
X172609515Y-67119500D01*
X172615013Y-67114002D01*
X172733000Y-66829157D01*
X172733000Y-66520843D01*
X181343000Y-66520843D01*
X181343000Y-66829157D01*
X181460987Y-67114002D01*
X181466485Y-67119500D01*
X181460987Y-67124998D01*
X181343000Y-67409843D01*
X181343000Y-67718157D01*
X181460987Y-68003002D01*
X181554010Y-68096025D01*
X181470000Y-68298843D01*
X181470000Y-68607157D01*
X181587987Y-68892002D01*
X181805998Y-69110013D01*
X182090843Y-69228000D01*
X182399157Y-69228000D01*
X182684002Y-69110013D01*
X182689500Y-69104515D01*
X182694998Y-69110013D01*
X182979843Y-69228000D01*
X183288157Y-69228000D01*
X183573002Y-69110013D01*
X183791013Y-68892002D01*
X183909000Y-68607157D01*
X183909000Y-68298843D01*
X183791013Y-68013998D01*
X183785515Y-68008500D01*
X183791013Y-68003002D01*
X183909000Y-67718157D01*
X183909000Y-67409843D01*
X183791013Y-67124998D01*
X183785515Y-67119500D01*
X183791013Y-67114002D01*
X183909000Y-66829157D01*
X183909000Y-66520843D01*
X183791013Y-66235998D01*
X183573002Y-66017987D01*
X183288157Y-65900000D01*
X182979843Y-65900000D01*
X182694998Y-66017987D01*
X182626000Y-66086985D01*
X182557002Y-66017987D01*
X182272157Y-65900000D01*
X181963843Y-65900000D01*
X181678998Y-66017987D01*
X181460987Y-66235998D01*
X181343000Y-66520843D01*
X172733000Y-66520843D01*
X172615013Y-66235998D01*
X172397002Y-66017987D01*
X172112157Y-65900000D01*
X171803843Y-65900000D01*
X171518998Y-66017987D01*
X171450000Y-66086985D01*
X171381002Y-66017987D01*
X171096157Y-65900000D01*
X170787843Y-65900000D01*
X170502998Y-66017987D01*
X170284987Y-66235998D01*
X170167000Y-66520843D01*
X151311300Y-66520843D01*
X151311300Y-66293925D01*
X151223762Y-66082589D01*
X151062011Y-65920838D01*
X150850675Y-65833300D01*
X150621925Y-65833300D01*
X150410589Y-65920838D01*
X150248838Y-66082589D01*
X150161300Y-66293925D01*
X123442000Y-66293925D01*
X123442000Y-64808025D01*
X130362000Y-64808025D01*
X130362000Y-65036775D01*
X130449538Y-65248111D01*
X130611289Y-65409862D01*
X130822625Y-65497400D01*
X131051375Y-65497400D01*
X131262711Y-65409862D01*
X131424462Y-65248111D01*
X131512000Y-65036775D01*
X131512000Y-64820725D01*
X131632000Y-64820725D01*
X131632000Y-65049475D01*
X131719538Y-65260811D01*
X131881289Y-65422562D01*
X132092625Y-65510100D01*
X132321375Y-65510100D01*
X132532711Y-65422562D01*
X132694462Y-65260811D01*
X132782000Y-65049475D01*
X132782000Y-64833425D01*
X132902000Y-64833425D01*
X132902000Y-65062175D01*
X132989538Y-65273511D01*
X133151289Y-65435262D01*
X133362625Y-65522800D01*
X133591375Y-65522800D01*
X133802711Y-65435262D01*
X133964462Y-65273511D01*
X134052000Y-65062175D01*
X134052000Y-64833425D01*
X134041480Y-64808025D01*
X134172000Y-64808025D01*
X134172000Y-65036775D01*
X134259538Y-65248111D01*
X134421289Y-65409862D01*
X134632625Y-65497400D01*
X134861375Y-65497400D01*
X135072711Y-65409862D01*
X135234462Y-65248111D01*
X135322000Y-65036775D01*
X135322000Y-64808025D01*
X135234462Y-64596689D01*
X135072711Y-64434938D01*
X134896244Y-64361843D01*
X166230000Y-64361843D01*
X166230000Y-64670157D01*
X166347987Y-64955002D01*
X166565998Y-65173013D01*
X166850843Y-65291000D01*
X167159157Y-65291000D01*
X167444002Y-65173013D01*
X167662013Y-64955002D01*
X167780000Y-64670157D01*
X167780000Y-64361843D01*
X167662013Y-64076998D01*
X167444002Y-63858987D01*
X167159157Y-63741000D01*
X166850843Y-63741000D01*
X166565998Y-63858987D01*
X166347987Y-64076998D01*
X166230000Y-64361843D01*
X134896244Y-64361843D01*
X134861375Y-64347400D01*
X134632625Y-64347400D01*
X134421289Y-64434938D01*
X134259538Y-64596689D01*
X134172000Y-64808025D01*
X134041480Y-64808025D01*
X133964462Y-64622089D01*
X133802711Y-64460338D01*
X133591375Y-64372800D01*
X133362625Y-64372800D01*
X133151289Y-64460338D01*
X132989538Y-64622089D01*
X132902000Y-64833425D01*
X132782000Y-64833425D01*
X132782000Y-64820725D01*
X132694462Y-64609389D01*
X132532711Y-64447638D01*
X132321375Y-64360100D01*
X132092625Y-64360100D01*
X131881289Y-64447638D01*
X131719538Y-64609389D01*
X131632000Y-64820725D01*
X131512000Y-64820725D01*
X131512000Y-64808025D01*
X131424462Y-64596689D01*
X131262711Y-64434938D01*
X131051375Y-64347400D01*
X130822625Y-64347400D01*
X130611289Y-64434938D01*
X130449538Y-64596689D01*
X130362000Y-64808025D01*
X123442000Y-64808025D01*
X123442000Y-61339000D01*
X198757000Y-61339000D01*
X198757000Y-102222000D01*
G04 #@! TD*
M02*
